<?xml version="1.0" encoding="UTF-8" standalone="no"?>
<!-- Created with Inkscape (http://www.inkscape.org/) -->

<svg
   width="156.11253mm"
   height="63.340553mm"
   viewBox="0 0 156.11253 63.340553"
   version="1.1"
   id="svg1"
   xml:space="preserve"
   inkscape:version="1.4.1 (93de688d07, 2025-03-30)"
   sodipodi:docname="logo_classification_sn_2.svg"
   inkscape:export-filename="logo_classification_sn_2.png"
   inkscape:export-xdpi="90"
   inkscape:export-ydpi="90"
   xmlns:inkscape="http://www.inkscape.org/namespaces/inkscape"
   xmlns:sodipodi="http://sodipodi.sourceforge.net/DTD/sodipodi-0.dtd"
   xmlns="http://www.w3.org/2000/svg"
   xmlns:svg="http://www.w3.org/2000/svg"><sodipodi:namedview
     id="namedview1"
     pagecolor="#ffffff"
     bordercolor="#666666"
     borderopacity="1.0"
     inkscape:showpageshadow="2"
     inkscape:pageopacity="0.0"
     inkscape:pagecheckerboard="0"
     inkscape:deskcolor="#d1d1d1"
     inkscape:document-units="mm"
     inkscape:zoom="1.0343421"
     inkscape:cx="266.35289"
     inkscape:cy="205.44461"
     inkscape:window-width="1920"
     inkscape:window-height="1015"
     inkscape:window-x="1920"
     inkscape:window-y="360"
     inkscape:window-maximized="1"
     inkscape:current-layer="layer1" /><defs
     id="defs1" /><g
     inkscape:label="Layer 1"
     inkscape:groupmode="layer"
     id="layer1"
     transform="translate(-20.202594,-143.30061)"><g
       id="g51"
       transform="translate(-9.4313117,70.006264)"><path
         style="fill:#fba32b"
         d="m 54.534391,136.2819 -0.319457,-0.35299 -0.303874,-1.55047 -0.303874,-1.55048 -1.70844,-0.67385 -1.708441,-0.67386 -1.373136,1.20235 -1.373137,1.20235 h -0.425063 -0.425064 l -1.106353,-0.87082 c -0.608495,-0.47895 -1.402746,-1.1012 -1.765002,-1.38279 l -0.658649,-0.51197 v -0.34365 c 0,-0.34704 0.362165,-1.27352 1.072708,-2.74417 l 0.387598,-0.80224 -0.959315,-1.27113 -0.959316,-1.27114 -1.191644,0.11248 c -0.655405,0.0619 -1.452034,0.15915 -1.770288,0.21621 l -0.578642,0.10374 -0.361169,-0.36117 -0.361169,-0.36117 -0.585499,-1.75746 -0.585499,-1.75746 0.05867,-0.511 0.05867,-0.511 1.512472,-0.89263 1.512473,-0.89263 v -2.07303 -2.07303 l -1.014327,-0.58034 c -0.557879,-0.31918 -1.259116,-0.78631 -1.558305,-1.03806 l -0.543978,-0.45773 0.0034,-0.30453 c 0.0019,-0.16749 0.324258,-1.17077 0.716437,-2.2295 l 0.713052,-1.92496 0.429375,-0.31469 0.429375,-0.31468 1.741635,0.34491 1.741634,0.34491 0.937576,-1.03705 0.937575,-1.03706 -0.460458,-1.19313 c -0.253252,-0.65622 -0.547243,-1.50029 -0.653313,-1.87571 l -0.192855,-0.68259 0.405704,-0.43185 c 0.563278,-0.59958 3.407756,-2.511236 3.736635,-2.511236 h 0.26974 l 1.481527,1.376366 1.481527,1.37637 0.519756,-0.19896 c 0.285866,-0.10942 0.92461,-0.30313 1.419433,-0.43045 l 0.899677,-0.2315 0.41149,-1.71438 0.41149,-1.714383 0.32801,-0.239846 0.32801,-0.239847 h 2.081588 2.081588 l 0.449992,0.449992 0.449992,0.449992 v 0.26084 c 0,0.143462 0.12922,0.833042 0.287155,1.532402 l 0.287155,1.27156 1.635918,0.50996 1.635918,0.50996 1.449565,-1.20904 1.449566,-1.209046 0.523123,0.01263 0.523124,0.01263 1.558305,1.145566 1.558305,1.14557 0.05478,0.5477 0.05478,0.5477 -0.634458,1.50436 -0.634458,1.50436 0.579675,0.69474 c 0.318822,0.38212 0.70596,0.88551 0.860307,1.11865 l 0.280631,0.42389 1.975842,-0.32424 1.975842,-0.32425 0.253392,0.25777 0.253393,0.25777 0.725773,2.04148 0.725773,2.04149 -0.212517,0.42627 -0.212518,0.42626 -1.40656,0.83219 -1.40656,0.83219 -0.05826,2.07832 -0.05826,2.07833 1.511996,0.9128 1.511995,0.91281 0.109325,0.43558 0.109326,0.43559 -0.383844,1.01904 c -0.211114,0.56047 -0.554894,1.47311 -0.763956,2.0281 l -0.380112,1.00906 -0.331366,0.17734 -0.331366,0.17734 -1.809309,-0.35002 -1.809309,-0.35002 -0.274995,0.39854 c -0.151247,0.2192 -0.607397,0.80904 -1.013667,1.31077 l -0.738672,0.91222 0.721182,1.7717 0.721182,1.7717 -0.107692,0.28064 -0.107692,0.28064 -1.821407,1.30041 -1.821406,1.30041 h -0.320749 -0.32075 l -1.428662,-1.28792 -1.428662,-1.28792 -1.229904,0.46294 c -0.676448,0.25461 -1.377688,0.46293 -1.558313,0.46293 h -0.328409 l -0.388504,1.68736 -0.388503,1.68735 -0.29799,0.32928 -0.297989,0.32927 h -2.234797 -2.234797 z m 5.573602,-7.53628 1.930562,-1.10607 1.327664,-1.09699 1.327665,-1.09698 1.021844,-1.23438 1.021845,-1.23438 0.811854,-1.64997 0.811854,-1.64997 0.276074,-1.09267 0.276074,-1.09266 v -3.91218 -3.91219 l -0.271332,-0.52469 c -0.149233,-0.28859 -0.484239,-0.69218 -0.74446,-0.89686 l -0.473127,-0.37217 -1.043008,-0.20839 c -1.785776,-0.3568 -3.518345,-0.91192 -6.052484,-1.93926 l -2.442857,-0.99033 h -0.546633 -0.546633 l -1.59376,0.66629 c -2.087964,0.8729 -5.378548,1.98706 -6.6453,2.25003 l -1.007631,0.20919 -0.560022,0.34057 -0.560022,0.34057 -0.325678,0.68631 -0.325678,0.68632 0.08311,4.05607 0.08311,4.05608 0.415613,1.28331 c 1.36508,4.21503 4.107009,7.22083 8.898703,9.75508 l 1.46664,0.77569 0.727723,0.005 0.727723,0.005 z m -4.205862,-1.39179 c -0.652584,-0.3632 -1.683815,-0.99477 -2.291625,-1.40347 l -1.10511,-0.74311 -1.238226,-1.26776 -1.238226,-1.26775 -0.727284,-1.2242 c -0.400006,-0.67331 -0.906288,-1.7184 -1.12507,-2.32242 l -0.397787,-1.09821 -0.08661,-3.80455 -0.08661,-3.80456 0.282693,-0.43144 0.282693,-0.43144 1.081634,-0.2128 c 1.533105,-0.30162 3.683664,-1.02287 5.854965,-1.96363 l 1.868845,-0.80971 0.42278,0.004 c 0.232528,0.002 0.794022,0.17393 1.247764,0.38159 1.681716,0.76967 4.542927,1.77078 6.23322,2.18095 l 1.741634,0.42262 0.234256,0.21285 0.234256,0.21285 0.01513,3.56329 0.01513,3.5633 -0.231809,0.91665 c -0.331116,1.30934 -0.948001,2.64976 -1.790277,3.89007 l -0.730673,1.07596 -1.550407,1.45858 -1.550406,1.45858 -1.709239,1.05414 -1.709238,1.05415 -0.37994,-0.002 -0.37994,-0.002 z m 0.774112,-5.66814 c 0.142582,-0.0547 1.770429,-1.66962 3.617437,-3.58867 l 3.358197,-3.4892 -0.01651,-0.58065 -0.01651,-0.58066 -0.397969,-0.32225 -0.397969,-0.32226 H 62.30634 61.789761 l -2.792525,2.84038 -2.792525,2.84037 -1.361385,-1.4654 -1.361385,-1.4654 H 52.91382 52.345697 l -0.424308,0.39862 -0.424308,0.39862 v 0.51541 0.51542 l 1.856646,1.97341 c 2.437321,2.59061 2.512232,2.6432 3.322516,2.33226 z m 18.882898,-16.53595 -1.145812,-0.0651 V 91.973415 78.862223 l -0.38633,-0.898047 -0.386329,-0.898047 -0.640635,-0.488636 -0.640636,-0.488637 -0.835472,-0.25144 -0.835472,-0.25144 H 56.051194 c -8.050495,0 -14.637262,0.03076 -14.637262,0.06836 0,0.0376 0.163816,0.438696 0.364037,0.891327 l 0.364037,0.822967 0.0079,11.673442 0.0079,11.673448 -0.784462,0.59721 c -0.431454,0.32847 -0.891199,0.66257 -1.021656,0.74244 l -0.237193,0.14522 -0.266964,-0.22156 -0.266964,-0.22156 V 92.888212 84.019155 H 34.9281 30.275633 l -0.222653,-0.268281 -0.222654,-0.268281 -0.09821,-1.432862 -0.09821,-1.432863 0.202526,-1.504888 0.202527,-1.504889 0.444253,-0.876691 0.444252,-0.87669 0.940955,-0.880154 0.940955,-0.880153 0.86481,-0.399526 0.864809,-0.399526 H 53.330317 72.12164 l 1.030316,0.483105 1.030317,0.483105 0.722671,0.652889 0.722671,0.65289 0.476931,0.880635 0.476932,0.880636 0.199203,1.087817 0.199204,1.087818 v 12.891094 12.89109 l -0.137498,-0.0353 c -0.07562,-0.0194 -0.653113,-0.0646 -1.28331,-0.10041 z m -35.982536,-25.026307 -0.004,-1.329142 -0.336546,-0.740905 -0.336546,-0.740904 -0.584413,-0.491751 -0.584414,-0.491752 -0.764194,-0.205776 -0.764194,-0.205776 -0.593078,0.09624 c -0.326194,0.05293 -0.890695,0.237472 -1.254449,0.410084 l -0.661369,0.313841 -0.422659,0.570023 c -0.232462,0.313512 -0.51655,0.850454 -0.631306,1.193202 l -0.208649,0.62318 v 1.164288 1.164287 h 3.574935 3.574935 z m 6.326128,12.801109 -0.455542,-0.455541 v -0.453352 -0.453352 l 0.483049,-0.379966 0.483048,-0.379966 h 7.958464 7.958464 l 0.449992,0.449991 0.449992,0.449992 v 0.354683 0.354683 l -0.350343,0.432803 -0.350342,0.432802 -8.08562,0.05138 -8.085621,0.05138 z m 0.02751,-7.085393 -0.483049,-0.379966 v -0.424709 -0.424709 l 0.350462,-0.432802 0.350463,-0.432803 h 11.180079 11.18008 l 0.385907,0.349242 0.385907,0.349241 v 0.50827 0.50827 l -0.483048,0.379966 -0.483049,0.379966 H 57.36364 46.413288 Z"
         id="path57"
         sodipodi:nodetypes="ccccccccccsscssccccscccccccccccssccscccccccsscsscccsscccccccccsscccccccccccccsscccccccccccccccccsscccccsscccccccccccssccccccccccccccccccccsscsscccsscccccccsscccccscccsscccccssccsscccccssccccccccsscccccccccccccccccssccccccccccssscccsscccccccccccccccccccccccccccccccsccccccccccsscsscccccccccccccccccccccccccccccccccccccccc" /><path
         style="fill:#6e91ac"
         d="m 54.534391,136.2819 -0.319457,-0.35299 -0.303874,-1.55047 -0.303874,-1.55048 -1.70844,-0.67385 -1.708441,-0.67386 -1.373136,1.20235 -1.373137,1.20235 h -0.425063 -0.425064 l -1.106353,-0.87082 c -0.608495,-0.47895 -1.402746,-1.1012 -1.765002,-1.38279 l -0.658649,-0.51197 v -0.34365 c 0,-0.34704 0.362165,-1.27352 1.072708,-2.74417 l 0.387598,-0.80224 -0.959315,-1.27113 -0.959316,-1.27114 -1.191644,0.11248 c -0.655405,0.0619 -1.452034,0.15915 -1.770288,0.21621 l -0.578642,0.10374 -0.361169,-0.36117 -0.361169,-0.36117 -0.585499,-1.75746 -0.585499,-1.75746 0.05867,-0.511 0.05867,-0.511 1.512472,-0.89263 1.512473,-0.89263 v -2.07303 -2.07303 l -1.014327,-0.58034 c -0.557879,-0.31918 -1.259116,-0.78631 -1.558305,-1.03806 l -0.543978,-0.45773 0.0034,-0.30453 c 0.0019,-0.16749 0.324258,-1.17077 0.716437,-2.2295 l 0.713052,-1.92496 0.429375,-0.31469 0.429375,-0.31468 1.741635,0.34491 1.741634,0.34491 0.937576,-1.03705 0.937575,-1.03706 -0.460458,-1.19313 c -0.253252,-0.65622 -0.547243,-1.50029 -0.653313,-1.87571 l -0.192855,-0.68259 0.405704,-0.43185 c 0.563278,-0.59958 3.407756,-2.511236 3.736635,-2.511236 h 0.26974 l 1.481527,1.376366 1.481527,1.37637 0.519756,-0.19896 c 0.285866,-0.10942 0.92461,-0.30313 1.419433,-0.43045 l 0.899677,-0.2315 0.41149,-1.71438 0.41149,-1.714383 0.32801,-0.239846 0.32801,-0.239847 h 2.081588 2.081588 l 0.449992,0.449992 0.449992,0.449992 v 0.26084 c 0,0.143462 0.12922,0.833042 0.287155,1.532402 l 0.287155,1.27156 1.635918,0.50996 1.635918,0.50996 1.449565,-1.20904 1.449566,-1.209046 0.523123,0.01263 0.523124,0.01263 1.558305,1.145566 1.558305,1.14557 0.05478,0.5477 0.05478,0.5477 -0.634458,1.50436 -0.634458,1.50436 0.579675,0.69474 c 0.318822,0.38212 0.70596,0.88551 0.860307,1.11865 l 0.280631,0.42389 1.975842,-0.32424 1.975842,-0.32425 0.253392,0.25777 0.253393,0.25777 0.725773,2.04148 0.725773,2.04149 -0.212517,0.42627 -0.212518,0.42626 -1.40656,0.83219 -1.40656,0.83219 -0.05826,2.07832 -0.05826,2.07833 1.511996,0.9128 1.511995,0.91281 0.109325,0.43558 0.109326,0.43559 -0.383844,1.01904 c -0.211114,0.56047 -0.554894,1.47311 -0.763956,2.0281 l -0.380112,1.00906 -0.331366,0.17734 -0.331366,0.17734 -1.809309,-0.35002 -1.809309,-0.35002 -0.274995,0.39854 c -0.151247,0.2192 -0.607397,0.80904 -1.013667,1.31077 l -0.738672,0.91222 0.721182,1.7717 0.721182,1.7717 -0.107692,0.28064 -0.107692,0.28064 -1.821407,1.30041 -1.821406,1.30041 h -0.320749 -0.32075 l -1.428662,-1.28792 -1.428662,-1.28792 -1.229904,0.46294 c -0.676448,0.25461 -1.377688,0.46293 -1.558313,0.46293 h -0.328409 l -0.388504,1.68736 -0.388503,1.68735 -0.29799,0.32928 -0.297989,0.32927 h -2.234797 -2.234797 z m 5.573602,-7.53628 1.930562,-1.10607 1.327664,-1.09699 1.327665,-1.09698 1.021844,-1.23438 1.021845,-1.23438 0.811854,-1.64997 0.811854,-1.64997 0.276074,-1.09267 0.276074,-1.09266 v -3.91218 -3.91219 l -0.271332,-0.52469 c -0.149233,-0.28859 -0.484239,-0.69218 -0.74446,-0.89686 l -0.473127,-0.37217 -1.043008,-0.20839 c -1.785776,-0.3568 -3.518345,-0.91192 -6.052484,-1.93926 l -2.442857,-0.99033 h -0.546633 -0.546633 l -1.59376,0.66629 c -2.087964,0.8729 -5.378548,1.98706 -6.6453,2.25003 l -1.007631,0.20919 -0.560022,0.34057 -0.560022,0.34057 -0.325678,0.68631 -0.325678,0.68632 0.08311,4.05607 0.08311,4.05608 0.415613,1.28331 c 1.36508,4.21503 4.107009,7.22083 8.898703,9.75508 l 1.46664,0.77569 0.727723,0.005 0.727723,0.005 z m -4.213902,-1.42222 c -0.653805,-0.38225 -1.688628,-1.03464 -2.299608,-1.44975 l -1.110873,-0.75475 -1.376578,-1.46331 -1.376578,-1.46331 -0.669786,-1.2746 -0.669786,-1.27461 -0.280201,-1.07576 -0.2802,-1.07576 v -3.8006 -3.80059 l 0.190633,-0.11782 c 0.104848,-0.0648 0.82671,-0.26974 1.604138,-0.45543 1.533215,-0.3662 4.070607,-1.25507 6.311695,-2.21104 l 1.414921,-0.60355 2.343343,0.93413 c 2.653502,1.05776 5.012347,1.82355 6.152718,1.99745 0.425631,0.0649 0.876999,0.19936 1.003038,0.29877 l 0.229162,0.18075 -0.0022,3.59832 -0.0022,3.59832 -0.251937,0.94622 c -0.995399,3.73852 -4.255844,7.41315 -8.490415,9.56896 -1.010762,0.51458 -1.051104,0.50959 -2.439335,-0.30204 z m 2.738036,-0.0643 c 0.562726,-0.31677 1.502937,-0.90102 2.089358,-1.29834 l 1.066219,-0.72241 1.347061,-1.34706 1.347061,-1.34706 0.767,-1.29105 0.767,-1.29105 0.440487,-1.3871 0.440486,-1.38711 v -3.5455 -3.5455 l -0.229162,-0.18505 c -0.126039,-0.10178 -0.600406,-0.2459 -1.054148,-0.32027 -1.122581,-0.184 -4.74944,-1.39527 -6.555586,-2.18938 -1.817184,-0.79897 -1.527307,-0.81153 -3.767012,0.16316 -2.176566,0.9472 -5.018047,1.90184 -6.129274,2.05921 l -0.777159,0.11006 -0.200673,0.2418 -0.200672,0.2418 0.06431,4.08764 0.06431,4.08765 0.593506,1.37497 0.593505,1.37498 0.921588,1.22565 c 1.479375,1.96748 3.439317,3.55963 6.133537,4.98255 1.132913,0.59833 1.044463,0.60192 2.27826,-0.0926 z m -5.184783,-7.48779 -2.133593,-2.19717 v -0.63422 -0.63423 l 0.412492,-0.46875 0.412493,-0.46874 0.618403,-0.1189 0.618404,-0.1189 1.403566,1.49102 1.403565,1.49102 2.744459,-2.74904 c 1.509453,-1.51198 2.882844,-2.79297 3.051981,-2.84665 l 0.307521,-0.0976 0.62353,0.26052 0.62353,0.26053 0.24914,0.60148 0.24914,0.60148 -0.355055,0.60866 -0.355055,0.60866 -3.289033,3.30399 -3.289033,3.304 h -0.581431 -0.581431 z m 5.483644,-0.23196 c 1.211925,-1.23519 2.798783,-2.87636 3.526351,-3.64706 l 1.322851,-1.40127 v -0.37597 -0.37598 l -0.412493,-0.46165 -0.412492,-0.46164 -0.536232,-0.12649 -0.536231,-0.1265 -2.810199,2.91538 -2.810199,2.91537 -1.479453,-1.51248 -1.479453,-1.51247 H 53.03281 c -0.148845,0 -0.504029,0.1207 -0.789297,0.26822 l -0.51867,0.26821 -0.113881,0.29677 c -0.06264,0.16322 -0.113881,0.50461 -0.113881,0.75864 v 0.46187 l 2.04153,2.18142 2.04153,2.18142 h 0.573673 0.573673 z m 16.628153,-14.38964 -1.145812,-0.0651 V 91.973415 78.862223 l -0.38633,-0.898047 -0.386329,-0.898047 -0.640635,-0.488636 -0.640636,-0.488637 -0.835472,-0.25144 -0.835472,-0.25144 H 56.051194 c -8.050495,0 -14.637262,0.03076 -14.637262,0.06836 0,0.0376 0.163816,0.438696 0.364037,0.891327 l 0.364037,0.822967 0.0079,11.673442 0.0079,11.673448 -0.784462,0.59721 c -0.431454,0.32847 -0.891199,0.66257 -1.021656,0.74244 l -0.237193,0.14522 -0.266964,-0.22156 -0.266964,-0.22156 V 92.888212 84.019155 H 34.9281 30.275633 l -0.222653,-0.268281 -0.222654,-0.268281 -0.09821,-1.432862 -0.09821,-1.432863 0.202526,-1.504888 0.202527,-1.504889 0.444253,-0.876691 0.444252,-0.87669 0.940955,-0.880154 0.940955,-0.880153 0.86481,-0.399526 0.864809,-0.399526 H 53.330317 72.12164 l 1.030316,0.483105 1.030317,0.483105 0.722671,0.652889 0.722671,0.65289 0.476931,0.880635 0.476932,0.880636 0.199203,1.087817 0.199204,1.087818 v 12.891094 12.89109 l -0.137498,-0.0353 c -0.07562,-0.0194 -0.653113,-0.0646 -1.28331,-0.10041 z m -35.982536,-25.026307 -0.004,-1.329142 -0.336546,-0.740905 -0.336546,-0.740904 -0.584413,-0.491751 -0.584414,-0.491752 -0.764194,-0.205776 -0.764194,-0.205776 -0.593078,0.09624 c -0.326194,0.05293 -0.890695,0.237472 -1.254449,0.410084 l -0.661369,0.313841 -0.422659,0.570023 c -0.232462,0.313512 -0.51655,0.850454 -0.631306,1.193202 l -0.208649,0.62318 v 1.164288 1.164287 h 3.574935 3.574935 z m 6.326128,12.801139 -0.455542,-0.455541 v -0.453352 -0.453352 l 0.483049,-0.379966 0.483048,-0.379966 h 7.958464 7.958464 l 0.449992,0.449991 0.449992,0.449992 v 0.354683 0.354683 l -0.350343,0.432803 -0.350342,0.432802 -8.08562,0.05138 -8.085621,0.05138 z m 0.02751,-7.085393 -0.483049,-0.379966 v -0.424709 -0.424709 l 0.350462,-0.432802 0.350463,-0.432803 h 11.180079 11.18008 l 0.385907,0.349242 0.385907,0.349241 v 0.50827 0.50827 l -0.483048,0.379966 -0.483049,0.379966 H 57.36364 46.413288 Z"
         id="path56"
         sodipodi:nodetypes="ccccccccccsscssccccscccccccccccssccscccccccsscsscccsscccccccccsscccccccccccccsscccccccccccccccccsscccccsscccccccccccssccccccccccccccccccccsscsscccsscccccccsscccccscccccccccssscssscccssccsscccccccccssssscccccccssssccccccccccssccccccccccccsscccccccccccsscsscccccsccccccccccssscccsscccccccccccccccccccccccccccccccsccccccccccsscsscccccccccccccccccccccccccccccccccccccccc" /><path
         style="fill:#f87400"
         d="m 54.519829,136.26581 -0.284665,-0.31455 -0.309283,-1.60433 -0.309283,-1.60433 -0.280606,-0.0953 c -0.154334,-0.0524 -0.884954,-0.3316 -1.623601,-0.62047 -1.684638,-0.6588 -1.392648,-0.72505 -2.937626,0.66645 l -1.323086,1.19164 h -0.382627 -0.382626 l -1.714306,-1.30556 -1.714305,-1.30556 -0.109427,-0.34478 -0.109428,-0.34477 0.665808,-1.51211 c 0.366195,-0.83166 0.704004,-1.59797 0.750688,-1.70291 l 0.08488,-0.19082 -0.841463,-1.08363 c -0.462805,-0.59601 -0.898126,-1.18232 -0.96738,-1.30293 l -0.125917,-0.21928 -1.008314,0.16183 c -0.554574,0.089 -1.402096,0.17622 -1.883383,0.19382 l -0.875068,0.032 -0.226994,-0.31044 c -0.124847,-0.17074 -0.50632,-1.11987 -0.847719,-2.10919 l -0.620725,-1.79876 0.118024,-0.47025 0.118025,-0.47025 1.455797,-0.8397 1.455797,-0.8397 0.0573,-2.04732 0.0573,-2.04732 -1.495294,-0.96411 -1.495293,-0.96411 -0.107628,-0.33911 -0.107628,-0.3391 0.652047,-1.83023 c 0.358626,-1.00662 0.772473,-2.01584 0.91966,-2.24271 l 0.267613,-0.4125 0.591596,2.2e-4 c 0.325378,1.2e-4 1.210335,0.12113 1.966572,0.26892 l 1.374974,0.26871 0.938025,-1.04296 0.938025,-1.04296 -0.641284,-1.788 -0.641284,-1.788 0.280449,-0.42802 0.280448,-0.42802 1.679602,-1.134868 c 2.051775,-1.386338 1.723443,-1.408718 3.581168,0.244108 l 1.549925,1.37898 1.242368,-0.38531 c 0.683302,-0.21193 1.330051,-0.41146 1.43722,-0.44341 l 0.194853,-0.0581 0.343606,-1.50444 0.343606,-1.504443 0.357562,-0.454566 0.357562,-0.454566 2.199579,0.09233 2.19958,0.09233 0.249406,0.249406 0.249406,0.249406 0.358663,1.641267 0.358663,1.641276 0.14626,0.0529 c 0.08044,0.0291 0.824124,0.28217 1.652624,0.56242 l 1.506364,0.50955 1.457178,-1.24699 1.457178,-1.246991 h 0.428805 0.428805 l 1.69506,1.198881 1.695061,1.19888 v 0.45374 0.45375 l -0.632745,1.56918 -0.632745,1.56918 0.8431,1.04062 c 1.044493,1.28919 0.848677,1.23086 2.895081,0.8624 l 1.714552,-0.30871 0.365502,0.19561 0.365502,0.19561 0.670916,2.01347 0.670917,2.01346 -0.05926,0.41768 -0.05926,0.41768 -1.512472,0.90156 -1.512472,0.90156 v 1.78756 c 0,0.98316 -0.04631,1.90825 -0.102919,2.05577 l -0.102919,0.2682 1.570905,0.98427 1.570905,0.98427 0.103461,0.32331 0.103461,0.32331 -0.656465,1.84598 c -0.361056,1.0153 -0.741116,2.00416 -0.844578,2.19748 l -0.188112,0.35149 -0.681037,-2.1e-4 c -0.374571,-1.2e-4 -1.299776,-0.12008 -2.056012,-0.26657 l -1.374975,-0.26635 -0.36666,0.49187 c -0.201663,0.27054 -0.659968,0.86219 -1.018456,1.31479 l -0.651795,0.82291 0.697873,1.77775 0.697874,1.77776 -0.109791,0.28611 -0.109791,0.28612 -1.803785,1.28783 -1.803785,1.28783 H 66.99225 66.697766 l -0.954628,-0.8641 c -0.525046,-0.47525 -1.167806,-1.05506 -1.428357,-1.28846 l -0.473728,-0.42435 -1.575187,0.5093 -1.575186,0.50931 -0.407457,1.63138 -0.407457,1.63139 -0.326176,0.32618 -0.326175,0.32617 -2.209458,-0.014 -2.209458,-0.014 z m 5.499704,-7.4442 c 4.563862,-2.57111 7.508919,-6.00852 8.620259,-10.06138 l 0.301627,-1.09998 0.10252,-3.36509 0.10252,-3.36509 -0.219764,-0.98201 -0.219764,-0.98201 -0.500875,-0.53619 -0.500874,-0.53619 -1.091679,-0.21081 c -1.652501,-0.31911 -4.429855,-1.21251 -6.613709,-2.12747 l -1.956996,-0.81991 h -0.707921 -0.707922 l -1.957382,0.83605 -1.957383,0.83605 -2.211692,0.64171 c -1.216431,0.35294 -2.580961,0.78303 -3.032291,0.95575 l -0.820598,0.31403 -0.416879,0.61861 -0.416879,0.61861 0.0032,3.77698 0.0032,3.77699 0.267175,1.28331 0.267175,1.28331 0.923791,1.86959 0.923791,1.8696 1.459166,1.54151 1.459166,1.54151 1.334112,0.917 c 0.733761,0.50436 1.994099,1.25784 2.800751,1.67441 l 1.46664,0.75741 0.734549,0.002 0.734548,0.002 z m -4.125442,-1.49821 c -0.653805,-0.38225 -1.688628,-1.03464 -2.299608,-1.44975 l -1.110873,-0.75475 -1.376578,-1.46331 -1.376578,-1.46331 -0.669786,-1.2746 -0.669786,-1.27461 -0.280201,-1.07576 -0.2802,-1.07576 v -3.8006 -3.80059 l 0.190633,-0.11782 c 0.104848,-0.0648 0.82671,-0.26974 1.604138,-0.45543 1.533215,-0.3662 4.070607,-1.25507 6.311695,-2.21104 l 1.414921,-0.60355 2.343343,0.93413 c 2.653502,1.05776 5.012347,1.82355 6.152718,1.99745 0.425631,0.0649 0.876999,0.19936 1.003038,0.29877 l 0.229162,0.18075 -0.0022,3.59832 -0.0022,3.59832 -0.251937,0.94622 c -0.995399,3.73852 -4.255844,7.41315 -8.490415,9.56896 -1.010762,0.51458 -1.051104,0.50959 -2.439335,-0.30204 z m 2.738036,-0.0643 c 0.562726,-0.31677 1.502937,-0.90102 2.089358,-1.29834 l 1.066219,-0.72241 1.347061,-1.34706 1.347061,-1.34706 0.767,-1.29105 0.767,-1.29105 0.440487,-1.3871 0.440486,-1.38711 v -3.5455 -3.5455 l -0.229162,-0.18505 c -0.126039,-0.10178 -0.600406,-0.2459 -1.054148,-0.32027 -1.122581,-0.184 -4.74944,-1.39527 -6.555586,-2.18938 -1.817184,-0.79897 -1.527307,-0.81153 -3.767012,0.16316 -2.176566,0.9472 -5.018047,1.90184 -6.129274,2.05921 l -0.777159,0.11006 -0.200673,0.2418 -0.200672,0.2418 0.06431,4.08764 0.06431,4.08765 0.593506,1.37497 0.593505,1.37498 0.921588,1.22565 c 1.479375,1.96748 3.439317,3.55963 6.133537,4.98255 1.132913,0.59833 1.044463,0.60192 2.27826,-0.0926 z m -5.184783,-7.48779 -2.133593,-2.19717 v -0.63422 -0.63423 l 0.412492,-0.46875 0.412493,-0.46874 0.618403,-0.1189 0.618404,-0.1189 1.403566,1.49102 1.403565,1.49102 2.744459,-2.74904 c 1.509453,-1.51198 2.882844,-2.79297 3.051981,-2.84665 l 0.307521,-0.0976 0.62353,0.26052 0.62353,0.26053 0.24914,0.60148 0.24914,0.60148 -0.355055,0.60866 -0.355055,0.60866 -3.289033,3.30399 -3.289033,3.304 h -0.581431 -0.581431 z m 5.483644,-0.23196 c 1.211925,-1.23519 2.798783,-2.87636 3.526351,-3.64706 l 1.322851,-1.40127 v -0.37597 -0.37598 l -0.412493,-0.46165 -0.412492,-0.46164 -0.536232,-0.12649 -0.536231,-0.1265 -2.810199,2.91538 -2.810199,2.91537 -1.479453,-1.51248 -1.479453,-1.51247 H 53.03281 c -0.148845,0 -0.504029,0.1207 -0.789297,0.26822 l -0.51867,0.26821 -0.113881,0.29677 c -0.06264,0.16322 -0.113881,0.50461 -0.113881,0.75864 v 0.46187 l 2.04153,2.18142 2.04153,2.18142 h 0.573673 0.573673 z m 16.673986,-14.43724 -1.09998,-0.0917 -0.0065,-13.108095 -0.0065,-13.108094 -0.384166,-0.844871 -0.384166,-0.84487 -0.663069,-0.505747 c -0.364688,-0.278161 -0.972606,-0.61621 -1.350929,-0.75122 l -0.68786,-0.245473 -14.803896,-0.008 c -8.142143,-0.0044 -14.803855,0.01258 -14.803804,0.03778 5.1e-5,0.02521 0.165048,0.479835 0.36666,1.010282 l 0.366567,0.964449 v 11.639487 11.639482 h -0.156966 c -0.08633,0 -0.544041,0.29556 -1.017132,0.65679 l -0.860166,0.65678 -0.266178,-0.2209 -0.266177,-0.22091 v -8.869056 -8.869057 h -4.652467 -4.652467 l -0.222365,-0.267933 -0.222365,-0.267934 0.06507,-2.802844 0.06507,-2.802843 0.396877,-0.86481 0.396877,-0.864809 0.840827,-0.898912 0.840827,-0.898913 1.142937,-0.527903 1.142936,-0.527903 h 18.699659 18.699658 l 0.885392,0.408631 c 0.486966,0.224747 1.200386,0.65811 1.585377,0.963029 l 0.699984,0.554397 0.552361,0.870272 c 0.303799,0.478649 0.645809,1.200265 0.760023,1.603591 l 0.207662,0.73332 -0.05378,13.383089 -0.05377,13.383088 z M 39.580632,80.071672 v -1.380863 l -0.247687,-0.592798 -0.247687,-0.592799 -0.665924,-0.584688 -0.665923,-0.584688 -0.718113,-0.215152 -0.718114,-0.215152 -0.828099,0.124181 -0.828099,0.124181 -0.762479,0.552337 -0.76248,0.552338 -0.348606,0.767841 -0.348606,0.767841 -0.004,1.329142 -0.004,1.329142 h 3.574935 3.574935 z m 6.316551,12.847321 -0.449992,-0.449992 v -0.383326 -0.383327 l 0.449992,-0.449992 0.449992,-0.449991 h 7.787923 7.787922 l 0.459113,0.174554 0.459113,0.174554 0.198914,0.371674 0.198914,0.371674 -0.117583,0.468487 -0.117583,0.468487 -0.519405,0.268595 -0.519405,0.268594 h -7.808962 -7.808961 z m 0,-7.14987 -0.449992,-0.449992 v -0.339953 c 0,-0.186974 0.105332,-0.484003 0.234072,-0.660065 l 0.234071,-0.320112 0.728411,-0.168879 0.728411,-0.168879 10.19329,-0.0044 10.193289,-0.0044 0.581217,0.202614 0.581217,0.202613 0.17946,0.335324 c 0.0987,0.184428 0.17946,0.499757 0.17946,0.700731 v 0.365406 l -0.483048,0.379966 -0.483049,0.379966 H 57.330583 46.347175 Z"
         id="path55"
         sodipodi:nodetypes="ccccssscccccccsscsscsscsscccccccccccsscsscccccccsscsscccccccccccsscccccccccccsscccccccccsscccccsscsscsscccccccccsscccccccccccscccccccsscccccsscccccccccccsscccccscccccccccssscssscccssccsscccccccccssssscccccccssssccccccccccssccccccccccccsscccccccccccsscsscccccsccccccsscssscccsscccccccccccccccccccsscssccccccccccccccccccccccccccccccccccccccccccccsscccccccsscccccc" /><path
         style="fill:#3c688c"
         d="m 54.519829,136.26581 -0.284665,-0.31455 -0.309283,-1.60433 -0.309283,-1.60433 -0.280606,-0.0953 c -0.154334,-0.0524 -0.884954,-0.3316 -1.623601,-0.62047 -1.684638,-0.6588 -1.392648,-0.72505 -2.937626,0.66645 l -1.323086,1.19164 h -0.382627 -0.382626 l -1.714306,-1.30556 -1.714305,-1.30556 -0.109427,-0.34478 -0.109428,-0.34477 0.665808,-1.51211 c 0.366195,-0.83166 0.704004,-1.59797 0.750688,-1.70291 l 0.08488,-0.19082 -0.841463,-1.08363 c -0.462805,-0.59601 -0.898126,-1.18232 -0.96738,-1.30293 l -0.125917,-0.21928 -1.008314,0.16183 c -0.554574,0.089 -1.402096,0.17622 -1.883383,0.19382 l -0.875068,0.032 -0.226994,-0.31044 c -0.124847,-0.17074 -0.50632,-1.11987 -0.847719,-2.10919 l -0.620725,-1.79876 0.118024,-0.47025 0.118025,-0.47025 1.455797,-0.8397 1.455797,-0.8397 0.0573,-2.04732 0.0573,-2.04732 -1.495294,-0.96411 -1.495293,-0.96411 -0.107628,-0.33911 -0.107628,-0.3391 0.652047,-1.83023 c 0.358626,-1.00662 0.772473,-2.01584 0.91966,-2.24271 l 0.267613,-0.4125 0.591596,2.2e-4 c 0.325378,1.2e-4 1.210335,0.12113 1.966572,0.26892 l 1.374974,0.26871 0.938025,-1.04296 0.938025,-1.04296 -0.641284,-1.788 -0.641284,-1.788 0.280449,-0.42802 0.280448,-0.42802 1.679602,-1.134868 c 2.051775,-1.386338 1.723443,-1.408718 3.581168,0.244108 l 1.549925,1.37898 1.242368,-0.38531 c 0.683302,-0.21193 1.330051,-0.41146 1.43722,-0.44341 l 0.194853,-0.0581 0.343606,-1.50444 0.343606,-1.504443 0.357562,-0.454566 0.357562,-0.454566 2.199579,0.09233 2.19958,0.09233 0.249406,0.249406 0.249406,0.249406 0.358663,1.641267 0.358663,1.641276 0.14626,0.0529 c 0.08044,0.0291 0.824124,0.28217 1.652624,0.56242 l 1.506364,0.50955 1.457178,-1.24699 1.457178,-1.246991 h 0.428805 0.428805 l 1.69506,1.198881 1.695061,1.19888 v 0.45374 0.45375 l -0.632745,1.56918 -0.632745,1.56918 0.8431,1.04062 c 1.044493,1.28919 0.848677,1.23086 2.895081,0.8624 l 1.714552,-0.30871 0.365502,0.19561 0.365502,0.19561 0.670916,2.01347 0.670917,2.01346 -0.05926,0.41768 -0.05926,0.41768 -1.512472,0.90156 -1.512472,0.90156 v 1.78756 c 0,0.98316 -0.04631,1.90825 -0.102919,2.05577 l -0.102919,0.2682 1.570905,0.98427 1.570905,0.98427 0.103461,0.32331 0.103461,0.32331 -0.656465,1.84598 c -0.361056,1.0153 -0.741116,2.00416 -0.844578,2.19748 l -0.188112,0.35149 -0.681037,-2.1e-4 c -0.374571,-1.2e-4 -1.299776,-0.12008 -2.056012,-0.26657 l -1.374975,-0.26635 -0.36666,0.49187 c -0.201663,0.27054 -0.659968,0.86219 -1.018456,1.31479 l -0.651795,0.82291 0.697873,1.77775 0.697874,1.77776 -0.109791,0.28611 -0.109791,0.28612 -1.803785,1.28783 -1.803785,1.28783 H 66.99225 66.697766 l -0.954628,-0.8641 c -0.525046,-0.47525 -1.167806,-1.05506 -1.428357,-1.28846 l -0.473728,-0.42435 -1.575187,0.5093 -1.575186,0.50931 -0.407457,1.63138 -0.407457,1.63139 -0.326176,0.32618 -0.326175,0.32617 -2.209458,-0.014 -2.209458,-0.014 z m 5.499704,-7.4442 c 4.563862,-2.57111 7.508919,-6.00852 8.620259,-10.06138 l 0.301627,-1.09998 0.10252,-3.36509 0.10252,-3.36509 -0.219764,-0.98201 -0.219764,-0.98201 -0.500875,-0.53619 -0.500874,-0.53619 -1.091679,-0.21081 c -1.652501,-0.31911 -4.429855,-1.21251 -6.613709,-2.12747 l -1.956996,-0.81991 h -0.707921 -0.707922 l -1.957382,0.83605 -1.957383,0.83605 -2.211692,0.64171 c -1.216431,0.35294 -2.580961,0.78303 -3.032291,0.95575 l -0.820598,0.31403 -0.416879,0.61861 -0.416879,0.61861 0.0032,3.77698 0.0032,3.77699 0.267175,1.28331 0.267175,1.28331 0.923791,1.86959 0.923791,1.8696 1.459166,1.54151 1.459166,1.54151 1.334112,0.917 c 0.733761,0.50436 1.994099,1.25784 2.800751,1.67441 l 1.46664,0.75741 0.734549,0.002 0.734548,0.002 z m 15.585441,-23.71947 -1.09998,-0.0917 -0.0065,-13.108095 -0.0065,-13.108094 -0.384166,-0.844871 -0.384166,-0.84487 -0.663069,-0.505747 c -0.364688,-0.278161 -0.972606,-0.61621 -1.350929,-0.75122 l -0.68786,-0.245473 -14.803896,-0.008 c -8.142143,-0.0044 -14.803855,0.01258 -14.803804,0.03778 5.1e-5,0.02521 0.165048,0.479835 0.36666,1.010282 l 0.366567,0.964449 v 11.639487 11.639482 h -0.156966 c -0.08633,0 -0.544041,0.29556 -1.017132,0.65679 l -0.860166,0.65678 -0.266178,-0.2209 -0.266177,-0.22091 v -8.869056 -8.869057 h -4.652467 -4.652467 l -0.222365,-0.267933 -0.222365,-0.267934 0.06507,-2.802844 0.06507,-2.802843 0.396877,-0.86481 0.396877,-0.864809 0.840827,-0.898912 0.840827,-0.898913 1.142937,-0.527903 1.142936,-0.527903 h 18.699659 18.699658 l 0.885392,0.408631 c 0.486966,0.224747 1.200386,0.65811 1.585377,0.963029 l 0.699984,0.554397 0.552361,0.870272 c 0.303799,0.478649 0.645809,1.200265 0.760023,1.603591 l 0.207662,0.73332 -0.05378,13.383089 -0.05377,13.383088 z M 39.580632,80.071672 v -1.380863 l -0.247687,-0.592798 -0.247687,-0.592799 -0.665924,-0.584688 -0.665923,-0.584688 -0.718113,-0.215152 -0.718114,-0.215152 -0.828099,0.124181 -0.828099,0.124181 -0.762479,0.552337 -0.76248,0.552338 -0.348606,0.767841 -0.348606,0.767841 -0.004,1.329142 -0.004,1.329142 h 3.574935 3.574935 z m 6.316551,12.847321 -0.449992,-0.449992 v -0.383326 -0.383327 l 0.449992,-0.449992 0.449992,-0.449991 h 7.787923 7.787922 l 0.459113,0.174554 0.459113,0.174554 0.198914,0.371674 0.198914,0.371674 -0.117583,0.468487 -0.117583,0.468487 -0.519405,0.268595 -0.519405,0.268594 h -7.808962 -7.808961 z m 0,-7.14987 -0.449992,-0.449992 v -0.339953 c 0,-0.186974 0.105332,-0.484003 0.234072,-0.660065 l 0.234071,-0.320112 0.728411,-0.168879 0.728411,-0.168879 10.19329,-0.0044 10.193289,-0.0044 0.581217,0.202614 0.581217,0.202613 0.17946,0.335324 c 0.0987,0.184428 0.17946,0.499757 0.17946,0.700731 v 0.365406 l -0.483048,0.379966 -0.483049,0.379966 H 57.330583 46.347175 Z"
         id="path54"
         sodipodi:nodetypes="ccccssscccccccsscsscsscsscccccccccccsscsscccccccsscsscccccccccccsscccccccccccsscccccccccsscccccsscsscsscccccccccsscccccccccccscccccccsscccccsscccccccccccssccccccccccsscssscccsscccccccccccccccccccsscssccccccccccccccccccccccccccccccccccccccccccccsscccccccsscccccc" /><path
         style="fill:#15456a"
         d="m 54.27064,135.67096 c -0.102972,-0.32692 -0.286318,-1.11728 -0.407435,-1.75634 l -0.220213,-1.16194 -0.293803,-0.10032 c -0.161592,-0.0552 -0.898151,-0.33667 -1.636798,-0.62554 -1.684638,-0.6588 -1.392648,-0.72505 -2.937626,0.66645 l -1.323086,1.19164 H 47.07611 46.700541 l -1.680822,-1.29624 -1.680823,-1.29624 -0.1567,-0.33398 -0.1567,-0.33398 0.766235,-1.74714 0.766236,-1.74714 -0.822345,-1.00961 c -0.45229,-0.55529 -0.891577,-1.12828 -0.976195,-1.2733 l -0.153851,-0.26367 -1.008314,0.14568 c -0.554574,0.0801 -1.432032,0.15171 -1.949909,0.15907 l -0.941593,0.0134 -0.273731,-0.59582 c -0.150552,-0.3277 -0.497957,-1.28015 -0.772012,-2.11655 l -0.498282,-1.52072 0.102009,-0.40644 0.102009,-0.40643 1.519932,-0.89701 1.519932,-0.897 v -2.04857 -2.04857 l -1.435068,-0.879 -1.435068,-0.879 -0.178089,-0.39086 -0.178088,-0.39086 0.788614,-2.08756 0.788613,-2.08755 0.312487,-0.19711 0.312487,-0.19711 1.864935,0.32172 c 1.025713,0.17695 1.877491,0.29804 1.89284,0.26908 0.01535,-0.029 0.41211,-0.51364 0.881692,-1.07707 l 0.853786,-1.02442 -0.656539,-1.7637 -0.656539,-1.7637 0.275474,-0.42043 0.275474,-0.42042 1.692514,-1.145545 c 2.063044,-1.396327 1.712355,-1.41973 3.576325,0.238665 l 1.555792,1.38421 1.420744,-0.44793 1.420743,-0.44794 0.399532,-1.589502 0.399532,-1.5895 0.329413,-0.363997 0.329412,-0.363997 2.209315,0.121842 2.209315,0.121842 0.219902,0.207896 0.219902,0.207895 0.359065,1.617837 c 0.429372,1.934624 0.170318,1.653214 2.101233,2.282554 l 1.598426,0.52098 1.475382,-1.2482 1.475382,-1.248206 h 0.369993 0.369993 l 1.63954,1.134286 1.639541,1.13429 0.11123,0.44317 0.11123,0.44318 -0.653864,1.64214 -0.653864,1.64213 0.858344,1.08491 0.858344,1.08491 0.396365,0.004 c 0.218001,0.002 1.041103,-0.11962 1.829116,-0.27039 l 1.432751,-0.27413 0.315256,0.10006 0.315256,0.10006 0.55688,1.44404 c 0.306284,0.79422 0.654376,1.80856 0.773538,2.25409 l 0.216657,0.81006 -0.11231,0.29268 -0.11231,0.29267 -1.460417,0.84237 -1.460417,0.84237 -0.07286,2.05567 -0.07286,2.05567 0.285986,0.24116 c 0.157293,0.13264 0.816974,0.58638 1.465958,1.00832 0.648984,0.42193 1.26026,0.90036 1.358391,1.06317 l 0.17842,0.29602 -0.79759,2.1523 -0.79759,2.15229 -0.269388,0.10337 -0.269388,0.10337 -1.574723,-0.22491 c -0.866098,-0.1237 -1.707858,-0.24073 -1.870579,-0.26006 l -0.295857,-0.0352 -1.0074,1.29841 -1.007401,1.2984 0.609329,1.45154 0.609329,1.45155 0.0064,0.58473 0.0064,0.58473 -1.868488,1.2944 c -1.027668,0.71192 -1.981339,1.2944 -2.119269,1.2944 h -0.250781 l -0.951557,-0.87082 c -0.523356,-0.47895 -1.169968,-1.06289 -1.436916,-1.29765 l -0.48536,-0.42684 -1.531222,0.51183 c -1.803844,0.60295 -1.681639,0.46907 -2.070331,2.26805 l -0.308022,1.42561 z m 4.65402,-6.20595 c 0.401833,-0.21266 1.387033,-0.76952 2.189335,-1.23748 l 1.458729,-0.85083 1.861906,-1.8333 1.861906,-1.8333 0.770249,-1.31383 c 0.961542,-1.64011 1.441634,-2.89028 1.772137,-4.61469 l 0.257837,-1.34527 -0.001,-3.05465 -0.001,-3.05465 -0.19959,-0.71887 -0.199591,-0.71888 -0.498507,-0.4985 -0.498507,-0.49851 -1.088347,-0.21497 c -1.736885,-0.34306 -4.539381,-1.24595 -6.602325,-2.12708 l -1.907522,-0.81476 -0.780835,0.004 -0.780835,0.004 -0.824985,0.37596 c -1.79125,0.81632 -4.23157,1.68665 -6.400604,2.28275 l -2.27568,0.62541 -0.413697,0.38865 c -0.227533,0.21376 -0.509668,0.62035 -0.626967,0.90353 l -0.21327,0.51488 0.06641,4.18776 0.06641,4.18776 0.509373,1.46664 0.509374,1.46664 0.74371,1.25901 0.74371,1.25901 1.307362,1.37631 1.307362,1.37632 1.124527,0.80244 c 0.61849,0.44135 1.856328,1.21133 2.75075,1.71108 l 1.626222,0.90864 0.8277,0.008 0.8277,0.008 z m 17.660256,-24.26874 c -0.06602,-0.0662 -0.561012,-0.12035 -1.09998,-0.12033 l -0.979942,2e-5 0.04832,-12.764549 0.04832,-12.76455 -0.27906,-0.959936 -0.279061,-0.959936 -0.479809,-0.57022 -0.47981,-0.570221 -0.756091,-0.404454 -0.756091,-0.404453 -15.100096,-0.04998 -15.100096,-0.04998 0.134906,0.324972 c 0.0742,0.178735 0.248738,0.688703 0.387865,1.133262 l 0.252958,0.808289 V 89.364857 100.8855 h -0.169287 c -0.09311,0 -0.553532,0.2933 -1.023164,0.65178 l -0.853877,0.65178 -0.260146,-0.2159 -0.260145,-0.2159 V 92.888207 84.01915 h -4.54821 -4.54821 l -0.327166,-0.239229 -0.327166,-0.23923 0.06572,-2.831548 0.06572,-2.831547 0.534786,-1.061569 0.534786,-1.061568 0.805327,-0.742324 0.805326,-0.742324 1.040425,-0.487732 1.040424,-0.487733 h 18.699659 18.699658 l 1.051946,0.51643 1.051947,0.51643 0.801926,0.801926 0.801926,0.801926 0.437752,0.881604 0.437753,0.881604 0.05088,10.633139 c 0.02799,5.848226 0.02799,12.063245 0,13.811165 l -0.05088,3.17804 z M 39.580632,80.024659 V 78.596783 L 39.230413,77.90985 38.880195,77.222916 38.372198,76.816938 C 37.685509,76.268154 36.886849,75.982531 36.005697,75.97061 l -0.73332,-0.0099 -0.73332,0.338449 c -0.887496,0.409606 -1.446033,0.989987 -1.82455,1.895905 l -0.283745,0.679097 v 1.289198 1.289198 h 3.574935 3.574935 z m 6.657696,13.159716 -0.400508,-0.161368 -0.195314,-0.364949 c -0.107423,-0.200722 -0.195315,-0.49787 -0.195315,-0.660329 v -0.295381 l 0.449992,-0.449992 0.449992,-0.449991 h 7.808961 7.808962 l 0.517584,0.267653 0.517584,0.267653 0.102629,0.392454 0.102629,0.392454 -0.196262,0.430748 -0.196261,0.430747 -0.552078,0.192455 -0.552077,0.192455 -7.535005,-0.01162 -7.535005,-0.01162 z M 45.90135,85.77329 45.447191,85.319131 v -0.340424 -0.340424 l 0.373802,-0.401229 0.373801,-0.401229 h 11.175988 11.175987 l 0.36666,0.36666 0.36666,0.36666 v 0.34635 0.34635 l -0.350391,0.432803 -0.350392,0.432802 -11.111899,0.05 -11.111899,0.05 z"
         id="path53"
         sodipodi:nodetypes="sscssscccccccccsscsscsscccccccccccccccssscccccsscccccccccccssccccccccccccccscccsscccccccssscccccsccccccccsscsscsscscscccsscccccccsscccsscsscccccccccssccccsscccccccccccsscccsscccccccccccccccccccccccccsscsccccsscssccccccccssccccccccccccccccccccccccccccccccc" /><path
         style="fill:#072b55"
         d="m 54.803954,136.41838 -0.336762,-0.12478 -0.191887,-0.60854 c -0.105538,-0.3347 -0.290994,-1.13147 -0.412126,-1.77061 l -0.220239,-1.16207 -0.385442,-0.14337 c -0.211993,-0.0788 -0.977358,-0.39197 -1.70081,-0.69583 l -1.315368,-0.55246 -1.413349,1.26208 -1.413349,1.26207 h -0.326033 -0.326032 l -1.71183,-1.29582 -1.711831,-1.29581 -0.139116,-0.3745 -0.139116,-0.3745 0.748652,-1.70704 0.748651,-1.70705 -0.822345,-1.00961 c -0.45229,-0.55529 -0.891577,-1.12913 -0.976195,-1.2752 l -0.153851,-0.26558 -1.810365,0.19853 -1.810366,0.19853 -0.329572,-0.40701 -0.329572,-0.407 -0.58201,-1.74699 -0.582011,-1.74699 0.102037,-0.40655 0.102036,-0.40654 1.519932,-0.89726 1.519932,-0.89726 v -2.04844 -2.04845 l -1.435068,-0.87887 -1.435068,-0.87887 -0.178089,-0.39086 -0.178088,-0.39086 0.788614,-2.08756 0.788613,-2.08755 0.31094,-0.19613 0.310939,-0.19614 1.338588,0.2354 c 0.736224,0.12946 1.586084,0.27016 1.888578,0.31266 l 0.54999,0.0773 0.859884,-1.07838 0.859884,-1.07837 -0.545612,-1.44115 c -0.300087,-0.79263 -0.555135,-1.66515 -0.566775,-1.93895 l -0.02116,-0.4978 0.199608,-0.24052 c 0.109784,-0.13228 0.89464,-0.71263 1.744123,-1.289658 l 1.544516,-1.049148 h 0.408356 0.408356 l 1.43504,1.295766 1.43504,1.29577 1.435941,-0.45225 1.435941,-0.45226 0.41284,-1.622664 0.412839,-1.622667 0.377575,-0.313501 0.377575,-0.3135 2.142865,0.109283 2.142866,0.109284 0.202759,0.158919 0.202759,0.15892 0.323445,1.511937 c 0.177894,0.831566 0.398925,1.656309 0.491179,1.832769 l 0.167733,0.32082 0.314378,0.005 c 0.172907,0.003 0.87113,0.19447 1.551606,0.42636 l 1.237229,0.42164 1.479102,-1.25135 1.479102,-1.251356 h 0.364104 0.364103 l 1.647244,1.141516 1.647243,1.14151 0.104364,0.41582 0.104364,0.41582 -0.662382,1.65495 -0.662381,1.65494 0.73477,0.92956 c 0.404123,0.51125 0.796485,1.03772 0.871914,1.16993 l 0.137144,0.24038 1.830348,-0.3477 1.830349,-0.3477 0.306842,0.0974 c 0.33984,0.10786 0.303691,0.033 1.189536,2.46472 l 0.633716,1.73963 -0.05378,0.46033 -0.05378,0.46033 -1.512472,0.89263 -1.512472,0.89263 -0.03274,1.71982 c -0.01801,0.9459 -0.03863,1.90224 -0.04583,2.1252 l -0.0131,0.40539 1.35841,0.84082 1.35841,0.84083 0.257803,0.38827 0.257804,0.38827 -0.77689,2.1282 -0.77689,2.12819 -0.418943,0.10515 -0.418943,0.10515 -1.337031,-0.20946 c -0.735366,-0.1152 -1.503263,-0.2437 -1.706436,-0.28556 l -0.369406,-0.0761 -1.028555,1.32959 -1.028555,1.32959 0.612368,1.45887 0.612368,1.45888 0.0064,0.56677 0.0064,0.56678 -1.768262,1.24482 c -0.972544,0.68465 -1.909507,1.28175 -2.082138,1.32689 l -0.313876,0.0821 -1.080777,-0.97702 c -0.594427,-0.53736 -1.258797,-1.1275 -1.476377,-1.31141 l -0.3956,-0.33438 -1.528892,0.50677 c -0.840891,0.27873 -1.556442,0.5255 -1.590115,0.54838 -0.03367,0.0229 -0.254556,0.80144 -0.490853,1.73011 -0.236296,0.92867 -0.511533,1.7704 -0.611639,1.8705 l -0.182009,0.18201 -2.134403,0.0238 -2.134403,0.0238 z m 4.68231,-0.35673 c 0.0702,-0.11359 0.315636,-0.9454 0.545419,-1.84847 0.229782,-0.90307 0.445336,-1.66384 0.479009,-1.6906 0.139527,-0.11088 3.053432,-1.021 3.268901,-1.021 h 0.23414 l 1.331454,1.19165 1.331454,1.19164 0.339242,-9e-5 0.339241,-8e-5 1.695803,-1.20775 1.695802,-1.20775 v -0.35458 c 0,-0.19502 -0.298495,-1.08442 -0.663322,-1.97643 l -0.663322,-1.62185 0.808108,-0.99213 c 0.444459,-0.54568 0.940827,-1.18163 1.103039,-1.41322 l 0.294932,-0.42107 1.961826,0.30763 1.961826,0.30764 0.1603,-0.1603 c 0.08817,-0.0882 0.401009,-0.81832 0.69521,-1.62255 0.2942,-0.80424 0.611418,-1.6685 0.704927,-1.92058 0.09351,-0.25208 0.141417,-0.58311 0.10646,-0.73563 l -0.06356,-0.27731 -1.576308,-0.98937 -1.576307,-0.98937 0.114729,-1.09767 c 0.0631,-0.60372 0.11473,-1.61603 0.11473,-2.24958 v -1.15191 l 1.353216,-0.747 c 0.744269,-0.41084 1.461904,-0.87795 1.594743,-1.03801 l 0.241527,-0.29102 -0.723926,-2.11209 -0.723925,-2.11209 -0.258406,-0.10185 -0.258406,-0.10185 -1.391564,0.22186 c -0.76536,0.12203 -1.599762,0.2621 -1.854227,0.31129 l -0.462662,0.0894 -0.958145,-1.20216 c -1.137971,-1.42778 -1.107066,-1.11813 -0.309106,-3.09703 l 0.649039,-1.60959 -0.108295,-0.34121 -0.108295,-0.34121 -1.136566,-0.77372 C 69.149887,100.4391 68.413463,99.925589 68.1385,99.723515 l -0.499931,-0.367406 -0.416718,0.196841 c -0.229195,0.108262 -1.007025,0.7019 -1.72851,1.31919 l -1.311792,1.12235 -1.378817,-0.46285 c -0.75835,-0.25457 -1.505741,-0.46286 -1.660871,-0.46286 H 60.85981 l -0.165907,-0.32082 c -0.09125,-0.17646 -0.309387,-0.980819 -0.484751,-1.787471 -0.175364,-0.806652 -0.402455,-1.569763 -0.504646,-1.695802 l -0.185802,-0.229163 h -2.264055 -2.264056 l -0.268133,0.962483 c -0.147473,0.529365 -0.376648,1.362336 -0.509279,1.851046 l -0.241146,0.888567 -1.374974,0.43812 c -0.756237,0.24097 -1.485573,0.43923 -1.620749,0.44058 l -0.245773,0.002 -1.392725,-1.28331 -1.392725,-1.283306 H 47.64191 47.338732 l -1.522452,1.055476 c -0.837348,0.58052 -1.610922,1.19573 -1.719052,1.36716 l -0.1966,0.31167 0.199534,0.69531 c 0.109744,0.38242 0.38831,1.20158 0.619037,1.82036 l 0.419503,1.12505 -0.986519,1.12074 -0.986518,1.12074 -0.371709,1.5e-4 c -0.20444,7e-5 -1.057652,-0.13602 -1.896026,-0.30244 l -1.524317,-0.30258 -0.247931,0.25661 c -0.315865,0.32691 -1.56168,3.66294 -1.56168,4.18185 v 0.39124 l 1.541851,0.99466 1.541852,0.99467 -0.02938,2.16366 -0.02938,2.16366 -1.46664,0.86866 -1.46664,0.86867 -0.147143,0.32764 -0.147143,0.32765 0.705966,2.01196 0.705967,2.01197 0.907816,-10e-4 c 0.499299,-6.3e-4 1.372223,-0.062 1.939831,-0.1365 l 1.032014,-0.13536 1.091878,1.41981 1.091878,1.41981 -0.692236,1.46664 -0.692235,1.46664 -0.01085,0.47581 -0.01085,0.47582 1.460991,1.11885 c 0.803545,0.61536 1.61313,1.20027 1.799077,1.29978 l 0.338087,0.18094 0.388153,-0.2173 c 0.213484,-0.11951 0.915266,-0.68869 1.559516,-1.26485 l 1.171364,-1.04755 1.777703,0.69923 c 2.148587,0.84511 1.907458,0.59717 2.232394,2.29545 0.148548,0.77639 0.356035,1.57221 0.461081,1.7685 l 0.190994,0.35687 h 2.274355 2.274355 z m -4.242887,-6.69684 c -2.249198,-1.17191 -3.558249,-2.08557 -5.13764,-3.58584 l -1.344772,-1.2774 -0.944686,-1.47268 -0.944687,-1.47269 -0.568271,-1.48969 -0.568271,-1.48969 -0.06619,-4.51959 -0.06619,-4.51958 0.286158,-0.55337 0.286159,-0.55337 0.506923,-0.34851 0.506924,-0.34851 2.383567,-0.66902 c 1.310962,-0.36797 3.208428,-1.00667 4.21659,-1.41934 1.008162,-0.41267 2.193044,-0.87973 2.63307,-1.0379 l 0.800048,-0.28759 0.941587,0.28017 c 0.517873,0.15409 1.84907,0.65723 2.958217,1.11808 l 2.01663,0.83792 2.01663,0.48171 c 1.109146,0.26495 2.264125,0.59977 2.566619,0.74405 l 0.54999,0.26232 0.458325,0.66978 0.458325,0.66978 -0.003,4.32149 -0.003,4.32149 -0.495482,1.46664 -0.495482,1.46664 -0.959915,1.5583 -0.959915,1.55831 -1.474917,1.49016 -1.474917,1.49015 -1.583083,1.02846 c -0.870696,0.56565 -2.108173,1.27686 -2.74995,1.58047 l -1.166867,0.55202 -0.470293,1.5e-4 -0.470293,1.4e-4 z m 4.8341,-0.53731 c 2.30524,-1.32799 3.418715,-2.19597 5.038886,-3.92794 l 1.322111,-1.41335 0.615002,-1.02861 c 0.816839,-1.36619 1.459355,-2.98894 1.777139,-4.48836 l 0.259778,-1.22572 0.0022,-3.20828 0.0022,-3.20827 -0.19959,-0.71887 -0.199591,-0.71888 -0.494955,-0.49495 -0.494955,-0.49496 -1.825219,-0.4131 c -1.898149,-0.4296 -4.147271,-1.19332 -6.500134,-2.20719 l -1.374975,-0.5925 -0.641655,0.007 -0.641655,0.007 -2.474955,0.99702 -2.474954,0.99703 -1.8333,0.50218 c -1.008315,0.2762 -2.09872,0.58348 -2.423123,0.68284 l -0.589823,0.18067 -0.464378,0.55188 c -0.255408,0.30354 -0.513495,0.74758 -0.573527,0.98677 l -0.10915,0.43488 0.0836,4.18007 0.0836,4.18007 0.302919,0.90768 c 0.166605,0.49922 0.592507,1.49376 0.946448,2.21008 l 0.64353,1.30241 0.958282,1.19776 c 0.527056,0.65878 1.523221,1.69776 2.213702,2.30886 l 1.255419,1.11109 2.136185,1.20855 2.136186,1.20854 0.880537,0.002 0.880537,0.002 z m 16.169152,-23.76375 -0.458325,-0.17239 -0.641655,0.10019 -0.641655,0.10018 V 91.851325 78.610921 l -0.394651,-0.73332 c -0.50709,-0.942247 -1.05402,-1.444287 -2.080304,-1.90956 l -0.824985,-0.374012 -14.915175,-0.004 -14.915176,-0.004 0.133316,0.320827 c 0.07332,0.176455 0.247147,0.684558 0.386274,1.129117 l 0.252958,0.808289 v 11.520653 11.520645 h -0.169287 c -0.09311,0 -0.561053,0.29904 -1.039876,0.66454 l -0.870589,0.66453 -0.246857,-0.33759 -0.246857,-0.3376 0.04926,-8.760161 0.04926,-8.760164 -4.615987,4.7e-5 -4.615988,4.6e-5 -0.303994,-0.303994 -0.303995,-0.303995 0.06712,-2.766783 0.06712,-2.766782 0.424401,-0.864649 c 0.23342,-0.475557 0.750957,-1.235636 1.150081,-1.689066 l 0.72568,-0.824416 1.224,-0.60256 1.223999,-0.602559 h 18.611821 18.611821 l 1.191645,0.570727 1.191645,0.570727 0.705749,0.712583 0.705749,0.712583 0.485896,0.91665 0.485896,0.91665 0.05088,10.633139 c 0.02799,5.848226 0.02799,12.045137 0,13.770927 l -0.05088,3.13779 z M 76.57348,88.785735 76.521624,77.877601 76.06997,76.960951 75.618316,76.044301 74.742944,75.187447 73.867572,74.330594 72.850263,73.94997 71.832955,73.569346 H 53.422046 35.011136 l -1.061024,0.389468 -1.061025,0.389468 -1.024875,1.040329 -1.024875,1.04033 -0.395932,1.17242 -0.395933,1.17242 v 2.336872 2.336873 l 0.229163,0.148317 0.229162,0.148317 4.674915,0.09167 4.674915,0.09167 0.04758,8.937337 0.04758,8.937333 h 0.156377 c 0.08601,0 0.46781,-0.24749 0.84845,-0.54999 0.380639,-0.30249 0.763227,-0.54999 0.850193,-0.54999 h 0.158121 V 89.467353 78.232501 l -0.284962,-1.002435 c -0.15673,-0.551339 -0.331611,-1.189452 -0.388625,-1.418029 l -0.103662,-0.415594 15.29865,0.04893 15.298651,0.04893 0.897339,0.554836 0.897339,0.554837 0.554836,0.897285 0.554837,0.897284 0.0505,13.158591 0.0505,13.158594 0.866148,0.0557 0.866149,0.0557 0.05186,-2.56662 c 0.02852,-1.41164 0.02852,-7.475279 0,-13.474753 z m -44.447617,-7.436687 -0.110062,-0.286817 0.09538,-1.188235 0.09538,-1.188235 0.442946,-0.860727 0.442946,-0.860728 0.772906,-0.543219 0.772907,-0.543219 1.157148,-0.07368 1.157148,-0.07368 0.73557,0.37526 0.73557,0.37526 0.568464,0.647445 0.568464,0.647444 0.192308,0.692499 0.192309,0.692499 10e-4,1.237477 10e-4,1.237477 H 36.091563 32.23588 Z m 7.454769,-1.418925 v -1.522412 l -0.529198,-0.834458 -0.529197,-0.834458 -0.811994,-0.393079 -0.811995,-0.39308 -0.812935,0.004 -0.812936,0.004 -0.73332,0.338449 c -0.887496,0.409606 -1.446033,0.989987 -1.82455,1.895905 l -0.283745,0.679097 v 1.289198 1.289198 h 3.574935 3.574935 z m 6.643045,13.248833 -0.415159,-0.166788 -0.176126,-0.463246 -0.176126,-0.463246 0.175505,-0.461613 0.175505,-0.461613 0.473547,-0.180042 0.473548,-0.180042 h 7.587633 7.587633 l 0.471347,0.21476 0.471347,0.21476 0.107144,0.426895 0.107144,0.426895 -0.110435,0.440005 -0.110434,0.440005 -0.578452,0.20165 -0.578452,0.201649 -7.535005,-0.01162 -7.535005,-0.01162 z m 16.285255,-0.366411 0.354608,-0.18978 v -0.537089 -0.53709 l -0.354608,-0.18978 -0.354607,-0.18978 h -7.950241 -7.950241 l -0.219996,0.219996 -0.219996,0.219996 v 0.476658 0.476657 l 0.219996,0.219996 0.219996,0.219996 h 7.950241 7.950241 z M 46.124515,86.017746 45.793524,85.82286 45.620331,85.367329 45.447139,84.911798 45.65794,84.511309 c 0.115941,-0.220269 0.301574,-0.461099 0.412519,-0.535179 l 0.201717,-0.13469 11.137297,-0.0028 11.137296,-0.0028 0.36666,0.36666 0.36666,0.36666 v 0.34635 0.34635 l -0.350391,0.432803 -0.350392,0.432802 -11.0619,0.04259 -11.0619,0.04259 z M 68.610393,85.69251 68.913429,85.4409 v -0.521092 -0.521092 l -0.354607,-0.189781 -0.354608,-0.18978 H 57.36364 46.523066 l -0.354607,0.18978 -0.354608,0.189781 v 0.521092 0.521092 l 0.229163,0.186049 c 0.436891,0.354699 1.014847,0.371848 11.613412,0.344577 l 10.650931,-0.02741 z"
         id="path52"
         sodipodi:nodetypes="ccssccscccccccccccsscccccccccccccccccccccsscccsscsscccccccccccccccssccscccccccccccsscccsscccccsscccccccccsscccccccsscsscsssscccccssscccccccsscsscccsssscccsscsscccccsscsscccsscsscsscssscccsscsccccccsscsscccsscssccccccccccccccccccccsscsscsssccccsscccccccccccssscsscsscccccccccccsscccscscsscccccccsscccccsscsscccsscssccccccccccccsscccsscccsscccccccccccsscccccccccccssccccccccccccccccccccccccccssscccsscccccccccccssccccccccccccccccccccccccccccccssccccccccccccccccccccccccccccccccccccccccccccccccssccccccccccccccccccccccccsscc" /><path
         style="fill:#00041b"
         d="m 56.77117,136.49197 -2.150775,-0.0516 -0.17041,-0.31841 c -0.09373,-0.17513 -0.218091,-0.64689 -0.276369,-1.04836 l -0.105958,-0.72994 0.25798,0.88633 c 0.141889,0.48749 0.288254,0.91661 0.325254,0.95361 0.037,0.037 1.076253,0.0803 2.309449,0.0963 l 2.242176,0.029 0.24153,-0.20045 0.24153,-0.20046 0.335766,-1.47011 c 0.18467,-0.80856 0.373316,-1.43256 0.419211,-1.38666 0.09805,0.0981 -0.490684,2.62239 -0.71297,3.05701 l -0.152373,0.29793 -0.326633,0.0687 c -0.179648,0.0378 -1.294482,0.0455 -2.477408,0.0171 z m 9.82773,-2.47509 c -0.518253,-0.29698 -2.699564,-2.33153 -2.499707,-2.33153 0.08612,0 0.479961,0.33118 0.875212,0.73595 0.395251,0.40478 1.029448,0.95135 1.409327,1.2146 l 0.690689,0.47865 0.507011,-0.3314 c 0.278857,-0.18227 1.105126,-0.77334 1.836155,-1.31348 l 1.329142,-0.98208 v -0.46936 -0.46936 l -0.639737,-1.47625 -0.639738,-1.47624 1.038918,-1.3564 c 1.288795,-1.68263 0.944268,-1.55106 3.138567,-1.19864 l 1.869173,0.30019 0.195243,-0.19524 c 0.107383,-0.10739 0.517442,-1.07172 0.911241,-2.14298 l 0.715998,-1.94773 -0.105769,-0.27563 -0.105769,-0.27563 -1.341886,-0.83636 c -0.738036,-0.46 -1.421436,-0.93484 -1.518665,-1.0552 l -0.176779,-0.21883 0.149257,-2.01663 0.149258,-2.01663 -0.05658,2.07521 -0.05658,2.07521 1.508698,0.97328 1.508698,0.97327 0.111961,0.29176 0.11196,0.29177 -0.662576,1.88465 -0.662575,1.88466 -0.330044,0.35374 -0.330044,0.35375 -1.520295,-0.22858 c -0.836162,-0.12571 -1.691847,-0.26969 -1.901522,-0.31994 l -0.381228,-0.0914 -1.032296,1.37153 -1.032296,1.37153 0.634371,1.46386 0.634371,1.46386 v 0.52844 0.52844 l -1.739242,1.23628 c -0.956583,0.67996 -1.843442,1.27269 -1.970797,1.31718 l -0.231556,0.0809 z M 45.520364,132.9419 c -1.506817,-1.12392 -2.273133,-1.81315 -2.273133,-2.04447 v -0.16934 l 0.320828,0.37945 c 0.457341,0.5409 3.194203,2.59445 3.457747,2.59445 0.12132,0 0.851571,-0.53624 1.62278,-1.19164 1.626754,-1.38249 2.055439,-1.59781 0.63874,-0.32083 -2.220767,2.00174 -2.119183,1.98145 -3.766962,0.75238 z m 11.947054,-2.92611 c 0.05565,-0.09 0.25848,-0.16373 0.450721,-0.16373 h 0.34953 l 1.243788,-0.67532 c 0.684083,-0.37142 1.738779,-1.00413 2.343768,-1.406 l 1.09998,-0.73069 1.63737,-1.5731 1.63737,-1.57311 -0.687676,0.85947 c -1.507187,1.88372 -5.760451,4.84801 -7.581514,5.28391 l -0.594529,0.1423 z m -2.804126,-1.0137 -1.875363,-1.03175 -1.509972,-1.21326 -1.509972,-1.21327 -0.967726,-1.19165 -0.967726,-1.19164 -0.826011,-1.65138 c -0.454306,-0.90826 -0.825004,-1.77449 -0.823773,-1.92496 0.0012,-0.15048 0.27263,0.34515 0.603108,1.10138 0.330477,0.75624 0.963298,1.91122 1.406267,2.56662 l 0.805399,1.19165 1.048736,1.03224 c 1.392517,1.37062 3.022067,2.51471 5.180017,3.63684 0.9757,0.50737 1.670136,0.92213 1.54319,0.9217 -0.126946,-4.3e-4 -1.074724,-0.46506 -2.106174,-1.03252 z m -8.99464,-15.37473 -0.03252,-4.03326 0.13469,-0.21253 0.13469,-0.21254 -0.04838,3.14581 c -0.0785,5.10505 -0.153692,5.62861 -0.188489,1.31252 z m 23.465616,-0.18333 -0.04556,-3.48327 -0.347272,-0.76486 -0.347272,-0.76486 -0.478279,-0.31338 c -0.263053,-0.17236 -0.744333,-0.3766 -1.069509,-0.45385 l -0.591231,-0.14047 0.477046,-0.0188 0.477046,-0.0188 0.622934,0.41276 0.622934,0.41276 0.416655,0.83883 0.416654,0.83883 -0.05429,3.46916 -0.05429,3.46916 z M 46.181576,108.6518 c 0.361665,-0.57912 1.028533,-0.91049 2.681842,-1.33262 1.728352,-0.44129 4.758909,-1.47651 6.240377,-2.13169 0.568093,-0.25124 1.065737,-0.42395 1.105875,-0.38382 0.209634,0.20964 -5.230399,2.18606 -7.622388,2.7693 l -1.351493,0.32953 -0.649002,0.56984 -0.649003,0.56983 z M 74.683543,92.085675 V 78.977581 l 0.05054,6.554047 c 0.0278,3.604725 0.0278,9.503368 0,13.108093 l -0.05054,6.554049 z m 1.699368,12.866055 0.227947,-0.14476 0.04827,-13.281354 0.04827,-13.281355 0.04461,13.428921 0.04461,13.428918 -0.320828,-0.003 -0.320827,-0.003 z m -5.248255,-2.72313 -0.02127,-0.39855 -0.504157,-0.39468 c -0.277287,-0.21707 -1.018473,-0.75958 -1.647081,-1.20558 l -1.142922,-0.810916 -0.323717,0.0035 -0.323718,0.0035 -1.517126,1.268656 -1.517127,1.26867 -0.554694,-0.19337 c -0.305082,-0.10635 -0.520675,-0.22739 -0.479096,-0.26897 0.04158,-0.0416 0.291295,0.006 0.554926,0.10665 l 0.479329,0.18224 1.482703,-1.27709 1.482704,-1.277093 h 0.360906 0.360906 l 1.420838,0.995603 c 0.781461,0.54759 1.569779,1.16019 1.751817,1.36134 l 0.330978,0.36572 -0.08647,0.33447 -0.08647,0.33447 z m -31.248474,-0.182 c -0.06722,-0.0672 -0.120957,-0.21159 -0.119413,-0.32082 l 0.0028,-0.19861 0.156225,0.2465 0.156224,0.2465 0.895116,-0.68321 0.895115,-0.68321 0.09373,-11.479741 0.09373,-11.479738 0.04376,11.477563 0.04376,11.477566 -1.015869,0.75971 c -1.114009,0.83311 -1.071401,0.81129 -1.2452,0.63749 z m 3.94916,-0.60524 0.0802,-0.26914 1.636644,-1.14534 1.636644,-1.145344 0.475744,-0.0063 0.475743,-0.0063 0.349242,0.387204 c 0.192082,0.212962 0.819482,0.79504 1.394221,1.29351 l 1.04498,0.9063 1.220123,-0.37686 c 0.671068,-0.20727 1.314557,-0.37015 1.429975,-0.36195 0.190335,0.0135 -2.394125,0.89011 -2.648367,0.89827 -0.05955,0.002 -0.74178,-0.57402 -1.516071,-1.27984 l -1.407803,-1.283304 h -0.380979 -0.380979 l -1.494554,1.036694 c -0.822005,0.57018 -1.607145,1.16829 -1.744755,1.32914 l -0.2502,0.29245 z m 10.612908,-8.248004 7.809415,-0.09936 0.312299,-0.259379 0.312299,-0.25938 -0.05519,-0.561425 -0.05519,-0.561424 -0.458325,-0.230641 -0.458325,-0.23064 -7.66236,-0.0027 -7.66236,-0.0027 -0.464653,0.464653 -0.464653,0.464653 0.06212,-0.322551 0.06212,-0.322551 0.456701,-0.231065 0.456701,-0.231064 7.550427,-0.0027 7.550427,-0.0027 0.512361,0.194799 c 0.6156,0.234051 0.788289,0.475186 0.792011,1.105929 l 0.0028,0.475744 -0.385737,0.349241 -0.385737,0.349241 -7.81828,0.0077 -7.81828,0.0077 z m -8.266115,-7.210708 -0.456701,-0.231064 -0.06212,-0.322551 -0.06212,-0.322551 0.464653,0.464653 0.464653,0.464653 h 10.724511 10.724511 l 0.471347,-0.21476 0.471346,-0.21476 0.108998,-0.434282 0.108998,-0.434282 -0.325137,-0.359273 -0.325137,-0.359273 H 57.426891 46.363841 l -0.36666,0.36666 c -0.201663,0.201663 -0.36666,0.296948 -0.36666,0.211744 0,-0.0852 0.150869,-0.29145 0.335263,-0.458325 l 0.335263,-0.303409 h 11.11572 11.115719 l 0.373802,0.401229 c 0.393192,0.422043 0.447208,0.660797 0.25992,1.148862 l -0.113881,0.29677 -0.51867,0.268215 -0.518669,0.268214 -10.688076,-0.0027 -10.688076,-0.0027 z m -16.029903,-2.25158 -0.288089,-0.28809 0.04021,-2.507692 0.04021,-2.507692 0.05651,2.502534 0.05651,2.502535 0.238952,0.198312 0.238952,0.198313 4.568405,0.05245 4.568406,0.05246 -4.615987,0.04248 -4.615988,0.04248 z m 4.07575,-2.23205 c 1.038886,-0.03274 2.688856,-0.0326 3.666599,2.95e-4 l 1.777716,0.05982 -3.6666,-2.95e-4 -3.6666,-2.94e-4 z m 5.377616,-2.623039 -0.02497,-0.468265 -0.529198,-0.834458 -0.529197,-0.834458 -0.811994,-0.393079 -0.811995,-0.39308 h -0.772991 -0.772992 l -0.681599,0.28472 c -0.840462,0.351081 -1.591821,1.052496 -1.8846,1.759326 -0.12173,0.293882 -0.257555,0.498103 -0.301833,0.453824 -0.332068,-0.332067 1.160352,-1.967861 2.186433,-2.39648 l 0.681599,-0.28472 h 0.745097 0.745097 l 0.679097,0.283745 c 0.870183,0.363586 1.452963,0.912185 1.904493,1.792792 l 0.359725,0.701562 -0.07761,0.398418 -0.0776,0.398418 z m 34.649661,-0.630892 -0.241098,-0.666744 -0.534852,-0.609163 -0.534852,-0.609162 -0.686371,-0.341187 -0.686372,-0.341187 -15.124724,-0.09427 -15.124723,-0.09427 14.872511,-0.04323 14.872512,-0.04322 0.801519,0.282792 0.801519,0.282793 0.61257,0.588025 c 0.647192,0.621259 1.376833,1.865447 1.274322,2.17298 l -0.06086,0.182592 z M 30.239863,77.510941 c -0.0031,-0.100832 0.234659,-0.602244 0.528332,-1.11425 l 0.533952,-0.93092 0.66107,-0.580427 c 0.363588,-0.319235 0.981199,-0.743745 1.372469,-0.943356 l 0.711399,-0.362929 0.795976,-0.09997 0.795976,-0.09997 -1.008315,0.283532 -1.008315,0.283533 -0.944381,0.646427 -0.944382,0.646428 -0.457217,0.677628 c -0.251469,0.372696 -0.586305,0.925124 -0.74408,1.227619 -0.157775,0.302494 -0.289393,0.467491 -0.292484,0.36666 z"
         id="path51"
         sodipodi:nodetypes="scccsscssccccssscsscsssscsscccccsscsscccsscccccccccccccsscccccccsssssscssssssscsscccssssscccccsssscssssccccsccccccssccccccccccsssssccssccsscccccccccccccsscccccssccccccssccscsscccccccccsssccccccsscsscscccssccccccccccccccccccccssccccccccccccccccccccccssscccsscccccccccccccccccccsscccsccccccccsssscccssccscccccccccccccssscsscsscccccccss" /></g><text
       xml:space="preserve"
       style="font-size:33.2442px;line-height:1.25;font-family:sans-serif;-inkscape-font-specification:'sans-serif, Normal';fill:#15456a;fill-opacity:1;stroke:#1a1a1a;stroke-width:0.1;stroke-dasharray:none"
       x="70.558952"
       y="166.09895"
       id="text57"><tspan
         sodipodi:role="line"
         id="tspan57"
         x="70.558952"
         y="166.09895"
         style="font-style:normal;font-variant:normal;font-weight:800;font-stretch:normal;font-size:33.2442px;font-family:Aptos;-inkscape-font-specification:'Aptos, Ultra-Bold';font-variant-ligatures:normal;font-variant-caps:normal;font-variant-numeric:normal;font-variant-east-asian:normal;fill:#15456a;fill-opacity:1;stroke:#1a1a1a;stroke-width:0.1;stroke-dasharray:none">Sphinx </tspan><tspan
         sodipodi:role="line"
         x="70.558952"
         y="208.17531"
         style="font-style:normal;font-variant:normal;font-weight:800;font-stretch:normal;font-size:33.2442px;font-family:Aptos;-inkscape-font-specification:'Aptos, Ultra-Bold';font-variant-ligatures:normal;font-variant-caps:normal;font-variant-numeric:normal;font-variant-east-asian:normal;fill:#15456a;fill-opacity:1;stroke:#1a1a1a;stroke-width:0.1;stroke-dasharray:none"
         id="tspan58" /></text><text
       xml:space="preserve"
       style="font-size:13.4448px;line-height:1.25;font-family:sans-serif;-inkscape-font-specification:'sans-serif, Normal';fill:#fba32b;fill-opacity:1;stroke:#1a1a1a;stroke-width:0.1;stroke-dasharray:none"
       x="94.809349"
       y="188.96581"
       id="text57-6"><tspan
         sodipodi:role="line"
         x="94.809349"
         y="188.96581"
         style="font-style:normal;font-variant:normal;font-weight:bold;font-stretch:normal;font-size:13.4448px;font-family:Aptos;-inkscape-font-specification:'Aptos, Bold';font-variant-ligatures:normal;font-variant-caps:normal;font-variant-numeric:normal;font-variant-east-asian:normal;text-align:center;text-anchor:middle;fill:#fba32b;fill-opacity:1;stroke:#1a1a1a;stroke-width:0.1;stroke-dasharray:none"
         id="tspan60">SAFETY</tspan></text><text
       xml:space="preserve"
       style="font-size:13.4448px;line-height:1.25;font-family:sans-serif;-inkscape-font-specification:'sans-serif, Normal';fill:#fba32b;fill-opacity:1;stroke:#1a1a1a;stroke-width:0.1;stroke-dasharray:none"
       x="122.94673"
       y="206.14615"
       id="text57-6-5"><tspan
         sodipodi:role="line"
         x="122.94673"
         y="206.14615"
         style="font-style:normal;font-variant:normal;font-weight:bold;font-stretch:normal;font-size:13.4448px;font-family:Aptos;-inkscape-font-specification:'Aptos, Bold';font-variant-ligatures:normal;font-variant-caps:normal;font-variant-numeric:normal;font-variant-east-asian:normal;text-align:center;text-anchor:middle;fill:#fba32b;fill-opacity:1;stroke:#1a1a1a;stroke-width:0.1;stroke-dasharray:none"
         id="tspan60-7">CLASSIFICATION</tspan></text></g></svg>
