<?xml version="1.0" encoding="UTF-8" standalone="no"?>
<!-- Created with Inkscape (http://www.inkscape.org/) -->

<svg
   width="156.11253mm"
   height="63.340553mm"
   viewBox="0 0 156.11253 63.340553"
   version="1.1"
   id="svg1"
   xml:space="preserve"
   inkscape:version="1.4.1 (93de688d07, 2025-03-30)"
   sodipodi:docname="logo_classification_sn__light_2.svg"
   inkscape:export-filename="logo_classification_sn_2.png"
   inkscape:export-xdpi="90"
   inkscape:export-ydpi="90"
   xmlns:inkscape="http://www.inkscape.org/namespaces/inkscape"
   xmlns:sodipodi="http://sodipodi.sourceforge.net/DTD/sodipodi-0.dtd"
   xmlns="http://www.w3.org/2000/svg"
   xmlns:svg="http://www.w3.org/2000/svg"><sodipodi:namedview
     id="namedview1"
     pagecolor="#ffffff"
     bordercolor="#666666"
     borderopacity="1.0"
     inkscape:showpageshadow="2"
     inkscape:pageopacity="0.0"
     inkscape:pagecheckerboard="0"
     inkscape:deskcolor="#d1d1d1"
     inkscape:document-units="mm"
     inkscape:zoom="1.0343421"
     inkscape:cx="264.41929"
     inkscape:cy="117.46598"
     inkscape:window-width="1920"
     inkscape:window-height="1015"
     inkscape:window-x="1920"
     inkscape:window-y="360"
     inkscape:window-maximized="1"
     inkscape:current-layer="layer1" /><defs
     id="defs1" /><g
     inkscape:label="Layer 1"
     inkscape:groupmode="layer"
     id="layer1"
     transform="translate(-20.202594,-143.30061)"><path
       style="fill:#fba32b"
       d="m 45.103079,206.28816 -0.319457,-0.35299 -0.303874,-1.55047 -0.303874,-1.55048 -1.70844,-0.67385 -1.708441,-0.67386 -1.373136,1.20235 -1.373137,1.20235 h -0.425063 -0.425064 l -1.106353,-0.87082 c -0.608495,-0.47895 -1.402746,-1.1012 -1.765002,-1.38279 l -0.658649,-0.51197 v -0.34365 c 0,-0.34704 0.362165,-1.27352 1.072708,-2.74417 l 0.387598,-0.80224 -0.959315,-1.27113 -0.959316,-1.27114 -1.191644,0.11248 c -0.655405,0.0619 -1.452034,0.15915 -1.770288,0.21621 l -0.578642,0.10374 -0.361169,-0.36117 -0.361169,-0.36117 -0.585499,-1.75746 -0.585499,-1.75746 0.05867,-0.511 0.05867,-0.511 1.512472,-0.89263 1.512473,-0.89263 v -2.07303 -2.07303 l -1.014327,-0.58034 c -0.557879,-0.31918 -1.259116,-0.78631 -1.558305,-1.03806 l -0.543978,-0.45773 0.0034,-0.30453 c 0.0019,-0.16749 0.324258,-1.17077 0.716437,-2.2295 l 0.713052,-1.92496 0.429375,-0.31469 0.429375,-0.31468 1.741635,0.34491 1.741634,0.34491 0.937576,-1.03705 0.937575,-1.03706 -0.460458,-1.19313 c -0.253252,-0.65622 -0.547243,-1.50029 -0.653313,-1.87571 l -0.192855,-0.68259 0.405704,-0.43185 c 0.563278,-0.59958 3.407756,-2.51123 3.736635,-2.51123 h 0.26974 l 1.481527,1.37636 1.481527,1.37637 0.519756,-0.19896 c 0.285866,-0.10942 0.92461,-0.30313 1.419433,-0.43045 l 0.899677,-0.2315 0.41149,-1.71438 0.41149,-1.71438 0.32801,-0.23984 0.32801,-0.23985 h 2.081588 2.081588 l 0.449992,0.44999 0.449992,0.44999 v 0.26084 c 0,0.14346 0.12922,0.83304 0.287155,1.5324 l 0.287155,1.27156 1.635918,0.50996 1.635918,0.50996 1.449565,-1.20904 1.449566,-1.20904 0.523123,0.0126 0.523124,0.0126 1.558305,1.14556 1.558305,1.14557 0.05478,0.5477 0.05478,0.5477 -0.634458,1.50436 -0.634458,1.50436 0.579675,0.69474 c 0.318822,0.38212 0.70596,0.88551 0.860307,1.11865 l 0.280631,0.42389 1.975842,-0.32424 1.975842,-0.32425 0.253392,0.25777 0.253393,0.25777 0.725773,2.04148 0.725773,2.04149 -0.212517,0.42627 -0.212518,0.42626 -1.40656,0.83219 -1.40656,0.83219 -0.05826,2.07832 -0.05826,2.07833 1.511996,0.9128 1.511995,0.91281 0.109325,0.43558 0.109326,0.43559 -0.383844,1.01904 c -0.211114,0.56047 -0.554894,1.47311 -0.763956,2.0281 l -0.380112,1.00906 -0.331366,0.17734 -0.331366,0.17734 -1.809309,-0.35002 -1.809309,-0.35002 -0.274995,0.39854 c -0.151247,0.2192 -0.607397,0.80904 -1.013667,1.31077 l -0.738672,0.91222 0.721182,1.7717 0.721182,1.7717 -0.107692,0.28064 -0.107692,0.28064 -1.821407,1.30041 -1.821406,1.30041 h -0.320749 -0.32075 l -1.428662,-1.28792 -1.428662,-1.28792 -1.229904,0.46294 c -0.676448,0.25461 -1.377688,0.46293 -1.558313,0.46293 h -0.328409 l -0.388504,1.68736 -0.388503,1.68735 -0.29799,0.32928 -0.297989,0.32927 h -2.234797 -2.234797 z m 5.573602,-7.53628 1.930562,-1.10607 1.327664,-1.09699 1.327665,-1.09698 1.021844,-1.23438 1.021845,-1.23438 0.811854,-1.64997 0.811854,-1.64997 0.276074,-1.09267 0.276074,-1.09266 v -3.91218 -3.91219 l -0.271332,-0.52469 c -0.149233,-0.28859 -0.484239,-0.69218 -0.74446,-0.89686 l -0.473127,-0.37217 -1.043008,-0.20839 c -1.785776,-0.3568 -3.518345,-0.91192 -6.052484,-1.93926 l -2.442857,-0.99033 h -0.546633 -0.546633 l -1.59376,0.66629 c -2.087964,0.8729 -5.378548,1.98706 -6.6453,2.25003 l -1.007631,0.20919 -0.560022,0.34057 -0.560022,0.34057 -0.325678,0.68631 -0.325678,0.68632 0.08311,4.05607 0.08311,4.05608 0.415613,1.28331 c 1.36508,4.21503 4.107009,7.22083 8.898703,9.75508 l 1.46664,0.77569 0.727723,0.005 0.727723,0.005 z m -4.205862,-1.39179 c -0.652584,-0.3632 -1.683815,-0.99477 -2.291625,-1.40347 l -1.10511,-0.74311 -1.238226,-1.26776 -1.238226,-1.26775 -0.727284,-1.2242 c -0.400006,-0.67331 -0.906288,-1.7184 -1.12507,-2.32242 l -0.397787,-1.09821 -0.08661,-3.80455 -0.08661,-3.80456 0.282693,-0.43144 0.282693,-0.43144 1.081634,-0.2128 c 1.533105,-0.30162 3.683664,-1.02287 5.854965,-1.96363 l 1.868845,-0.80971 0.42278,0.004 c 0.232528,0.002 0.794022,0.17393 1.247764,0.38159 1.681716,0.76967 4.542927,1.77078 6.23322,2.18095 l 1.741634,0.42262 0.234256,0.21285 0.234256,0.21285 0.01513,3.56329 0.01513,3.5633 -0.231809,0.91665 c -0.331116,1.30934 -0.948001,2.64976 -1.790277,3.89007 l -0.730673,1.07596 -1.550407,1.45858 -1.550406,1.45858 -1.709239,1.05414 -1.709238,1.05415 -0.37994,-0.002 -0.37994,-0.002 z m 0.774112,-5.66814 c 0.142582,-0.0547 1.770429,-1.66962 3.617437,-3.58867 l 3.358197,-3.4892 -0.01651,-0.58065 -0.01651,-0.58066 -0.397969,-0.32225 -0.397969,-0.32226 h -0.516579 -0.516579 l -2.792525,2.84038 -2.792525,2.84037 -1.361385,-1.4654 -1.361385,-1.4654 h -0.568121 -0.568123 l -0.424308,0.39862 -0.424308,0.39862 v 0.51541 0.51542 l 1.856646,1.97341 c 2.437321,2.59061 2.512232,2.6432 3.322516,2.33226 z M 66.127829,175.156 64.982017,175.0909 v -13.11122 -13.11119 l -0.38633,-0.89805 -0.386329,-0.89805 -0.640635,-0.48863 -0.640636,-0.48864 -0.835472,-0.25144 -0.835472,-0.25144 H 46.619882 c -8.050495,0 -14.637262,0.0308 -14.637262,0.0684 0,0.0376 0.163816,0.4387 0.364037,0.89133 l 0.364037,0.82296 0.0079,11.67345 0.0079,11.67344 -0.784462,0.59721 c -0.431454,0.32847 -0.891199,0.66257 -1.021656,0.74244 l -0.237193,0.14522 -0.266964,-0.22156 -0.266964,-0.22156 v -8.86905 -8.86906 h -4.652467 -4.652467 l -0.222653,-0.26828 -0.222654,-0.26828 -0.09821,-1.43287 -0.09821,-1.43286 0.202526,-1.50489 0.202527,-1.50488 0.444253,-0.8767 0.444252,-0.87669 0.940955,-0.88015 0.940955,-0.88015 0.86481,-0.39953 0.864809,-0.39953 h 18.791324 18.791323 l 1.030316,0.48311 1.030317,0.4831 0.722671,0.65289 0.722671,0.65289 0.476931,0.88064 0.476932,0.88063 0.199203,1.08782 0.199204,1.08782 v 12.89109 12.89109 l -0.137498,-0.0353 c -0.07562,-0.0194 -0.653113,-0.0646 -1.28331,-0.10041 z m -35.982536,-25.0263 -0.004,-1.32915 -0.336546,-0.7409 -0.336546,-0.7409 -0.584413,-0.49176 -0.584414,-0.49175 -0.764194,-0.20577 -0.764194,-0.20578 -0.593078,0.0962 c -0.326194,0.0529 -0.890695,0.23747 -1.254449,0.41008 l -0.661369,0.31385 -0.422659,0.57002 c -0.232462,0.31351 -0.51655,0.85045 -0.631306,1.1932 l -0.208649,0.62318 v 1.16429 1.16429 h 3.574935 3.574935 z m 6.326128,12.80111 -0.455542,-0.45555 v -0.45335 -0.45335 l 0.483049,-0.37996 0.483048,-0.37997 h 7.958464 7.958464 l 0.449992,0.44999 0.449992,0.44999 v 0.35468 0.35469 l -0.350343,0.4328 -0.350342,0.4328 -8.08562,0.0514 -8.085621,0.0514 z m 0.02751,-7.0854 -0.483049,-0.37996 v -0.42471 -0.42471 l 0.350462,-0.4328 0.350463,-0.43281 h 11.180079 11.18008 l 0.385907,0.34925 0.385907,0.34924 v 0.50827 0.50827 l -0.483048,0.37996 -0.483049,0.37997 H 47.932328 36.981976 Z"
       id="path57"
       sodipodi:nodetypes="ccccccccccsscssccccscccccccccccssccscccccccsscsscccsscccccccccsscccccccccccccsscccccccccccccccccsscccccsscccccccccccssccccccccccccccccccccsscsscccsscccccccsscccccscccsscccccssccsscccccssccccccccsscccccccccccccccccssccccccccccssscccsscccccccccccccccccccccccccccccccsccccccccccsscsscccccccccccccccccccccccccccccccccccccccc" /><path
       style="fill:#6e91ac"
       d="m 45.103079,206.28816 -0.319457,-0.35299 -0.303874,-1.55047 -0.303874,-1.55048 -1.70844,-0.67385 -1.708441,-0.67386 -1.373136,1.20235 -1.373137,1.20235 h -0.425063 -0.425064 l -1.106353,-0.87082 c -0.608495,-0.47895 -1.402746,-1.1012 -1.765002,-1.38279 l -0.658649,-0.51197 v -0.34365 c 0,-0.34704 0.362165,-1.27352 1.072708,-2.74417 l 0.387598,-0.80224 -0.959315,-1.27113 -0.959316,-1.27114 -1.191644,0.11248 c -0.655405,0.0619 -1.452034,0.15915 -1.770288,0.21621 l -0.578642,0.10374 -0.361169,-0.36117 -0.361169,-0.36117 -0.585499,-1.75746 -0.585499,-1.75746 0.05867,-0.511 0.05867,-0.511 1.512472,-0.89263 1.512473,-0.89263 v -2.07303 -2.07303 l -1.014327,-0.58034 c -0.557879,-0.31918 -1.259116,-0.78631 -1.558305,-1.03806 l -0.543978,-0.45773 0.0034,-0.30453 c 0.0019,-0.16749 0.324258,-1.17077 0.716437,-2.2295 l 0.713052,-1.92496 0.429375,-0.31469 0.429375,-0.31468 1.741635,0.34491 1.741634,0.34491 0.937576,-1.03705 0.937575,-1.03706 -0.460458,-1.19313 c -0.253252,-0.65622 -0.547243,-1.50029 -0.653313,-1.87571 l -0.192855,-0.68259 0.405704,-0.43185 c 0.563278,-0.59958 3.407756,-2.51123 3.736635,-2.51123 h 0.26974 l 1.481527,1.37636 1.481527,1.37637 0.519756,-0.19896 c 0.285866,-0.10942 0.92461,-0.30313 1.419433,-0.43045 l 0.899677,-0.2315 0.41149,-1.71438 0.41149,-1.71438 0.32801,-0.23984 0.32801,-0.23985 h 2.081588 2.081588 l 0.449992,0.44999 0.449992,0.44999 v 0.26084 c 0,0.14346 0.12922,0.83304 0.287155,1.5324 l 0.287155,1.27156 1.635918,0.50996 1.635918,0.50996 1.449565,-1.20904 1.449566,-1.20904 0.523123,0.0126 0.523124,0.0126 1.558305,1.14556 1.558305,1.14557 0.05478,0.5477 0.05478,0.5477 -0.634458,1.50436 -0.634458,1.50436 0.579675,0.69474 c 0.318822,0.38212 0.70596,0.88551 0.860307,1.11865 l 0.280631,0.42389 1.975842,-0.32424 1.975842,-0.32425 0.253392,0.25777 0.253393,0.25777 0.725773,2.04148 0.725773,2.04149 -0.212517,0.42627 -0.212518,0.42626 -1.40656,0.83219 -1.40656,0.83219 -0.05826,2.07832 -0.05826,2.07833 1.511996,0.9128 1.511995,0.91281 0.109325,0.43558 0.109326,0.43559 -0.383844,1.01904 c -0.211114,0.56047 -0.554894,1.47311 -0.763956,2.0281 l -0.380112,1.00906 -0.331366,0.17734 -0.331366,0.17734 -1.809309,-0.35002 -1.809309,-0.35002 -0.274995,0.39854 c -0.151247,0.2192 -0.607397,0.80904 -1.013667,1.31077 l -0.738672,0.91222 0.721182,1.7717 0.721182,1.7717 -0.107692,0.28064 -0.107692,0.28064 -1.821407,1.30041 -1.821406,1.30041 h -0.320749 -0.32075 l -1.428662,-1.28792 -1.428662,-1.28792 -1.229904,0.46294 c -0.676448,0.25461 -1.377688,0.46293 -1.558313,0.46293 h -0.328409 l -0.388504,1.68736 -0.388503,1.68735 -0.29799,0.32928 -0.297989,0.32927 h -2.234797 -2.234797 z m 5.573602,-7.53628 1.930562,-1.10607 1.327664,-1.09699 1.327665,-1.09698 1.021844,-1.23438 1.021845,-1.23438 0.811854,-1.64997 0.811854,-1.64997 0.276074,-1.09267 0.276074,-1.09266 v -3.91218 -3.91219 l -0.271332,-0.52469 c -0.149233,-0.28859 -0.484239,-0.69218 -0.74446,-0.89686 l -0.473127,-0.37217 -1.043008,-0.20839 c -1.785776,-0.3568 -3.518345,-0.91192 -6.052484,-1.93926 l -2.442857,-0.99033 h -0.546633 -0.546633 l -1.59376,0.66629 c -2.087964,0.8729 -5.378548,1.98706 -6.6453,2.25003 l -1.007631,0.20919 -0.560022,0.34057 -0.560022,0.34057 -0.325678,0.68631 -0.325678,0.68632 0.08311,4.05607 0.08311,4.05608 0.415613,1.28331 c 1.36508,4.21503 4.107009,7.22083 8.898703,9.75508 l 1.46664,0.77569 0.727723,0.005 0.727723,0.005 z m -4.213902,-1.42222 c -0.653805,-0.38225 -1.688628,-1.03464 -2.299608,-1.44975 l -1.110873,-0.75475 -1.376578,-1.46331 -1.376578,-1.46331 -0.669786,-1.2746 -0.669786,-1.27461 -0.280201,-1.07576 -0.2802,-1.07576 v -3.8006 -3.80059 l 0.190633,-0.11782 c 0.104848,-0.0648 0.82671,-0.26974 1.604138,-0.45543 1.533215,-0.3662 4.070607,-1.25507 6.311695,-2.21104 l 1.414921,-0.60355 2.343343,0.93413 c 2.653502,1.05776 5.012347,1.82355 6.152718,1.99745 0.425631,0.0649 0.876999,0.19936 1.003038,0.29877 l 0.229162,0.18075 -0.0022,3.59832 -0.0022,3.59832 -0.251937,0.94622 c -0.995399,3.73852 -4.255844,7.41315 -8.490415,9.56896 -1.010762,0.51458 -1.051104,0.50959 -2.439335,-0.30204 z m 2.738036,-0.0643 c 0.562726,-0.31677 1.502937,-0.90102 2.089358,-1.29834 l 1.066219,-0.72241 1.347061,-1.34706 1.347061,-1.34706 0.767,-1.29105 0.767,-1.29105 0.440487,-1.3871 0.440486,-1.38711 v -3.5455 -3.5455 l -0.229162,-0.18505 c -0.126039,-0.10178 -0.600406,-0.2459 -1.054148,-0.32027 -1.122581,-0.184 -4.74944,-1.39527 -6.555586,-2.18938 -1.817184,-0.79897 -1.527307,-0.81153 -3.767012,0.16316 -2.176566,0.9472 -5.018047,1.90184 -6.129274,2.05921 l -0.777159,0.11006 -0.200673,0.2418 -0.200672,0.2418 0.06431,4.08764 0.06431,4.08765 0.593506,1.37497 0.593505,1.37498 0.921588,1.22565 c 1.479375,1.96748 3.439317,3.55963 6.133537,4.98255 1.132913,0.59833 1.044463,0.60192 2.27826,-0.0926 z m -5.184783,-7.48779 -2.133593,-2.19717 v -0.63422 -0.63423 l 0.412492,-0.46875 0.412493,-0.46874 0.618403,-0.1189 0.618404,-0.1189 1.403566,1.49102 1.403565,1.49102 2.744459,-2.74904 c 1.509453,-1.51198 2.882844,-2.79297 3.051981,-2.84665 l 0.307521,-0.0976 0.62353,0.26052 0.62353,0.26053 0.24914,0.60148 0.24914,0.60148 -0.355055,0.60866 -0.355055,0.60866 -3.289033,3.30399 -3.289033,3.304 h -0.581431 -0.581431 z m 5.483644,-0.23196 c 1.211925,-1.23519 2.798783,-2.87636 3.526351,-3.64706 l 1.322851,-1.40127 v -0.37597 -0.37598 l -0.412493,-0.46165 -0.412492,-0.46164 -0.536232,-0.12649 -0.536231,-0.1265 -2.810199,2.91538 -2.810199,2.91537 -1.479453,-1.51248 -1.479453,-1.51247 h -0.270628 c -0.148845,0 -0.504029,0.1207 -0.789297,0.26822 l -0.51867,0.26821 -0.113881,0.29677 c -0.06264,0.16322 -0.113881,0.50461 -0.113881,0.75864 v 0.46187 l 2.04153,2.18142 2.04153,2.18142 h 0.573673 0.573673 z m 16.628153,-14.38964 -1.145812,-0.0651 v -13.11119 -13.11119 l -0.38633,-0.89805 -0.386329,-0.89805 -0.640635,-0.48863 -0.640636,-0.48864 -0.835472,-0.25144 -0.835472,-0.25144 H 46.619882 c -8.050495,0 -14.637262,0.0308 -14.637262,0.0684 0,0.0376 0.163816,0.4387 0.364037,0.89133 l 0.364037,0.82296 0.0079,11.67345 0.0079,11.67344 -0.784462,0.59721 c -0.431454,0.32847 -0.891199,0.66257 -1.021656,0.74244 l -0.237193,0.14522 -0.266964,-0.22156 -0.266964,-0.22156 v -8.86905 -8.86906 h -4.652467 -4.652467 l -0.222653,-0.26828 -0.222654,-0.26828 -0.09821,-1.43287 -0.09821,-1.43286 0.202526,-1.50489 0.202527,-1.50488 0.444253,-0.8767 0.444252,-0.87669 0.940955,-0.88015 0.940955,-0.88015 0.86481,-0.39953 0.864809,-0.39953 h 18.791324 18.791323 l 1.030316,0.48311 1.030317,0.4831 0.722671,0.65289 0.722671,0.65289 0.476931,0.88064 0.476932,0.88063 0.199203,1.08782 0.199204,1.08782 v 12.89109 12.89109 l -0.137498,-0.0353 c -0.07562,-0.0194 -0.653113,-0.0646 -1.28331,-0.10041 z m -35.982536,-25.0263 -0.004,-1.32915 -0.336546,-0.7409 -0.336546,-0.7409 -0.584413,-0.49176 -0.584414,-0.49175 -0.764194,-0.20577 -0.764194,-0.20578 -0.593078,0.0962 c -0.326194,0.0529 -0.890695,0.23747 -1.254449,0.41008 l -0.661369,0.31385 -0.422659,0.57002 c -0.232462,0.31351 -0.51655,0.85045 -0.631306,1.1932 l -0.208649,0.62318 v 1.16429 1.16429 h 3.574935 3.574935 z m 6.326128,12.80114 -0.455542,-0.45555 v -0.45335 -0.45335 l 0.483049,-0.37996 0.483048,-0.37997 h 7.958464 7.958464 l 0.449992,0.44999 0.449992,0.44999 v 0.35468 0.35469 l -0.350343,0.4328 -0.350342,0.4328 -8.08562,0.0514 -8.085621,0.0514 z m 0.02751,-7.0854 -0.483049,-0.37996 v -0.42471 -0.42471 l 0.350462,-0.4328 0.350463,-0.43281 h 11.180079 11.18008 l 0.385907,0.34925 0.385907,0.34924 v 0.50827 0.50827 l -0.483048,0.37996 -0.483049,0.37997 H 47.932328 36.981976 Z"
       id="path56"
       sodipodi:nodetypes="ccccccccccsscssccccscccccccccccssccscccccccsscsscccsscccccccccsscccccccccccccsscccccccccccccccccsscccccsscccccccccccssccccccccccccccccccccsscsscccsscccccccsscccccscccccccccssscssscccssccsscccccccccssssscccccccssssccccccccccssccccccccccccsscccccccccccsscsscccccsccccccccccssscccsscccccccccccccccccccccccccccccccsccccccccccsscsscccccccccccccccccccccccccccccccccccccccc" /><path
       style="fill:#f87400"
       d="m 45.088517,206.27207 -0.284665,-0.31455 -0.309283,-1.60433 -0.309283,-1.60433 -0.280606,-0.0953 c -0.154334,-0.0524 -0.884954,-0.3316 -1.623601,-0.62047 -1.684638,-0.6588 -1.392648,-0.72505 -2.937626,0.66645 l -1.323086,1.19164 H 37.63774 37.255114 l -1.714306,-1.30556 -1.714305,-1.30556 -0.109427,-0.34478 -0.109428,-0.34477 0.665808,-1.51211 c 0.366195,-0.83166 0.704004,-1.59797 0.750688,-1.70291 l 0.08488,-0.19082 -0.841463,-1.08363 c -0.462805,-0.59601 -0.898126,-1.18232 -0.96738,-1.30293 l -0.125917,-0.21928 -1.008314,0.16183 c -0.554574,0.089 -1.402096,0.17622 -1.883383,0.19382 l -0.875068,0.032 -0.226994,-0.31044 c -0.124847,-0.17074 -0.50632,-1.11987 -0.847719,-2.10919 l -0.620725,-1.79876 0.118024,-0.47025 0.118025,-0.47025 1.455797,-0.8397 1.455797,-0.8397 0.0573,-2.04732 0.0573,-2.04732 -1.495294,-0.96411 -1.495293,-0.96411 -0.107628,-0.33911 -0.107628,-0.3391 0.652047,-1.83023 c 0.358626,-1.00662 0.772473,-2.01584 0.91966,-2.24271 l 0.267613,-0.4125 0.591596,2.2e-4 c 0.325378,1.2e-4 1.210335,0.12113 1.966572,0.26892 l 1.374974,0.26871 0.938025,-1.04296 0.938025,-1.04296 -0.641284,-1.788 -0.641284,-1.788 0.280449,-0.42802 0.280448,-0.42802 1.679602,-1.13486 c 2.051775,-1.38634 1.723443,-1.40872 3.581168,0.2441 l 1.549925,1.37898 1.242368,-0.38531 c 0.683302,-0.21193 1.330051,-0.41146 1.43722,-0.44341 l 0.194853,-0.0581 0.343606,-1.50444 0.343606,-1.50444 0.357562,-0.45457 0.357562,-0.45456 2.199579,0.0923 2.19958,0.0923 0.249406,0.2494 0.249406,0.24941 0.358663,1.64127 0.358663,1.64127 0.14626,0.0529 c 0.08044,0.0291 0.824124,0.28217 1.652624,0.56242 l 1.506364,0.50955 1.457178,-1.24699 1.457178,-1.24699 h 0.428805 0.428805 l 1.69506,1.19888 1.695061,1.19888 v 0.45374 0.45375 l -0.632745,1.56918 -0.632745,1.56918 0.8431,1.04062 c 1.044493,1.28919 0.848677,1.23086 2.895081,0.8624 l 1.714552,-0.30871 0.365502,0.19561 0.365502,0.19561 0.670916,2.01347 0.670917,2.01346 -0.05926,0.41768 -0.05926,0.41768 -1.512472,0.90156 -1.512472,0.90156 v 1.78756 c 0,0.98316 -0.04631,1.90825 -0.102919,2.05577 l -0.102919,0.2682 1.570905,0.98427 1.570905,0.98427 0.103461,0.32331 0.103461,0.32331 -0.656465,1.84598 c -0.361056,1.0153 -0.741116,2.00416 -0.844578,2.19748 l -0.188112,0.35149 -0.681037,-2.1e-4 c -0.374571,-1.2e-4 -1.299776,-0.12008 -2.056012,-0.26657 l -1.374975,-0.26635 -0.36666,0.49187 c -0.201663,0.27054 -0.659968,0.86219 -1.018456,1.31479 l -0.651795,0.82291 0.697873,1.77775 0.697874,1.77776 -0.109791,0.28611 -0.109791,0.28612 -1.803785,1.28783 -1.803785,1.28783 h -0.294483 -0.294484 l -0.954628,-0.8641 c -0.525046,-0.47525 -1.167806,-1.05506 -1.428357,-1.28846 l -0.473728,-0.42435 -1.575187,0.5093 -1.575186,0.50931 -0.407457,1.63138 -0.407457,1.63139 -0.326176,0.32618 -0.326175,0.32617 -2.209458,-0.014 -2.209458,-0.014 z m 5.499704,-7.4442 c 4.563862,-2.57111 7.508919,-6.00852 8.620259,-10.06138 l 0.301627,-1.09998 0.10252,-3.36509 0.10252,-3.36509 -0.219764,-0.98201 -0.219764,-0.98201 -0.500875,-0.53619 -0.500874,-0.53619 -1.091679,-0.21081 c -1.652501,-0.31911 -4.429855,-1.21251 -6.613709,-2.12747 l -1.956996,-0.81991 h -0.707921 -0.707922 l -1.957382,0.83605 -1.957383,0.83605 -2.211692,0.64171 c -1.216431,0.35294 -2.580961,0.78303 -3.032291,0.95575 l -0.820598,0.31403 -0.416879,0.61861 -0.416879,0.61861 0.0032,3.77698 0.0032,3.77699 0.267175,1.28331 0.267175,1.28331 0.923791,1.86959 0.923791,1.8696 1.459166,1.54151 1.459166,1.54151 1.334112,0.917 c 0.733761,0.50436 1.994099,1.25784 2.800751,1.67441 l 1.46664,0.75741 0.734549,0.002 0.734548,0.002 z m -4.125442,-1.49821 c -0.653805,-0.38225 -1.688628,-1.03464 -2.299608,-1.44975 l -1.110873,-0.75475 -1.376578,-1.46331 -1.376578,-1.46331 -0.669786,-1.2746 -0.669786,-1.27461 -0.280201,-1.07576 -0.2802,-1.07576 v -3.8006 -3.80059 l 0.190633,-0.11782 c 0.104848,-0.0648 0.82671,-0.26974 1.604138,-0.45543 1.533215,-0.3662 4.070607,-1.25507 6.311695,-2.21104 l 1.414921,-0.60355 2.343343,0.93413 c 2.653502,1.05776 5.012347,1.82355 6.152718,1.99745 0.425631,0.0649 0.876999,0.19936 1.003038,0.29877 l 0.229162,0.18075 -0.0022,3.59832 -0.0022,3.59832 -0.251937,0.94622 c -0.995399,3.73852 -4.255844,7.41315 -8.490415,9.56896 -1.010762,0.51458 -1.051104,0.50959 -2.439335,-0.30204 z m 2.738036,-0.0643 c 0.562726,-0.31677 1.502937,-0.90102 2.089358,-1.29834 l 1.066219,-0.72241 1.347061,-1.34706 1.347061,-1.34706 0.767,-1.29105 0.767,-1.29105 0.440487,-1.3871 0.440486,-1.38711 v -3.5455 -3.5455 l -0.229162,-0.18505 c -0.126039,-0.10178 -0.600406,-0.2459 -1.054148,-0.32027 -1.122581,-0.184 -4.74944,-1.39527 -6.555586,-2.18938 -1.817184,-0.79897 -1.527307,-0.81153 -3.767012,0.16316 -2.176566,0.9472 -5.018047,1.90184 -6.129274,2.05921 l -0.777159,0.11006 -0.200673,0.2418 -0.200672,0.2418 0.06431,4.08764 0.06431,4.08765 0.593506,1.37497 0.593505,1.37498 0.921588,1.22565 c 1.479375,1.96748 3.439317,3.55963 6.133537,4.98255 1.132913,0.59833 1.044463,0.60192 2.27826,-0.0926 z m -5.184783,-7.48779 -2.133593,-2.19717 v -0.63422 -0.63423 l 0.412492,-0.46875 0.412493,-0.46874 0.618403,-0.1189 0.618404,-0.1189 1.403566,1.49102 1.403565,1.49102 2.744459,-2.74904 c 1.509453,-1.51198 2.882844,-2.79297 3.051981,-2.84665 l 0.307521,-0.0976 0.62353,0.26052 0.62353,0.26053 0.24914,0.60148 0.24914,0.60148 -0.355055,0.60866 -0.355055,0.60866 -3.289033,3.30399 -3.289033,3.304 h -0.581431 -0.581431 z m 5.483644,-0.23196 c 1.211925,-1.23519 2.798783,-2.87636 3.526351,-3.64706 l 1.322851,-1.40127 v -0.37597 -0.37598 l -0.412493,-0.46165 -0.412492,-0.46164 -0.536232,-0.12649 -0.536231,-0.1265 -2.810199,2.91538 -2.810199,2.91537 -1.479453,-1.51248 -1.479453,-1.51247 h -0.270628 c -0.148845,0 -0.504029,0.1207 -0.789297,0.26822 l -0.51867,0.26821 -0.113881,0.29677 c -0.06264,0.16322 -0.113881,0.50461 -0.113881,0.75864 v 0.46187 l 2.04153,2.18142 2.04153,2.18142 h 0.573673 0.573673 z m 16.673986,-14.43724 -1.09998,-0.0917 -0.0065,-13.10809 -0.0065,-13.1081 -0.384166,-0.84487 -0.384166,-0.84487 -0.663069,-0.50574 c -0.364688,-0.27816 -0.972606,-0.61621 -1.350929,-0.75122 l -0.68786,-0.24548 -14.803896,-0.008 c -8.142143,-0.004 -14.803855,0.0126 -14.803804,0.0378 5.1e-5,0.0252 0.165048,0.47984 0.36666,1.01029 l 0.366567,0.96444 v 11.63949 11.63948 h -0.156966 c -0.08633,0 -0.544041,0.29556 -1.017132,0.65679 l -0.860166,0.65678 -0.266178,-0.2209 -0.266177,-0.22091 v -8.86905 -8.86906 h -4.652467 -4.652467 l -0.222365,-0.26793 -0.222365,-0.26794 0.06507,-2.80284 0.06507,-2.80284 0.396877,-0.86481 0.396877,-0.86481 0.840827,-0.89891 0.840827,-0.89892 1.142937,-0.5279 1.142936,-0.5279 h 18.699659 18.699658 l 0.885392,0.40863 c 0.486966,0.22475 1.200386,0.65811 1.585377,0.96303 l 0.699984,0.55439 0.552361,0.87028 c 0.303799,0.47865 0.645809,1.20026 0.760023,1.60359 l 0.207662,0.73332 -0.05378,13.38309 -0.05377,13.38308 z M 30.14932,150.07794 v -1.38087 l -0.247687,-0.5928 -0.247687,-0.59279 -0.665924,-0.58469 -0.665923,-0.58469 -0.718113,-0.21515 -0.718114,-0.21515 -0.828099,0.12418 -0.828099,0.12418 -0.762479,0.55233 -0.76248,0.55234 -0.348606,0.76784 -0.348606,0.76784 -0.004,1.32915 -0.004,1.32914 h 3.574935 3.574935 z m 6.316551,12.84732 -0.449992,-0.45 v -0.38332 -0.38333 l 0.449992,-0.44999 0.449992,-0.44999 h 7.787923 7.787922 l 0.459113,0.17455 0.459113,0.17456 0.198914,0.37167 0.198914,0.37168 -0.117583,0.46848 -0.117583,0.46849 -0.519405,0.26859 -0.519405,0.2686 h -7.808962 -7.808961 z m 0,-7.14987 -0.449992,-0.44999 v -0.33996 c 0,-0.18697 0.105332,-0.484 0.234072,-0.66006 l 0.234071,-0.32012 0.728411,-0.16887 0.728411,-0.16888 10.19329,-0.004 10.193289,-0.004 0.581217,0.20261 0.581217,0.20261 0.17946,0.33533 c 0.0987,0.18443 0.17946,0.49976 0.17946,0.70073 v 0.3654 l -0.483048,0.37997 -0.483049,0.37997 H 47.899271 36.915863 Z"
       id="path55"
       sodipodi:nodetypes="ccccssscccccccsscsscsscsscccccccccccsscsscccccccsscsscccccccccccsscccccccccccsscccccccccsscccccsscsscsscccccccccsscccccccccccscccccccsscccccsscccccccccccsscccccscccccccccssscssscccssccsscccccccccssssscccccccssssccccccccccssccccccccccccsscccccccccccsscsscccccsccccccsscssscccsscccccccccccccccccccsscssccccccccccccccccccccccccccccccccccccccccccccsscccccccsscccccc" /><path
       style="fill:#3c688c"
       d="m 45.088517,206.27207 -0.284665,-0.31455 -0.309283,-1.60433 -0.309283,-1.60433 -0.280606,-0.0953 c -0.154334,-0.0524 -0.884954,-0.3316 -1.623601,-0.62047 -1.684638,-0.6588 -1.392648,-0.72505 -2.937626,0.66645 l -1.323086,1.19164 H 37.63774 37.255114 l -1.714306,-1.30556 -1.714305,-1.30556 -0.109427,-0.34478 -0.109428,-0.34477 0.665808,-1.51211 c 0.366195,-0.83166 0.704004,-1.59797 0.750688,-1.70291 l 0.08488,-0.19082 -0.841463,-1.08363 c -0.462805,-0.59601 -0.898126,-1.18232 -0.96738,-1.30293 l -0.125917,-0.21928 -1.008314,0.16183 c -0.554574,0.089 -1.402096,0.17622 -1.883383,0.19382 l -0.875068,0.032 -0.226994,-0.31044 c -0.124847,-0.17074 -0.50632,-1.11987 -0.847719,-2.10919 l -0.620725,-1.79876 0.118024,-0.47025 0.118025,-0.47025 1.455797,-0.8397 1.455797,-0.8397 0.0573,-2.04732 0.0573,-2.04732 -1.495294,-0.96411 -1.495293,-0.96411 -0.107628,-0.33911 -0.107628,-0.3391 0.652047,-1.83023 c 0.358626,-1.00662 0.772473,-2.01584 0.91966,-2.24271 l 0.267613,-0.4125 0.591596,2.2e-4 c 0.325378,1.2e-4 1.210335,0.12113 1.966572,0.26892 l 1.374974,0.26871 0.938025,-1.04296 0.938025,-1.04296 -0.641284,-1.788 -0.641284,-1.788 0.280449,-0.42802 0.280448,-0.42802 1.679602,-1.13486 c 2.051775,-1.38634 1.723443,-1.40872 3.581168,0.2441 l 1.549925,1.37898 1.242368,-0.38531 c 0.683302,-0.21193 1.330051,-0.41146 1.43722,-0.44341 l 0.194853,-0.0581 0.343606,-1.50444 0.343606,-1.50444 0.357562,-0.45457 0.357562,-0.45456 2.199579,0.0923 2.19958,0.0923 0.249406,0.2494 0.249406,0.24941 0.358663,1.64127 0.358663,1.64127 0.14626,0.0529 c 0.08044,0.0291 0.824124,0.28217 1.652624,0.56242 l 1.506364,0.50955 1.457178,-1.24699 1.457178,-1.24699 h 0.428805 0.428805 l 1.69506,1.19888 1.695061,1.19888 v 0.45374 0.45375 l -0.632745,1.56918 -0.632745,1.56918 0.8431,1.04062 c 1.044493,1.28919 0.848677,1.23086 2.895081,0.8624 l 1.714552,-0.30871 0.365502,0.19561 0.365502,0.19561 0.670916,2.01347 0.670917,2.01346 -0.05926,0.41768 -0.05926,0.41768 -1.512472,0.90156 -1.512472,0.90156 v 1.78756 c 0,0.98316 -0.04631,1.90825 -0.102919,2.05577 l -0.102919,0.2682 1.570905,0.98427 1.570905,0.98427 0.103461,0.32331 0.103461,0.32331 -0.656465,1.84598 c -0.361056,1.0153 -0.741116,2.00416 -0.844578,2.19748 l -0.188112,0.35149 -0.681037,-2.1e-4 c -0.374571,-1.2e-4 -1.299776,-0.12008 -2.056012,-0.26657 l -1.374975,-0.26635 -0.36666,0.49187 c -0.201663,0.27054 -0.659968,0.86219 -1.018456,1.31479 l -0.651795,0.82291 0.697873,1.77775 0.697874,1.77776 -0.109791,0.28611 -0.109791,0.28612 -1.803785,1.28783 -1.803785,1.28783 h -0.294483 -0.294484 l -0.954628,-0.8641 c -0.525046,-0.47525 -1.167806,-1.05506 -1.428357,-1.28846 l -0.473728,-0.42435 -1.575187,0.5093 -1.575186,0.50931 -0.407457,1.63138 -0.407457,1.63139 -0.326176,0.32618 -0.326175,0.32617 -2.209458,-0.014 -2.209458,-0.014 z m 5.499704,-7.4442 c 4.563862,-2.57111 7.508919,-6.00852 8.620259,-10.06138 l 0.301627,-1.09998 0.10252,-3.36509 0.10252,-3.36509 -0.219764,-0.98201 -0.219764,-0.98201 -0.500875,-0.53619 -0.500874,-0.53619 -1.091679,-0.21081 c -1.652501,-0.31911 -4.429855,-1.21251 -6.613709,-2.12747 l -1.956996,-0.81991 h -0.707921 -0.707922 l -1.957382,0.83605 -1.957383,0.83605 -2.211692,0.64171 c -1.216431,0.35294 -2.580961,0.78303 -3.032291,0.95575 l -0.820598,0.31403 -0.416879,0.61861 -0.416879,0.61861 0.0032,3.77698 0.0032,3.77699 0.267175,1.28331 0.267175,1.28331 0.923791,1.86959 0.923791,1.8696 1.459166,1.54151 1.459166,1.54151 1.334112,0.917 c 0.733761,0.50436 1.994099,1.25784 2.800751,1.67441 l 1.46664,0.75741 0.734549,0.002 0.734548,0.002 z m 15.585441,-23.71947 -1.09998,-0.0917 -0.0065,-13.10809 -0.0065,-13.1081 -0.384166,-0.84487 -0.384166,-0.84487 -0.663069,-0.50574 c -0.364688,-0.27816 -0.972606,-0.61621 -1.350929,-0.75122 l -0.68786,-0.24548 -14.803896,-0.008 c -8.142143,-0.004 -14.803855,0.0126 -14.803804,0.0378 5.1e-5,0.0252 0.165048,0.47984 0.36666,1.01029 l 0.366567,0.96444 v 11.63949 11.63948 h -0.156966 c -0.08633,0 -0.544041,0.29556 -1.017132,0.65679 l -0.860166,0.65678 -0.266178,-0.2209 -0.266177,-0.22091 v -8.86905 -8.86906 h -4.652467 -4.652467 l -0.222365,-0.26793 -0.222365,-0.26794 0.06507,-2.80284 0.06507,-2.80284 0.396877,-0.86481 0.396877,-0.86481 0.840827,-0.89891 0.840827,-0.89892 1.142937,-0.5279 1.142936,-0.5279 h 18.699659 18.699658 l 0.885392,0.40863 c 0.486966,0.22475 1.200386,0.65811 1.585377,0.96303 l 0.699984,0.55439 0.552361,0.87028 c 0.303799,0.47865 0.645809,1.20026 0.760023,1.60359 l 0.207662,0.73332 -0.05378,13.38309 -0.05377,13.38308 z M 30.14932,150.07794 v -1.38087 l -0.247687,-0.5928 -0.247687,-0.59279 -0.665924,-0.58469 -0.665923,-0.58469 -0.718113,-0.21515 -0.718114,-0.21515 -0.828099,0.12418 -0.828099,0.12418 -0.762479,0.55233 -0.76248,0.55234 -0.348606,0.76784 -0.348606,0.76784 -0.004,1.32915 -0.004,1.32914 h 3.574935 3.574935 z m 6.316551,12.84732 -0.449992,-0.45 v -0.38332 -0.38333 l 0.449992,-0.44999 0.449992,-0.44999 h 7.787923 7.787922 l 0.459113,0.17455 0.459113,0.17456 0.198914,0.37167 0.198914,0.37168 -0.117583,0.46848 -0.117583,0.46849 -0.519405,0.26859 -0.519405,0.2686 h -7.808962 -7.808961 z m 0,-7.14987 -0.449992,-0.44999 v -0.33996 c 0,-0.18697 0.105332,-0.484 0.234072,-0.66006 l 0.234071,-0.32012 0.728411,-0.16887 0.728411,-0.16888 10.19329,-0.004 10.193289,-0.004 0.581217,0.20261 0.581217,0.20261 0.17946,0.33533 c 0.0987,0.18443 0.17946,0.49976 0.17946,0.70073 v 0.3654 l -0.483048,0.37997 -0.483049,0.37997 H 47.899271 36.915863 Z"
       id="path54"
       sodipodi:nodetypes="ccccssscccccccsscsscsscsscccccccccccsscsscccccccsscsscccccccccccsscccccccccccsscccccccccsscccccsscsscsscccccccccsscccccccccccscccccccsscccccsscccccccccccssccccccccccsscssscccsscccccccccccccccccccsscssccccccccccccccccccccccccccccccccccccccccccccsscccccccsscccccc" /><path
       style="fill:#15456a"
       d="m 44.839328,205.67722 c -0.102972,-0.32692 -0.286318,-1.11728 -0.407435,-1.75634 l -0.220213,-1.16194 -0.293803,-0.10032 c -0.161592,-0.0552 -0.898151,-0.33667 -1.636798,-0.62554 -1.684638,-0.6588 -1.392648,-0.72505 -2.937626,0.66645 l -1.323086,1.19164 h -0.375569 -0.375569 l -1.680822,-1.29624 -1.680823,-1.29624 -0.1567,-0.33398 -0.1567,-0.33398 0.766235,-1.74714 0.766236,-1.74714 -0.822345,-1.00961 c -0.45229,-0.55529 -0.891577,-1.12828 -0.976195,-1.2733 l -0.153851,-0.26367 -1.008314,0.14568 c -0.554574,0.0801 -1.432032,0.15171 -1.949909,0.15907 l -0.941593,0.0134 -0.273731,-0.59582 c -0.150552,-0.3277 -0.497957,-1.28015 -0.772012,-2.11655 l -0.498282,-1.52072 0.102009,-0.40644 0.102009,-0.40643 1.519932,-0.89701 1.519932,-0.897 v -2.04857 -2.04857 l -1.435068,-0.879 -1.435068,-0.879 -0.178089,-0.39086 -0.178088,-0.39086 0.788614,-2.08756 0.788613,-2.08755 0.312487,-0.19711 0.312487,-0.19711 1.864935,0.32172 c 1.025713,0.17695 1.877491,0.29804 1.89284,0.26908 0.01535,-0.029 0.41211,-0.51364 0.881692,-1.07707 l 0.853786,-1.02442 -0.656539,-1.7637 -0.656539,-1.7637 0.275474,-0.42043 0.275474,-0.42042 1.692514,-1.14554 c 2.063044,-1.39633 1.712355,-1.41973 3.576325,0.23866 l 1.555792,1.38421 1.420744,-0.44793 1.420743,-0.44794 0.399532,-1.5895 0.399532,-1.5895 0.329413,-0.364 0.329412,-0.36399 2.209315,0.12184 2.209315,0.12184 0.219902,0.2079 0.219902,0.20789 0.359065,1.61784 c 0.429372,1.93462 0.170318,1.65321 2.101233,2.28255 l 1.598426,0.52098 1.475382,-1.2482 1.475382,-1.2482 h 0.369993 0.369993 l 1.63954,1.13428 1.639541,1.13429 0.11123,0.44317 0.11123,0.44318 -0.653864,1.64214 -0.653864,1.64213 0.858344,1.08491 0.858344,1.08491 0.396365,0.004 c 0.218001,0.002 1.041103,-0.11962 1.829116,-0.27039 l 1.432751,-0.27413 0.315256,0.10006 0.315256,0.10006 0.55688,1.44404 c 0.306284,0.79422 0.654376,1.80856 0.773538,2.25409 l 0.216657,0.81006 -0.11231,0.29268 -0.11231,0.29267 -1.460417,0.84237 -1.460417,0.84237 -0.07286,2.05567 -0.07286,2.05567 0.285986,0.24116 c 0.157293,0.13264 0.816974,0.58638 1.465958,1.00832 0.648984,0.42193 1.26026,0.90036 1.358391,1.06317 l 0.17842,0.29602 -0.79759,2.1523 -0.79759,2.15229 -0.269388,0.10337 -0.269388,0.10337 -1.574723,-0.22491 c -0.866098,-0.1237 -1.707858,-0.24073 -1.870579,-0.26006 l -0.295857,-0.0352 -1.0074,1.29841 -1.007401,1.2984 0.609329,1.45154 0.609329,1.45155 0.0064,0.58473 0.0064,0.58473 -1.868488,1.2944 c -1.027668,0.71192 -1.981339,1.2944 -2.119269,1.2944 h -0.250781 l -0.951557,-0.87082 c -0.523356,-0.47895 -1.169968,-1.06289 -1.436916,-1.29765 l -0.48536,-0.42684 -1.531222,0.51183 c -1.803844,0.60295 -1.681639,0.46907 -2.070331,2.26805 l -0.308022,1.42561 z m 4.65402,-6.20595 c 0.401833,-0.21266 1.387033,-0.76952 2.189335,-1.23748 l 1.458729,-0.85083 1.861906,-1.8333 1.861906,-1.8333 0.770249,-1.31383 c 0.961542,-1.64011 1.441634,-2.89028 1.772137,-4.61469 l 0.257837,-1.34527 -10e-4,-3.05465 -0.001,-3.05465 -0.19959,-0.71887 -0.199591,-0.71888 -0.498507,-0.4985 -0.498507,-0.49851 -1.088347,-0.21497 c -1.736885,-0.34306 -4.539381,-1.24595 -6.602325,-2.12708 l -1.907522,-0.81476 -0.780835,0.004 -0.780835,0.004 -0.824985,0.37596 c -1.79125,0.81632 -4.23157,1.68665 -6.400604,2.28275 l -2.27568,0.62541 -0.413697,0.38865 c -0.227533,0.21376 -0.509668,0.62035 -0.626967,0.90353 l -0.21327,0.51488 0.06641,4.18776 0.06641,4.18776 0.509373,1.46664 0.509374,1.46664 0.74371,1.25901 0.74371,1.25901 1.307362,1.37631 1.307362,1.37632 1.124527,0.80244 c 0.61849,0.44135 1.856328,1.21133 2.75075,1.71108 l 1.626222,0.90864 0.8277,0.008 0.8277,0.008 z m 17.660256,-24.26874 c -0.06602,-0.0662 -0.561012,-0.12035 -1.09998,-0.12033 l -0.979942,2e-5 0.04832,-12.76455 0.04832,-12.76454 -0.27906,-0.95994 -0.279061,-0.95994 -0.479809,-0.57022 -0.47981,-0.57022 -0.756091,-0.40445 -0.756091,-0.40446 -15.100096,-0.05 -15.100096,-0.05 0.134906,0.32498 c 0.0742,0.17873 0.248738,0.6887 0.387865,1.13326 l 0.252958,0.80829 v 11.52065 11.52064 H 32.54665 c -0.09311,0 -0.553532,0.2933 -1.023164,0.65178 l -0.853877,0.65178 -0.260146,-0.2159 -0.260145,-0.2159 v -8.86905 -8.86906 h -4.54821 -4.54821 l -0.327166,-0.23923 -0.327166,-0.23923 0.06572,-2.83154 0.06572,-2.83155 0.534786,-1.06157 0.534786,-1.06157 0.805327,-0.74232 0.805326,-0.74233 1.040425,-0.48773 1.040424,-0.48773 h 18.699659 18.699658 l 1.051946,0.51643 1.051947,0.51643 0.801926,0.80193 0.801926,0.80192 0.437752,0.88161 0.437753,0.8816 0.05088,10.63314 c 0.02799,5.84822 0.02799,12.06324 0,13.81116 l -0.05088,3.17804 z M 30.14932,150.03092 v -1.42787 l -0.350219,-0.68694 -0.350218,-0.68693 -0.507997,-0.40598 c -0.686689,-0.54878 -1.485349,-0.83441 -2.366501,-0.84633 l -0.73332,-0.01 -0.73332,0.33845 c -0.887496,0.40961 -1.446033,0.98999 -1.82455,1.89591 l -0.283745,0.67909 v 1.2892 1.2892 h 3.574935 3.574935 z m 6.657696,13.15972 -0.400508,-0.16137 -0.195314,-0.36495 c -0.107423,-0.20072 -0.195315,-0.49787 -0.195315,-0.66033 v -0.29538 l 0.449992,-0.44999 0.449992,-0.44999 h 7.808961 7.808962 l 0.517584,0.26765 0.517584,0.26765 0.102629,0.39246 0.102629,0.39245 -0.196262,0.43075 -0.196261,0.43075 -0.552078,0.19245 -0.552077,0.19246 -7.535005,-0.0116 -7.535005,-0.0116 z m -0.336978,-7.41109 -0.454159,-0.45415 v -0.34043 -0.34042 l 0.373802,-0.40123 0.373801,-0.40123 H 47.93947 59.115457 l 0.36666,0.36666 0.36666,0.36666 v 0.34635 0.34635 l -0.350391,0.4328 -0.350392,0.4328 -11.111899,0.05 -11.111899,0.05 z"
       id="path53"
       sodipodi:nodetypes="sscssscccccccccsscsscsscccccccccccccccssscccccsscccccccccccssccccccccccccccscccsscccccccssscccccsccccccccsscsscsscscscccsscccccccsscccsscsscccccccccssccccsscccccccccccsscccsscccccccccccccccccccccccccsscsccccsscssccccccccssccccccccccccccccccccccccccccccccc" /><path
       style="fill:#072b55"
       d="m 45.372642,206.42464 -0.336762,-0.12478 -0.191887,-0.60854 c -0.105538,-0.3347 -0.290994,-1.13147 -0.412126,-1.77061 l -0.220239,-1.16207 -0.385442,-0.14337 c -0.211993,-0.0788 -0.977358,-0.39197 -1.70081,-0.69583 l -1.315368,-0.55246 -1.413349,1.26208 -1.413349,1.26207 h -0.326033 -0.326032 l -1.71183,-1.29582 -1.711831,-1.29581 -0.139116,-0.3745 -0.139116,-0.3745 0.748652,-1.70704 0.748651,-1.70705 -0.822345,-1.00961 c -0.45229,-0.55529 -0.891577,-1.12913 -0.976195,-1.2752 l -0.153851,-0.26558 -1.810365,0.19853 -1.810366,0.19853 -0.329572,-0.40701 -0.329572,-0.407 -0.58201,-1.74699 -0.582011,-1.74699 0.102037,-0.40655 0.102036,-0.40654 1.519932,-0.89726 1.519932,-0.89726 v -2.04844 -2.04845 l -1.435068,-0.87887 -1.435068,-0.87887 -0.178089,-0.39086 -0.178088,-0.39086 0.788614,-2.08756 0.788613,-2.08755 0.31094,-0.19613 0.310939,-0.19614 1.338588,0.2354 c 0.736224,0.12946 1.586084,0.27016 1.888578,0.31266 l 0.54999,0.0773 0.859884,-1.07838 0.859884,-1.07837 -0.545612,-1.44115 c -0.300087,-0.79263 -0.555135,-1.66515 -0.566775,-1.93895 l -0.02116,-0.4978 0.199608,-0.24052 c 0.109784,-0.13228 0.89464,-0.71263 1.744123,-1.28965 l 1.544516,-1.04915 h 0.408356 0.408356 l 1.43504,1.29576 1.43504,1.29577 1.435941,-0.45225 1.435941,-0.45226 0.41284,-1.62266 0.412839,-1.62267 0.377575,-0.3135 0.377575,-0.3135 2.142865,0.10928 2.142866,0.10929 0.202759,0.15892 0.202759,0.15892 0.323445,1.51193 c 0.177894,0.83157 0.398925,1.65631 0.491179,1.83277 l 0.167733,0.32082 0.314378,0.005 c 0.172907,0.003 0.87113,0.19447 1.551606,0.42636 l 1.237229,0.42164 1.479102,-1.25135 1.479102,-1.25135 h 0.364104 0.364103 l 1.647244,1.14151 1.647243,1.14151 0.104364,0.41582 0.104364,0.41582 -0.662382,1.65495 -0.662381,1.65494 0.73477,0.92956 c 0.404123,0.51125 0.796485,1.03772 0.871914,1.16993 l 0.137144,0.24038 1.830348,-0.3477 1.830349,-0.3477 0.306842,0.0974 c 0.33984,0.10786 0.303691,0.033 1.189536,2.46472 l 0.633716,1.73963 -0.05378,0.46033 -0.05378,0.46033 -1.512472,0.89263 -1.512472,0.89263 -0.03274,1.71982 c -0.01801,0.9459 -0.03863,1.90224 -0.04583,2.1252 l -0.0131,0.40539 1.35841,0.84082 1.35841,0.84083 0.257803,0.38827 0.257804,0.38827 -0.77689,2.1282 -0.77689,2.12819 -0.418943,0.10515 -0.418943,0.10515 -1.337031,-0.20946 c -0.735366,-0.1152 -1.503263,-0.2437 -1.706436,-0.28556 l -0.369406,-0.0761 -1.028555,1.32959 -1.028555,1.32959 0.612368,1.45887 0.612368,1.45888 0.0064,0.56677 0.0064,0.56678 -1.768262,1.24482 c -0.972544,0.68465 -1.909507,1.28175 -2.082138,1.32689 l -0.313876,0.0821 -1.080777,-0.97702 c -0.594427,-0.53736 -1.258797,-1.1275 -1.476377,-1.31141 l -0.3956,-0.33438 -1.528892,0.50677 c -0.840891,0.27873 -1.556442,0.5255 -1.590115,0.54838 -0.03367,0.0229 -0.254556,0.80144 -0.490853,1.73011 -0.236296,0.92867 -0.511533,1.7704 -0.611639,1.8705 l -0.182009,0.18201 -2.134403,0.0238 -2.134403,0.0238 z m 4.68231,-0.35673 c 0.0702,-0.11359 0.315636,-0.9454 0.545419,-1.84847 0.229782,-0.90307 0.445336,-1.66384 0.479009,-1.6906 0.139527,-0.11088 3.053432,-1.021 3.268901,-1.021 h 0.23414 l 1.331454,1.19165 1.331454,1.19164 0.339242,-9e-5 0.339241,-8e-5 1.695803,-1.20775 1.695802,-1.20775 v -0.35458 c 0,-0.19502 -0.298495,-1.08442 -0.663322,-1.97643 l -0.663322,-1.62185 0.808108,-0.99213 c 0.444459,-0.54568 0.940827,-1.18163 1.103039,-1.41322 l 0.294932,-0.42107 1.961826,0.30763 1.961826,0.30764 0.1603,-0.1603 c 0.08817,-0.0882 0.401009,-0.81832 0.69521,-1.62255 0.2942,-0.80424 0.611418,-1.6685 0.704927,-1.92058 0.09351,-0.25208 0.141417,-0.58311 0.10646,-0.73563 l -0.06356,-0.27731 -1.576308,-0.98937 -1.576307,-0.98937 0.114729,-1.09767 c 0.0631,-0.60372 0.11473,-1.61603 0.11473,-2.24958 v -1.15191 l 1.353216,-0.747 c 0.744269,-0.41084 1.461904,-0.87795 1.594743,-1.03801 l 0.241527,-0.29102 -0.723926,-2.11209 -0.723925,-2.11209 -0.258406,-0.10185 -0.258406,-0.10185 -1.391564,0.22186 c -0.76536,0.12203 -1.599762,0.2621 -1.854227,0.31129 l -0.462662,0.0894 -0.958145,-1.20216 c -1.137971,-1.42778 -1.107066,-1.11813 -0.309106,-3.09703 l 0.649039,-1.60959 -0.108295,-0.34121 -0.108295,-0.34121 -1.136566,-0.77372 c -0.625112,-0.42554 -1.361536,-0.93905 -1.636499,-1.14112 l -0.499931,-0.36741 -0.416718,0.19684 c -0.229195,0.10827 -1.007025,0.7019 -1.72851,1.31919 l -1.311792,1.12235 -1.378817,-0.46285 c -0.75835,-0.25457 -1.505741,-0.46286 -1.660871,-0.46286 h -0.282051 l -0.165907,-0.32082 c -0.09125,-0.17646 -0.309387,-0.98081 -0.484751,-1.78747 -0.175364,-0.80665 -0.402455,-1.56976 -0.504646,-1.6958 l -0.185802,-0.22916 h -2.264055 -2.264056 l -0.268133,0.96248 c -0.147473,0.52937 -0.376648,1.36234 -0.509279,1.85105 l -0.241146,0.88856 -1.374974,0.43812 c -0.756237,0.24097 -1.485573,0.43923 -1.620749,0.44058 l -0.245773,0.002 -1.392725,-1.28331 -1.392725,-1.2833 H 38.210598 37.90742 l -1.522452,1.05547 c -0.837348,0.58052 -1.610922,1.19573 -1.719052,1.36716 l -0.1966,0.31167 0.199534,0.69531 c 0.109744,0.38242 0.38831,1.20158 0.619037,1.82036 l 0.419503,1.12505 -0.986519,1.12074 -0.986518,1.12074 -0.371709,1.5e-4 c -0.20444,7e-5 -1.057652,-0.13602 -1.896026,-0.30244 l -1.524317,-0.30258 -0.247931,0.25661 c -0.315865,0.32691 -1.56168,3.66294 -1.56168,4.18185 v 0.39124 l 1.541851,0.99466 1.541852,0.99467 -0.02938,2.16366 -0.02938,2.16366 -1.46664,0.86866 -1.46664,0.86867 -0.147143,0.32764 -0.147143,0.32765 0.705966,2.01196 0.705967,2.01197 0.907816,-0.001 c 0.499299,-6.3e-4 1.372223,-0.062 1.939831,-0.1365 l 1.032014,-0.13536 1.091878,1.41981 1.091878,1.41981 -0.692236,1.46664 -0.692235,1.46664 -0.01085,0.47581 -0.01085,0.47582 1.460991,1.11885 c 0.803545,0.61536 1.61313,1.20027 1.799077,1.29978 l 0.338087,0.18094 0.388153,-0.2173 c 0.213484,-0.11951 0.915266,-0.68869 1.559516,-1.26485 l 1.171364,-1.04755 1.777703,0.69923 c 2.148587,0.84511 1.907458,0.59717 2.232394,2.29545 0.148548,0.77639 0.356035,1.57221 0.461081,1.7685 l 0.190994,0.35687 h 2.274355 2.274355 z m -4.242887,-6.69684 c -2.249198,-1.17191 -3.558249,-2.08557 -5.13764,-3.58584 l -1.344772,-1.2774 -0.944686,-1.47268 -0.944687,-1.47269 -0.568271,-1.48969 -0.568271,-1.48969 -0.06619,-4.51959 -0.06619,-4.51958 0.286158,-0.55337 0.286159,-0.55337 0.506923,-0.34851 0.506924,-0.34851 2.383567,-0.66902 c 1.310962,-0.36797 3.208428,-1.00667 4.21659,-1.41934 1.008162,-0.41267 2.193044,-0.87973 2.63307,-1.0379 l 0.800048,-0.28759 0.941587,0.28017 c 0.517873,0.15409 1.84907,0.65723 2.958217,1.11808 l 2.01663,0.83792 2.01663,0.48171 c 1.109146,0.26495 2.264125,0.59977 2.566619,0.74405 l 0.54999,0.26232 0.458325,0.66978 0.458325,0.66978 -0.003,4.32149 -0.003,4.32149 -0.495482,1.46664 -0.495482,1.46664 -0.959915,1.5583 -0.959915,1.55831 -1.474917,1.49016 -1.474917,1.49015 -1.583083,1.02846 c -0.870696,0.56565 -2.108173,1.27686 -2.74995,1.58047 l -1.166867,0.55202 -0.470293,1.5e-4 -0.470293,1.4e-4 z m 4.8341,-0.53731 c 2.30524,-1.32799 3.418715,-2.19597 5.038886,-3.92794 l 1.322111,-1.41335 0.615002,-1.02861 c 0.816839,-1.36619 1.459355,-2.98894 1.777139,-4.48836 l 0.259778,-1.22572 0.0022,-3.20828 0.0022,-3.20827 -0.19959,-0.71887 -0.199591,-0.71888 -0.494955,-0.49495 -0.494955,-0.49496 -1.825219,-0.4131 c -1.898149,-0.4296 -4.147271,-1.19332 -6.500134,-2.20719 l -1.374975,-0.5925 -0.641655,0.007 -0.641655,0.007 -2.474955,0.99702 -2.474954,0.99703 -1.8333,0.50218 c -1.008315,0.2762 -2.09872,0.58348 -2.423123,0.68284 l -0.589823,0.18067 -0.464378,0.55188 c -0.255408,0.30354 -0.513495,0.74758 -0.573527,0.98677 l -0.10915,0.43488 0.0836,4.18007 0.0836,4.18007 0.302919,0.90768 c 0.166605,0.49922 0.592507,1.49376 0.946448,2.21008 l 0.64353,1.30241 0.958282,1.19776 c 0.527056,0.65878 1.523221,1.69776 2.213702,2.30886 l 1.255419,1.11109 2.136185,1.20855 2.136186,1.20854 0.880537,0.002 0.880537,0.002 z m 16.169152,-23.76375 -0.458325,-0.17239 -0.641655,0.10019 -0.641655,0.10018 v -13.2404 -13.24041 l -0.394651,-0.73331 c -0.50709,-0.94225 -1.05402,-1.44429 -2.080304,-1.90956 l -0.824985,-0.37402 -14.915175,-0.004 -14.915176,-0.004 0.133316,0.32083 c 0.07332,0.17645 0.247147,0.68456 0.386274,1.12912 l 0.252958,0.80829 v 11.52065 11.52064 h -0.169287 c -0.09311,0 -0.561053,0.29904 -1.039876,0.66454 l -0.870589,0.66453 -0.246857,-0.33759 -0.246857,-0.3376 0.04926,-8.76016 0.04926,-8.76016 -4.615987,5e-5 -4.615988,4e-5 -0.303994,-0.30399 -0.303995,-0.304 0.06712,-2.76678 0.06712,-2.76678 0.424401,-0.86465 c 0.23342,-0.47556 0.750957,-1.23564 1.150081,-1.68907 l 0.72568,-0.82441 1.224,-0.60256 1.223999,-0.60256 h 18.611821 18.611821 l 1.191645,0.57072 1.191645,0.57073 0.705749,0.71258 0.705749,0.71259 0.485896,0.91665 0.485896,0.91665 0.05088,10.63314 c 0.02799,5.84822 0.02799,12.04513 0,13.77092 l -0.05088,3.13779 z m 0.326851,-16.27801 -0.05186,-10.90813 -0.451654,-0.91666 -0.451654,-0.91665 -0.875372,-0.85685 -0.875372,-0.85685 -1.017309,-0.38063 -1.017308,-0.38062 H 43.990734 25.579824 l -1.061024,0.38947 -1.061025,0.38947 -1.024875,1.04032 -1.024875,1.04033 -0.395932,1.17242 -0.395933,1.17242 v 2.33688 2.33687 l 0.229163,0.14832 0.229162,0.14831 4.674915,0.0917 4.674915,0.0917 0.04758,8.93734 0.04758,8.93733 h 0.156377 c 0.08601,0 0.46781,-0.24749 0.84845,-0.54999 0.380639,-0.30249 0.763227,-0.54999 0.850193,-0.54999 h 0.158121 v -11.23483 -11.23486 l -0.284962,-1.00243 c -0.15673,-0.55134 -0.331611,-1.18945 -0.388625,-1.41803 l -0.103662,-0.41559 15.29865,0.0489 15.298651,0.0489 0.897339,0.55483 0.897339,0.55484 0.554836,0.89728 0.554837,0.89729 0.0505,13.15859 0.0505,13.15859 0.866148,0.0557 0.866149,0.0557 0.05186,-2.56662 c 0.02852,-1.41164 0.02852,-7.47528 0,-13.47475 z m -44.447617,-7.43669 -0.110062,-0.28682 0.09538,-1.18823 0.09538,-1.18824 0.442946,-0.86072 0.442946,-0.86073 0.772906,-0.54322 0.772907,-0.54322 1.157148,-0.0737 1.157148,-0.0737 0.73557,0.37526 0.73557,0.37526 0.568464,0.64745 0.568464,0.64744 0.192308,0.6925 0.192309,0.6925 0.001,1.23748 10e-4,1.23747 h -3.855684 -3.855683 z m 7.454769,-1.41892 v -1.52242 l -0.529198,-0.83445 -0.529197,-0.83446 -0.811994,-0.39308 -0.811995,-0.39308 -0.812935,0.004 -0.812936,0.004 -0.73332,0.33845 c -0.887496,0.4096 -1.446033,0.98999 -1.82455,1.8959 l -0.283745,0.6791 v 1.2892 1.2892 h 3.574935 3.574935 z m 6.643045,13.24883 -0.415159,-0.16679 -0.176126,-0.46324 -0.176126,-0.46325 0.175505,-0.46161 0.175505,-0.46162 0.473547,-0.18004 0.473548,-0.18004 h 7.587633 7.587633 l 0.471347,0.21476 0.471347,0.21476 0.107144,0.4269 0.107144,0.42689 -0.110435,0.44 -0.110434,0.44001 -0.578452,0.20165 -0.578452,0.20165 -7.535005,-0.0116 -7.535005,-0.0116 z m 16.285255,-0.36641 0.354608,-0.18978 v -0.53709 -0.53709 l -0.354608,-0.18978 -0.354607,-0.18978 h -7.950241 -7.950241 l -0.219996,0.22 -0.219996,0.21999 v 0.47666 0.47666 l 0.219996,0.21999 0.219996,0.22 h 7.950241 7.950241 z m -16.384417,-6.7948 -0.330991,-0.19489 -0.173193,-0.45553 -0.173192,-0.45553 0.210801,-0.40049 c 0.115941,-0.22027 0.301574,-0.4611 0.412519,-0.53518 l 0.201717,-0.13469 11.137297,-0.003 11.137296,-0.003 0.36666,0.36666 0.36666,0.36666 v 0.34635 0.34635 l -0.350391,0.43281 -0.350392,0.4328 -11.0619,0.0426 -11.0619,0.0426 z m 22.485878,-0.32524 0.303036,-0.25161 v -0.52109 -0.52109 L 59.12751,154.2152 58.772902,154.02542 H 47.932328 37.091754 l -0.354607,0.18978 -0.354608,0.18978 v 0.52109 0.52109 l 0.229163,0.18605 c 0.436891,0.3547 1.014847,0.37185 11.613412,0.34458 l 10.650931,-0.0274 z"
       id="path52"
       sodipodi:nodetypes="ccssccscccccccccccsscccccccccccccccccccccsscccsscsscccccccccccccccssccscccccccccccsscccsscccccsscccccccccsscccccccsscsscsssscccccssscccccccsscsscccsssscccsscsscccccsscsscccsscsscsscssscccsscsccccccsscsscccsscssccccccccccccccccccccsscsscsssccccsscccccccccccssscsscsscccccccccccsscccscscsscccccccsscccccsscsscccsscssccccccccccccsscccsscccsscccccccccccsscccccccccccssccccccccccccccccccccccccccssscccsscccccccccccssccccccccccccccccccccccccccccccssccccccccccccccccccccccccccccccccccccccccccccccccssccccccccccccccccccccccccsscc" /><path
       style="fill:#ffffff"
       d="m 47.339858,206.49823 -2.150775,-0.0516 -0.17041,-0.31841 c -0.09373,-0.17513 -0.218091,-0.64689 -0.276369,-1.04836 l -0.105958,-0.72994 0.25798,0.88633 c 0.141889,0.48749 0.288254,0.91661 0.325254,0.95361 0.037,0.037 1.076253,0.0803 2.309449,0.0963 l 2.242176,0.029 0.24153,-0.20045 0.24153,-0.20046 0.335766,-1.47011 c 0.18467,-0.80856 0.373316,-1.43256 0.419211,-1.38666 0.09805,0.0981 -0.490684,2.62239 -0.71297,3.05701 l -0.152373,0.29793 -0.326633,0.0687 c -0.179648,0.0378 -1.294482,0.0455 -2.477408,0.0171 z m 9.82773,-2.47509 c -0.518253,-0.29698 -2.699564,-2.33153 -2.499707,-2.33153 0.08612,0 0.479961,0.33118 0.875212,0.73595 0.395251,0.40478 1.029448,0.95135 1.409327,1.2146 l 0.690689,0.47865 0.507011,-0.3314 c 0.278857,-0.18227 1.105126,-0.77334 1.836155,-1.31348 l 1.329142,-0.98208 v -0.46936 -0.46936 l -0.639737,-1.47625 -0.639738,-1.47624 1.038918,-1.3564 c 1.288795,-1.68263 0.944268,-1.55106 3.138567,-1.19864 l 1.869173,0.30019 0.195243,-0.19524 c 0.107383,-0.10739 0.517442,-1.07172 0.911241,-2.14298 l 0.715998,-1.94773 -0.105769,-0.27563 -0.105769,-0.27563 -1.341886,-0.83636 c -0.738036,-0.46 -1.421436,-0.93484 -1.518665,-1.0552 l -0.176779,-0.21883 0.149257,-2.01663 0.149258,-2.01663 -0.05658,2.07521 -0.05658,2.07521 1.508698,0.97328 1.508698,0.97327 0.111961,0.29176 0.11196,0.29177 -0.662576,1.88465 -0.662575,1.88466 -0.330044,0.35374 -0.330044,0.35375 -1.520295,-0.22858 c -0.836162,-0.12571 -1.691847,-0.26969 -1.901522,-0.31994 l -0.381228,-0.0914 -1.032296,1.37153 -1.032296,1.37153 0.634371,1.46386 0.634371,1.46386 v 0.52844 0.52844 l -1.739242,1.23628 c -0.956583,0.67996 -1.843442,1.27269 -1.970797,1.31718 l -0.231556,0.0809 z m -21.078536,-1.07498 c -1.506817,-1.12392 -2.273133,-1.81315 -2.273133,-2.04447 v -0.16934 l 0.320828,0.37945 c 0.457341,0.5409 3.194203,2.59445 3.457747,2.59445 0.12132,0 0.851571,-0.53624 1.62278,-1.19164 1.626754,-1.38249 2.055439,-1.59781 0.63874,-0.32083 -2.220767,2.00174 -2.119183,1.98145 -3.766962,0.75238 z m 11.947054,-2.92611 c 0.05565,-0.09 0.25848,-0.16373 0.450721,-0.16373 h 0.34953 l 1.243788,-0.67532 c 0.684083,-0.37142 1.738779,-1.00413 2.343768,-1.406 l 1.09998,-0.73069 1.63737,-1.5731 1.63737,-1.57311 -0.687676,0.85947 c -1.507187,1.88372 -5.760451,4.84801 -7.581514,5.28391 l -0.594529,0.1423 z m -2.804126,-1.0137 -1.875363,-1.03175 -1.509972,-1.21326 -1.509972,-1.21327 -0.967726,-1.19165 -0.967726,-1.19164 -0.826011,-1.65138 c -0.454306,-0.90826 -0.825004,-1.77449 -0.823773,-1.92496 0.0012,-0.15048 0.27263,0.34515 0.603108,1.10138 0.330477,0.75624 0.963298,1.91122 1.406267,2.56662 l 0.805399,1.19165 1.048736,1.03224 c 1.392517,1.37062 3.022067,2.51471 5.180017,3.63684 0.9757,0.50737 1.670136,0.92213 1.54319,0.9217 -0.126946,-4.3e-4 -1.074724,-0.46506 -2.106174,-1.03252 z m -8.99464,-15.37473 -0.03252,-4.03326 0.13469,-0.21253 0.13469,-0.21254 -0.04838,3.14581 c -0.0785,5.10505 -0.153692,5.62861 -0.188489,1.31252 z m 23.465616,-0.18333 -0.04556,-3.48327 -0.347272,-0.76486 -0.347272,-0.76486 -0.478279,-0.31338 c -0.263053,-0.17236 -0.744333,-0.3766 -1.069509,-0.45385 l -0.591231,-0.14047 0.477046,-0.0188 0.477046,-0.0188 0.622934,0.41276 0.622934,0.41276 0.416655,0.83883 0.416654,0.83883 -0.05429,3.46916 -0.05429,3.46916 z m -22.952692,-4.79223 c 0.361665,-0.57912 1.028533,-0.91049 2.681842,-1.33262 1.728352,-0.44129 4.758909,-1.47651 6.240377,-2.13169 0.568093,-0.25124 1.065737,-0.42395 1.105875,-0.38382 0.209634,0.20964 -5.230399,2.18606 -7.622388,2.7693 l -1.351493,0.32953 -0.649002,0.56984 -0.649003,0.56983 z m 28.501967,-16.56612 v -13.1081 l 0.05054,6.55405 c 0.0278,3.60473 0.0278,9.50337 0,13.10809 l -0.05054,6.55405 z m 1.699368,12.86605 0.227947,-0.14476 0.04827,-13.28135 0.04827,-13.28136 0.04461,13.42893 0.04461,13.42891 -0.320828,-0.003 -0.320827,-0.003 z m -5.248255,-2.72313 -0.02127,-0.39855 -0.504157,-0.39468 c -0.277287,-0.21707 -1.018473,-0.75958 -1.647081,-1.20558 l -1.142922,-0.81091 -0.323717,0.004 -0.323718,0.004 -1.517126,1.26865 -1.517127,1.26867 -0.554694,-0.19337 c -0.305082,-0.10635 -0.520675,-0.22739 -0.479096,-0.26897 0.04158,-0.0416 0.291295,0.006 0.554926,0.10665 l 0.479329,0.18224 1.482703,-1.27709 1.482704,-1.27709 h 0.360906 0.360906 l 1.420838,0.9956 c 0.781461,0.54759 1.569779,1.16019 1.751817,1.36134 l 0.330978,0.36572 -0.08647,0.33447 -0.08647,0.33447 z m -31.248474,-0.182 c -0.06722,-0.0672 -0.120957,-0.21159 -0.119413,-0.32082 l 0.0028,-0.19861 0.156225,0.2465 0.156224,0.2465 0.895116,-0.68321 0.895115,-0.68321 0.09373,-11.47974 0.09373,-11.47974 0.04376,11.47757 0.04376,11.47756 -1.015869,0.75971 c -1.114009,0.83311 -1.071401,0.81129 -1.2452,0.63749 z m 3.94916,-0.60524 0.0802,-0.26914 1.636644,-1.14534 1.636644,-1.14534 0.475744,-0.006 0.475743,-0.006 0.349242,0.3872 c 0.192082,0.21297 0.819482,0.79504 1.394221,1.29351 l 1.04498,0.9063 1.220123,-0.37686 c 0.671068,-0.20727 1.314557,-0.37015 1.429975,-0.36195 0.190335,0.0135 -2.394125,0.89011 -2.648367,0.89827 -0.05955,0.002 -0.74178,-0.57402 -1.516071,-1.27984 l -1.407803,-1.2833 h -0.380979 -0.380979 l -1.494554,1.03669 c -0.822005,0.57018 -1.607145,1.16829 -1.744755,1.32914 l -0.2502,0.29245 z m 10.612908,-8.248 7.809415,-0.0994 0.312299,-0.25938 0.312299,-0.25938 -0.05519,-0.56142 -0.05519,-0.56143 -0.458325,-0.23064 -0.458325,-0.23064 -7.66236,-0.003 -7.66236,-0.003 -0.464653,0.46465 -0.464653,0.46466 0.06212,-0.32255 0.06212,-0.32256 0.456701,-0.23106 0.456701,-0.23106 7.550427,-0.003 7.550427,-0.003 0.512361,0.19479 c 0.6156,0.23406 0.788289,0.47519 0.792011,1.10593 l 0.0028,0.47575 -0.385737,0.34924 -0.385737,0.34924 -7.81828,0.008 -7.81828,0.008 z m -8.266115,-7.21071 -0.456701,-0.23106 -0.06212,-0.32255 -0.06212,-0.32255 0.464653,0.46465 0.464653,0.46465 H 47.823699 58.54821 l 0.471347,-0.21476 0.471346,-0.21476 0.108998,-0.43428 0.108998,-0.43428 -0.325137,-0.35927 -0.325137,-0.35928 H 47.995579 36.932529 l -0.36666,0.36666 c -0.201663,0.20167 -0.36666,0.29695 -0.36666,0.21175 0,-0.0852 0.150869,-0.29145 0.335263,-0.45833 l 0.335263,-0.30341 h 11.11572 11.115719 l 0.373802,0.40123 c 0.393192,0.42204 0.447208,0.6608 0.25992,1.14886 l -0.113881,0.29677 -0.51867,0.26822 -0.518669,0.26821 -10.688076,-0.003 -10.688076,-0.003 z m -16.029903,-2.25158 -0.288089,-0.28809 0.04021,-2.50769 0.04021,-2.50769 0.05651,2.50253 0.05651,2.50254 0.238952,0.19831 0.238952,0.19831 4.568405,0.0524 4.568406,0.0525 -4.615987,0.0425 -4.615988,0.0425 z m 4.07575,-2.23205 c 1.038886,-0.0327 2.688856,-0.0326 3.666599,3e-4 l 1.777716,0.0598 -3.6666,-3e-4 -3.6666,-2.9e-4 z m 5.377616,-2.62304 -0.02497,-0.46826 -0.529198,-0.83446 -0.529197,-0.83446 -0.811994,-0.39308 -0.811995,-0.39308 h -0.772991 -0.772992 l -0.681599,0.28472 c -0.840462,0.35108 -1.591821,1.0525 -1.8846,1.75933 -0.12173,0.29388 -0.257555,0.4981 -0.301833,0.45382 -0.332068,-0.33206 1.160352,-1.96786 2.186433,-2.39648 l 0.681599,-0.28472 h 0.745097 0.745097 l 0.679097,0.28375 c 0.870183,0.36358 1.452963,0.91218 1.904493,1.79279 l 0.359725,0.70156 -0.07761,0.39842 -0.0776,0.39842 z m 34.649661,-0.63089 -0.241098,-0.66674 -0.534852,-0.60917 -0.534852,-0.60916 -0.686371,-0.34118 -0.686372,-0.34119 -15.124724,-0.0943 -15.124723,-0.0943 14.872511,-0.0432 14.872512,-0.0432 0.801519,0.28279 0.801519,0.28279 0.61257,0.58803 c 0.647192,0.62126 1.376833,1.86544 1.274322,2.17298 l -0.06086,0.18259 z M 20.808551,147.5172 c -0.0031,-0.10083 0.234659,-0.60224 0.528332,-1.11424 l 0.533952,-0.93093 0.66107,-0.58042 c 0.363588,-0.31924 0.981199,-0.74375 1.372469,-0.94336 l 0.711399,-0.36293 0.795976,-0.1 0.795976,-0.1 -1.008315,0.28354 -1.008315,0.28353 -0.944381,0.64643 -0.944382,0.64642 -0.457217,0.67763 c -0.251469,0.3727 -0.586305,0.92513 -0.74408,1.22762 -0.157775,0.30249 -0.289393,0.46749 -0.292484,0.36666 z"
       id="path51"
       sodipodi:nodetypes="scccsscssccccssscsscsssscsscccccsscsscccsscccccccccccccsscccccccsssssscssssssscsscccssssscccccsssscssssccccsccccccssccccccccccsssssccssccsscccccccccccccsscccccssccccccssccscsscccccccccsssccccccsscsscscccssccccccccccccccccccccssccccccccccccccccccccccssscccsscccccccccccccccccccsscccsccccccccsssscccssccscccccccccccccssscsscsscccccccss" /><text
       xml:space="preserve"
       style="font-size:33.2442px;line-height:1.25;font-family:sans-serif;-inkscape-font-specification:'sans-serif, Normal';fill:#15456a;fill-opacity:1;stroke:#1a1a1a;stroke-width:0.1;stroke-dasharray:none"
       x="70.558952"
       y="166.09895"
       id="text57"><tspan
         sodipodi:role="line"
         id="tspan57"
         x="70.558952"
         y="166.09895"
         style="font-style:normal;font-variant:normal;font-weight:800;font-stretch:normal;font-size:33.2442px;font-family:Aptos;-inkscape-font-specification:'Aptos, Ultra-Bold';font-variant-ligatures:normal;font-variant-caps:normal;font-variant-numeric:normal;font-variant-east-asian:normal;fill:#15456a;fill-opacity:1;stroke:#1a1a1a;stroke-width:0.1;stroke-dasharray:none">Sphinx </tspan><tspan
         sodipodi:role="line"
         x="70.558952"
         y="208.17531"
         style="font-style:normal;font-variant:normal;font-weight:800;font-stretch:normal;font-size:33.2442px;font-family:Aptos;-inkscape-font-specification:'Aptos, Ultra-Bold';font-variant-ligatures:normal;font-variant-caps:normal;font-variant-numeric:normal;font-variant-east-asian:normal;fill:#15456a;fill-opacity:1;stroke:#1a1a1a;stroke-width:0.1;stroke-dasharray:none"
         id="tspan58" /></text><text
       xml:space="preserve"
       style="font-size:13.4448px;line-height:1.25;font-family:sans-serif;-inkscape-font-specification:'sans-serif, Normal';fill:#fba32b;fill-opacity:1;stroke:#1a1a1a;stroke-width:0.1;stroke-dasharray:none"
       x="94.809349"
       y="188.96581"
       id="text57-6"><tspan
         sodipodi:role="line"
         x="94.809349"
         y="188.96581"
         style="font-style:normal;font-variant:normal;font-weight:bold;font-stretch:normal;font-size:13.4448px;font-family:Aptos;-inkscape-font-specification:'Aptos, Bold';font-variant-ligatures:normal;font-variant-caps:normal;font-variant-numeric:normal;font-variant-east-asian:normal;text-align:center;text-anchor:middle;fill:#fba32b;fill-opacity:1;stroke:#1a1a1a;stroke-width:0.1;stroke-dasharray:none"
         id="tspan60">SAFETY</tspan></text><text
       xml:space="preserve"
       style="font-size:13.4448px;line-height:1.25;font-family:sans-serif;-inkscape-font-specification:'sans-serif, Normal';fill:#fba32b;fill-opacity:1;stroke:#1a1a1a;stroke-width:0.1;stroke-dasharray:none"
       x="122.94673"
       y="206.14615"
       id="text57-6-5"><tspan
         sodipodi:role="line"
         x="122.94673"
         y="206.14615"
         style="font-style:normal;font-variant:normal;font-weight:bold;font-stretch:normal;font-size:13.4448px;font-family:Aptos;-inkscape-font-specification:'Aptos, Bold';font-variant-ligatures:normal;font-variant-caps:normal;font-variant-numeric:normal;font-variant-east-asian:normal;text-align:center;text-anchor:middle;fill:#fba32b;fill-opacity:1;stroke:#1a1a1a;stroke-width:0.1;stroke-dasharray:none"
         id="tspan60-7">CLASSIFICATION</tspan></text><path
       style="fill:#ffffff;fill-opacity:1;stroke:#15456a;stroke-width:1.64432;stroke-linecap:round;stroke-dasharray:none;stroke-opacity:1"
       d="m 103.10865,235.92463 c -4.706092,-0.1653 -8.67579,-0.41981 -8.821544,-0.56556 -0.14576,-0.14576 -0.785485,-2.62561 -1.421614,-5.51079 -0.775923,-3.5192 -1.44472,-5.45645 -2.031988,-5.88587 -0.48146,-0.35205 -3.691341,-1.73746 -7.13306,-3.07869 l -6.257674,-2.4386 -1.731315,1.59668 c -0.952222,0.87817 -1.844596,1.72178 -1.983054,1.87468 -0.138458,0.1529 -1.951867,1.62125 -4.029797,3.26298 -4.363902,3.44784 -3.679399,3.52014 -9.757119,-1.03062 -5.961602,-4.46383 -7.492685,-6.07108 -7.492685,-7.86543 0,-0.84647 1.165682,-4.01422 2.602143,-7.07135 l 2.602143,-5.53798 -4.162685,-5.44777 -4.162685,-5.44777 -1.944102,0.28795 c -1.069255,0.15838 -4.356555,0.4293 -7.305111,0.60206 l -5.36101,0.31409 -2.494225,-7.11483 c -2.483392,-7.08393 -2.823697,-8.67654 -2.098113,-9.81907 0.209719,-0.33022 2.871125,-2.0771 5.914236,-3.88194 l 5.532929,-3.28153 0.132053,-8.27441 0.132052,-8.27441 -5.811991,-3.75699 c -4.804855,-3.10595 -5.811992,-3.96078 -5.811992,-4.93301 0,-2.89203 5.143342,-15.84035 6.498711,-16.36046 0.415068,-0.15927 3.201339,0.17094 6.191712,0.73382 2.990374,0.56287 6.111392,1.02141 6.935596,1.01898 1.49925,-0.004 2.236678,-0.69108 7.644953,-7.11845 l 1.223113,-1.45359 -2.160272,-6.23013 c -1.18815,-3.42657 -2.161079,-6.69704 -2.162066,-7.2677 -0.0022,-1.25546 1.810575,-2.89526 7.873596,-7.12244 2.61362,-1.82223 5.098864,-3.199867 5.772535,-3.199867 0.826219,0 2.773419,1.463369 6.456752,4.852407 6.027361,5.54578 5.03386,5.3258 12.919834,2.86078 l 4.661809,-1.4572 0.77703,-2.76544 c 1.020011,-3.63019 2.62461,-9.312059 2.931105,-10.378984 0.219395,-0.763725 1.056323,-0.845948 8.61073,-0.845948 6.4889,0 8.49094,0.148463 8.91648,0.661208 0.30181,0.363665 1.29285,3.532481 2.20229,7.041813 0.90945,3.509331 1.91219,6.692261 2.22832,7.073181 0.31613,0.38091 1.05781,0.69257 1.64816,0.69257 0.59036,0 3.38082,0.73226 6.20103,1.62725 l 5.12765,1.62726 2.56181,-2.26367 c 4.24511,-3.75106 9.09181,-7.27503 10.00573,-7.27503 1.45837,0 12.59516,8.20353 12.92593,9.52145 0.19552,0.77902 -0.44932,3.07545 -1.94161,6.91455 -1.2289,3.16149 -2.23436,6.17341 -2.23436,6.69316 0,0.88027 2.42032,4.39629 5.67607,8.24569 l 1.39199,1.6458 6.88124,-1.08839 c 3.78468,-0.59861 7.3607,-0.96491 7.9467,-0.81399 0.88756,0.22859 1.51842,1.60402 3.77844,8.23796 l 2.71297,7.96355 -1.26278,1.20604 c -0.69453,0.66333 -3.32931,2.37234 -5.85507,3.79781 l -4.59229,2.59177 -0.31245,5.71316 c -0.17185,3.14223 -0.45214,7.04661 -0.62286,8.67638 l -0.31041,2.96322 6.0611,3.80339 c 5.49876,3.45051 6.0611,3.93387 6.0611,5.20975 0,1.45594 -4.47106,13.7506 -5.52438,15.19109 -0.55764,0.76262 -1.01198,0.74875 -6.99375,-0.21358 -8.75087,-1.40781 -8.3482,-1.4658 -10.47747,1.50865 -0.9992,1.39582 -2.85869,3.73973 -4.13219,5.20871 l -2.31548,2.67085 2.21369,5.54693 c 2.6428,6.62219 3.06903,9.06745 1.77966,10.20993 -0.49243,0.43634 -3.26764,2.44793 -6.16713,4.47021 -3.49094,2.43479 -5.72588,3.67686 -6.61598,3.67686 -1.00188,0 -2.61116,-1.10791 -6.3194,-4.35059 -3.54216,-3.09746 -5.32629,-4.34189 -6.19409,-4.32037 -0.67039,0.0166 -3.71787,0.83885 -6.7722,1.82719 l -5.55331,1.79698 -1.70602,6.26472 c -1.18558,4.35362 -1.92467,6.27919 -2.42277,6.31211 -0.39422,0.0261 -4.5672,-0.0879 -9.27329,-0.25317 z m 8.22321,-22.88227 c 8.84209,-4.35781 13.98589,-7.97146 20.79219,-14.60704 5.54282,-5.40378 6.94503,-7.0978 10.00882,-12.09164 2.42734,-3.95646 4.18456,-7.56494 5.51324,-11.32156 l 1.9503,-5.51411 0.12865,-16.47388 0.12865,-16.47389 -1.79293,-2.72535 c -1.03424,-1.5721 -2.36383,-2.94988 -3.14209,-3.25596 -0.74204,-0.29184 -1.67546,-0.73053 -2.07426,-0.97487 -0.39881,-0.24434 -4.18999,-1.26301 -8.42485,-2.26371 -5.2761,-1.24674 -10.03886,-2.77869 -15.1309,-4.86688 -4.08712,-1.67608 -9.16299,-3.59452 -11.27969,-4.26318 l -3.84855,-1.21576 -9.973031,3.88461 c -8.736814,3.40309 -15.202997,5.54963 -25.381837,8.42584 -3.549638,1.00301 -6.398414,3.0991 -7.712353,5.67463 -1.039956,2.03848 -1.046546,2.21885 -0.701213,19.19353 l 0.348609,17.1357 1.918541,5.04521 c 1.055198,2.77487 2.3981,5.91584 2.984229,6.97994 0.586128,1.0641 1.391982,2.5437 1.790786,3.28799 2.141801,3.99729 7.778688,10.5236 12.141206,14.05693 6.196316,5.01855 6.847,5.50566 9.546498,7.14656 1.49817,0.91067 5.116775,2.91771 8.041339,4.46008 6.848246,3.61165 8.226736,3.68528 14.168646,0.75681 z"
       id="path61"
       transform="matrix(0.26458333,0,0,0.26458333,20.202594,143.30061)" /><path
       style="fill:#ffffff;fill-opacity:1;stroke:#15456a;stroke-width:1.64432;stroke-linecap:round;stroke-dasharray:none;stroke-opacity:1"
       d="m 46.202775,66.42709 c 0.02319,-0.563133 0.13774,-0.677677 0.292053,-0.292054 0.13964,0.348954 0.122467,0.765885 -0.03816,0.926515 -0.160629,0.160629 -0.27488,-0.124878 -0.25389,-0.634461 z"
       id="path62"
       transform="matrix(0.26458333,0,0,0.26458333,20.202594,143.30061)" /><path
       style="fill:#ffffff;fill-opacity:1;stroke:#15456a;stroke-width:1.64432;stroke-linecap:round;stroke-dasharray:none;stroke-opacity:1"
       d="m 171.79482,118.59591 c -0.70759,-0.18911 -0.79983,-4.7249 -1.01059,-49.698282 L 170.55229,19.407454 168.48293,15.98254 C 166.48186,12.670654 164.74704,11.097827 160.58436,8.8215285 159.14061,8.0320324 155.22361,7.9674556 101.39296,7.8456883 49.216595,7.7276631 43.747616,7.787474 43.747616,8.4761181 c 0,0.4184544 0.542071,2.6887909 1.2046,5.0451939 l 1.2046,4.284367 0.01729,23.572349 c 0.01198,16.340581 0.179639,23.767974 0.546486,24.209998 0.394323,0.475129 0.36011,0.639533 -0.134237,0.645048 -0.556478,0.0062 -0.5577,0.0744 -0.0076,0.422974 0.457202,0.289701 0.493807,0.515729 0.12085,0.746228 -0.375375,0.231993 -0.535008,5.631401 -0.535008,18.096021 v 17.765373 l -3.157268,2.09085 c -1.736497,1.14998 -3.313586,1.93468 -3.504643,1.74379 -0.191057,-0.1909 -0.4176,-15.338627 -0.50343,-33.661632 C 38.913441,55.113672 38.695912,40.110121 38.515872,40.095453 38.335832,40.080784 30.304903,39.891403 20.669364,39.674607 7.8463612,39.386094 2.9547448,39.118218 2.4210485,38.67529 1.8213613,38.177593 1.6918968,36.550752 1.6918968,29.512823 c 0,-7.827835 0.1016752,-8.856263 1.1927073,-12.064031 C 4.3315902,13.194476 5.568432,11.052974 8.1713248,8.2952156 10.765946,5.5462214 13.373838,3.8051039 16.841133,2.5069569 l 2.822559,-1.0567597 h 70.233995 70.234003 l 3.32049,1.238868 c 4.48266,1.6724686 9.68974,6.6568348 12.07398,11.5575698 l 1.6396,3.370156 v 50.649692 50.649687 l -2.29614,-0.0561 c -1.26288,-0.0308 -2.64654,-0.14972 -3.0748,-0.26419 z M 39.300829,27.553747 C 39.600068,19.103521 36.833191,13.732904 30.545205,10.558739 27.791163,9.1685026 27.340624,9.0880699 23.370577,9.2778799 c -4.063,0.1942544 -4.363564,0.2889953 -7.357188,2.3190561 -2.685746,1.821281 -3.358561,2.592977 -4.82318,5.532026 -1.4497229,2.909159 -1.7514041,4.102221 -2.0349795,8.047761 -0.5288502,7.358182 -1.9088869,6.765424 15.3980585,6.613823 l 14.602037,-0.127907 z"
       id="path63"
       transform="matrix(0.26458333,0,0,0.26458333,20.202594,143.30061)" /><path
       style="fill:#ffffff;fill-opacity:1;stroke:#15456a;stroke-width:1.64432;stroke-linecap:round;stroke-dasharray:none;stroke-opacity:1"
       d="m 66.637129,47.42005 c -2.417811,-0.201947 -3.760804,-0.565222 -4.471442,-1.20951 -1.405304,-1.274092 -1.293005,-3.160664 0.267981,-4.50198 l 1.283685,-1.103038 h 40.796037 c 45.87023,0 43.64843,-0.169061 43.64843,3.321287 0,1.262908 -0.32146,2.137223 -1.01739,2.76713 -0.98138,0.888269 -2.3633,0.922532 -39.03448,0.96781 -20.909397,0.02582 -39.572166,-0.08295 -41.472821,-0.241699 z"
       id="path64"
       transform="matrix(0.26458333,0,0,0.26458333,20.202594,143.30061)" /><path
       style="fill:#ffffff;fill-opacity:1;stroke:#15456a;stroke-width:1.64432;stroke-linecap:round;stroke-dasharray:none;stroke-opacity:1"
       d="m 61.950003,73.559446 c -1.161523,-1.283468 -1.009737,-3.584434 0.318784,-4.832514 l 1.118803,-1.051061 h 29.968045 c 23.224765,0 30.148365,0.135965 30.769425,0.604248 0.44076,0.332337 0.94224,1.510312 1.11442,2.617721 0.57011,3.666907 1.68426,3.545618 -32.569631,3.545618 -28.371929,0 -29.961216,-0.04574 -30.719846,-0.884012 z"
       id="path65"
       transform="matrix(0.26458333,0,0,0.26458333,20.202594,143.30061)" /><path
       style="fill:#ffffff;fill-opacity:1;stroke:#15456a;stroke-width:1.64432;stroke-linecap:round;stroke-dasharray:none;stroke-opacity:1"
       d="m 222.48631,86.516243 c -14.86682,-1.687938 -24.14407,-8.441192 -26.41259,-19.226715 -0.29634,-1.4089 -0.53879,-3.312284 -0.53879,-4.229742 v -1.668103 h 9.57659 9.5766 l 0.63923,2.494165 c 0.84639,3.302437 3.71816,6.235418 7.05215,7.202467 1.43765,0.417 4.43767,0.689284 7.47676,0.678596 4.44701,-0.01564 5.4184,-0.176262 7.84254,-1.296796 3.51343,-1.624032 4.72276,-3.454311 4.72084,-7.144836 -0.002,-3.877856 -1.62617,-5.960852 -6.27919,-8.0531 -0.93054,-0.418421 -6.17409,-2.232327 -11.65233,-4.030901 -12.72553,-4.177958 -17.57264,-6.520022 -21.46232,-10.370335 -3.52746,-3.491769 -4.93556,-6.318021 -5.67484,-11.390181 -1.46523,-10.052978 2.83745,-18.603464 11.40949,-22.6734445 6.46511,-3.0696174 15.91548,-4.416683 24.47354,-3.4884814 15.70496,1.7033517 24.79613,8.7061999 26.29775,20.2569349 l 0.33123,2.547912 -9.78733,-0.130916 -9.78733,-0.130916 -0.29833,-1.460311 c -0.49361,-2.416136 -1.8687,-4.004563 -4.64088,-5.360865 -6.90039,-3.376042 -18.40778,-0.904873 -18.59812,3.993876 -0.23026,5.925877 1.84815,7.432451 17.30081,12.540846 16.01743,5.295099 22.35139,8.937231 25.45298,14.635873 3.52573,6.477921 3.53623,17.313814 0.023,23.768714 -3.0286,5.564547 -9.74574,9.876196 -18.0305,11.57357 -5.38825,1.103934 -13.94883,1.537431 -19.01099,0.962689 z"
       id="path66"
       transform="matrix(0.26458333,0,0,0.26458333,20.202594,143.30061)" /><path
       style="fill:#ffffff;fill-opacity:1;stroke:#15456a;stroke-width:1.64432;stroke-linecap:round;stroke-dasharray:none;stroke-opacity:1"
       d="M 275.77917,67.192471 V 26.586949 h 8.39728 8.39728 l 0.60471,4.568896 0.60472,4.568897 3.20383,-3.282643 c 3.84624,-3.940851 7.20391,-5.658303 12.53647,-6.412425 4.55936,-0.644778 9.84037,0.231514 13.96166,2.316696 5.18646,2.624108 9.53735,8.60765 11.55042,15.884645 1.1944,4.317637 1.48484,17.272126 0.49312,21.994658 -1.98077,9.432359 -7.92108,16.55754 -16.0567,19.259446 -8.92886,2.965344 -17.37204,1.01494 -23.12462,-5.341869 l -2.6824,-2.964155 v 15.309452 15.309443 h -8.94288 -8.94289 z m 35.62086,5.343762 c 5.20637,-2.363737 7.91872,-11.347272 6.48393,-21.475329 -1.19899,-8.463505 -4.39164,-12.107768 -10.53134,-12.02105 -4.93277,0.06967 -8.7509,2.266769 -12.2975,7.076436 l -1.39018,1.885275 v 8.050616 c 0,8.010872 0.007,8.061225 1.36901,10.199702 1.63067,2.559844 4.90845,5.606498 7.02054,6.525503 2.23634,0.973066 6.93834,0.851738 9.34554,-0.241153 z"
       id="path67"
       transform="matrix(0.26458333,0,0,0.26458333,20.202594,143.30061)" /><path
       style="fill:#ffffff;fill-opacity:1;stroke:#15456a;stroke-width:1.64432;stroke-linecap:round;stroke-dasharray:none;stroke-opacity:1"
       d="M 350.70603,44.714414 V 3.8671926 h 8.70118 8.70119 V 19.864625 35.862057 l 3.43959,-3.184536 c 4.41217,-4.084994 8.14424,-5.92696 13.43678,-6.631729 10.07342,-1.341405 18.39576,2.76705 21.29346,10.511853 1.67458,4.475696 1.93276,8.338237 1.94271,29.063779 l 0.01,19.940212 h -8.94288 -8.94289 l -0.0115,-18.731714 c -0.006,-10.302443 -0.20943,-19.584997 -0.45131,-20.627898 -0.50207,-2.164774 -1.66274,-3.885836 -3.5911,-5.324933 -1.06735,-0.796545 -2.03197,-0.992227 -4.80412,-0.974554 -4.22088,0.02691 -7.10342,1.298423 -10.56352,4.659644 l -2.33137,2.264761 v 19.367349 19.367345 h -8.94289 -8.94288 z"
       id="path68"
       transform="matrix(0.26458333,0,0,0.26458333,20.202594,143.30061)" /><path
       style="fill:#ffffff;fill-opacity:1;stroke:#15456a;stroke-width:1.64432;stroke-linecap:round;stroke-dasharray:none;stroke-opacity:1"
       d="M 425.14949,56.074293 V 26.586949 h 8.94288 8.94288 v 29.487344 29.487343 h -8.94288 -8.94288 z"
       id="path69"
       transform="matrix(0.26458333,0,0,0.26458333,20.202594,143.30061)" /><path
       style="fill:#ffffff;fill-opacity:1;stroke:#15456a;stroke-width:0.822159;stroke-linecap:round;stroke-dasharray:none;stroke-opacity:1"
       d="m 430.11019,18.948497 c -2.4712,-0.664071 -4.21736,-2.054464 -5.36506,-4.27197 -0.62611,-1.209716 -0.88694,-4.568535 -0.47369,-6.0999098 0.63468,-2.3519765 2.46272,-4.2274435 5.07279,-5.2043944 2.63619,-0.986732 7.3398,-0.8663529 9.87633,0.2527645 1.49881,0.6612708 3.31081,2.4698412 3.94436,3.9368815 2.05822,4.7659862 -0.49742,10.1249322 -5.43741,11.4017582 -1.81858,0.470044 -5.84159,0.462053 -7.61732,-0.01513 z"
       id="path74"
       transform="matrix(0.26458333,0,0,0.26458333,20.202594,143.30061)" /><path
       style="fill:#ffffff;fill-opacity:1;stroke:#15456a;stroke-width:0.822159;stroke-linecap:round;stroke-dasharray:none;stroke-opacity:1"
       d="M 460.07507,56.195143 V 26.586949 h 8.70118 8.70119 v 2.985789 c 0,1.642184 0.0699,3.654348 0.15528,4.471476 l 0.15529,1.485686 2.09347,-2.135754 c 4.63698,-4.73064 8.94638,-6.87604 15.16665,-7.550594 9.9244,-1.076245 17.58929,2.881834 20.69848,10.688504 1.72582,4.333255 1.85251,6.359542 1.85275,29.633192 l 2e-4,19.638088 h -9.06373 -9.06373 v -19.43528 c 0,-18.432178 -0.0238,-19.511619 -0.46036,-20.914411 -1.08086,-3.472802 -3.62214,-5.340273 -7.51573,-5.522973 -4.28469,-0.201052 -7.42144,1.141066 -11.16877,4.778778 l -2.37045,2.30111 0.002,19.396388 0.002,19.396388 h -8.94289 -8.94288 z"
       id="path75"
       transform="matrix(0.26458333,0,0,0.26458333,20.202594,143.30061)" /><path
       style="fill:#ffffff;fill-opacity:1;stroke:#15456a;stroke-width:0.822159;stroke-linecap:round;stroke-dasharray:none;stroke-opacity:1"
       d="m 537.29807,41.05607 c -4.78565,-7.189327 -8.903,-13.387226 -9.14966,-13.773108 l -0.44848,-0.701605 9.62697,0.06322 9.62697,0.06322 5.16557,8.699357 5.16557,8.699358 -0.56718,1.043875 c -0.50282,0.925402 -1.00012,1.291625 -4.38177,3.226834 -3.76707,2.15577 -3.82963,2.205257 -5.02263,3.973217 -0.66443,0.984641 -1.23193,1.787303 -1.26111,1.783697 -0.0292,-0.0036 -3.9686,-5.888739 -8.75425,-13.078067 z"
       id="path76"
       transform="matrix(0.26458333,0,0,0.26458333,20.202594,143.30061)" /><path
       style="fill:#ffffff;fill-opacity:1;stroke:#15456a;stroke-width:0.822159;stroke-linecap:round;stroke-dasharray:none;stroke-opacity:1"
       d="m 556.68398,64.431005 c -0.53845,-0.852306 -1.33587,-1.47985 -3.93816,-3.09919 -3.24794,-2.021116 -3.27003,-2.040991 -4.78591,-4.306804 l -1.5229,-2.276318 1.21844,-1.832475 c 1.20772,-1.816346 1.25076,-1.851038 4.89043,-3.94126 3.78861,-2.17576 4.14254,-2.446439 4.74777,-3.63105 l 0.35756,-0.699855 0.53392,0.949978 c 0.42048,0.748144 1.26243,1.413015 3.96285,3.12936 3.34371,2.125211 3.46555,2.232747 4.90196,4.326298 l 1.47302,2.146915 -1.23132,1.916506 -1.23132,1.916506 -3.68162,2.179688 c -3.14767,1.863562 -3.77136,2.332813 -4.30036,3.23548 -0.3403,0.580685 -0.64134,1.055596 -0.66897,1.055359 -0.0276,-2.38e-4 -0.35406,-0.48135 -0.72539,-1.069138 z"
       id="path77"
       transform="matrix(0.26458333,0,0,0.26458333,20.202594,143.30061)" /><path
       style="fill:#ffffff;fill-opacity:1;stroke:#15456a;stroke-width:0.822159;stroke-linecap:round;stroke-dasharray:none;stroke-opacity:1"
       d="m 567.56247,52.638406 c -1.30765,-1.912549 -1.5272,-2.105334 -4.89526,-4.298498 -2.73034,-1.777902 -3.65305,-2.514354 -4.08816,-3.262944 l -0.56194,-0.966798 5.10925,-8.756016 5.10925,-8.756016 9.59921,-0.0056 9.59922,-0.0056 -3.69849,5.619514 c -2.03416,3.090733 -6.19723,9.402841 -9.25126,14.026906 l -5.55278,8.407392 z"
       id="path78"
       transform="matrix(0.26458333,0,0,0.26458333,20.202594,143.30061)" /><path
       style="fill:#ffffff;fill-opacity:1;stroke:#15456a;stroke-width:0.822159;stroke-linecap:round;stroke-dasharray:none;stroke-opacity:1"
       d="m 525.81734,85.667058 c 0,-0.07495 4.55847,-6.932892 10.12994,-15.239868 l 10.12993,-15.103593 1.53207,2.240401 c 1.50022,2.193828 1.59739,2.28113 4.67416,4.199677 2.50199,1.560131 3.30363,2.197395 3.93498,3.128126 0.43609,0.642867 0.76238,1.243031 0.7251,1.333698 -0.0373,0.09067 -2.7869,4.528384 -6.11027,9.861595 l -6.04249,9.696746 -9.48671,0.0097 c -5.21769,0.0054 -9.48671,-0.05158 -9.48671,-0.12653 z"
       id="path79"
       transform="matrix(0.26458333,0,0,0.26458333,20.202594,143.30061)" /><path
       style="fill:#ffffff;fill-opacity:1;stroke:#15456a;stroke-width:0.822159;stroke-linecap:round;stroke-dasharray:none;stroke-opacity:1"
       d="m 564.36842,76.829939 c -3.0575,-4.925416 -5.79971,-9.355052 -6.09379,-9.843635 l -0.53471,-0.888334 0.74426,-1.144156 c 0.63198,-0.971534 1.29611,-1.471848 4.4019,-3.316127 3.60972,-2.143517 3.67316,-2.195919 4.84254,-4.000044 0.65169,-1.00544 1.26028,-1.74132 1.3524,-1.635287 0.0921,0.106033 2.64946,3.890789 5.68295,8.410571 3.03349,4.519781 7.51653,11.181625 9.96231,14.804097 l 4.44688,6.586312 -9.62283,-0.009 -9.62282,-0.009 z"
       id="path80"
       transform="matrix(0.26458333,0,0,0.26458333,20.202594,143.30061)" /></g></svg>
