<?xml version="1.0" encoding="UTF-8" standalone="no"?>
<!-- Created with Inkscape (http://www.inkscape.org/) -->

<svg
   width="156.11253mm"
   height="63.340553mm"
   viewBox="0 0 156.11253 63.340553"
   version="1.1"
   id="svg1"
   xml:space="preserve"
   inkscape:version="1.4.1 (93de688d07, 2025-03-30)"
   sodipodi:docname="logo_classification_sn_light.svg"
   inkscape:export-filename="logo_classification_dark.png"
   inkscape:export-xdpi="90"
   inkscape:export-ydpi="90"
   xmlns:inkscape="http://www.inkscape.org/namespaces/inkscape"
   xmlns:sodipodi="http://sodipodi.sourceforge.net/DTD/sodipodi-0.dtd"
   xmlns="http://www.w3.org/2000/svg"
   xmlns:svg="http://www.w3.org/2000/svg"><sodipodi:namedview
     id="namedview1"
     pagecolor="#ffffff"
     bordercolor="#666666"
     borderopacity="1.0"
     inkscape:showpageshadow="2"
     inkscape:pageopacity="0.0"
     inkscape:pagecheckerboard="0"
     inkscape:deskcolor="#d1d1d1"
     inkscape:document-units="mm"
     inkscape:zoom="2.0686842"
     inkscape:cx="266.11118"
     inkscape:cy="153.2375"
     inkscape:window-width="2560"
     inkscape:window-height="1412"
     inkscape:window-x="3840"
     inkscape:window-y="0"
     inkscape:window-maximized="1"
     inkscape:current-layer="layer1" /><defs
     id="defs1" /><g
     inkscape:label="Layer 1"
     inkscape:groupmode="layer"
     id="layer1"
     transform="translate(-20.202594,-143.30061)"><path
       style="fill:#583eff;fill-opacity:1;stroke:#1a1a1a;stroke-width:0.2;stroke-dasharray:none"
       d="m 46.568373,197.60197 c -0.652584,-0.3632 -1.683815,-0.99477 -2.291625,-1.40347 l -1.10511,-0.74311 -1.238226,-1.26776 -1.238226,-1.26775 -0.727284,-1.2242 c -0.400006,-0.67331 -0.906288,-1.7184 -1.12507,-2.32242 l -0.397787,-1.09821 -0.08661,-3.80455 -0.08661,-3.80456 0.282693,-0.43144 0.282693,-0.43144 1.081634,-0.2128 c 1.533105,-0.30162 3.683664,-1.02287 5.854965,-1.96363 l 1.868845,-0.80971 0.42278,0.004 c 0.232528,0.002 0.794022,0.17393 1.247764,0.38159 1.681716,0.76967 4.542927,1.77078 6.23322,2.18095 l 1.741634,0.42262 0.234256,0.21285 0.234256,0.21285 0.01513,3.56329 0.01513,3.5633 -0.231809,0.91665 c -0.331116,1.30934 -0.948001,2.64976 -1.790277,3.89007 l -0.730673,1.07596 -1.550407,1.45858 -1.550406,1.45858 -1.709239,1.05414 -1.709238,1.05415 -0.37994,-0.002 -0.37994,-0.002 z m 0.774112,-5.66814 c 0.142582,-0.0547 1.770429,-1.66962 3.617437,-3.58867 l 3.358197,-3.4892 -0.01651,-0.58065 -0.01651,-0.58066 -0.397969,-0.32225 -0.397969,-0.32226 h -0.516579 -0.516579 l -2.792525,2.84038 -2.792525,2.84037 -1.361385,-1.4654 -1.361385,-1.4654 h -0.568121 -0.568123 l -0.424308,0.39862 -0.424308,0.39862 v 0.51541 0.51542 l 1.856646,1.97341 c 2.437321,2.59061 2.512232,2.6432 3.322516,2.33226 z"
       id="path57"
       sodipodi:nodetypes="cscccsscccccssccsscccccssccccccccsscccccccccccccccccss" /><path
       style="fill:#ffffff"
       d="m 47.339858,206.49823 -2.150775,-0.0516 -0.17041,-0.31841 c -0.09373,-0.17513 -0.218091,-0.64689 -0.276369,-1.04836 l -0.105958,-0.72994 0.25798,0.88633 c 0.141889,0.48749 0.288254,0.91661 0.325254,0.95361 0.037,0.037 1.076253,0.0803 2.309449,0.0963 l 2.242176,0.029 0.24153,-0.20045 0.24153,-0.20046 0.335766,-1.47011 c 0.18467,-0.80856 0.373316,-1.43256 0.419211,-1.38666 0.09805,0.0981 -0.490684,2.62239 -0.71297,3.05701 l -0.152373,0.29793 -0.326633,0.0687 c -0.179648,0.0378 -1.294482,0.0455 -2.477408,0.0171 z m 9.82773,-2.47509 c -0.518253,-0.29698 -2.699564,-2.33153 -2.499707,-2.33153 0.08612,0 0.479961,0.33118 0.875212,0.73595 0.395251,0.40478 1.029448,0.95135 1.409327,1.2146 l 0.690689,0.47865 0.507011,-0.3314 c 0.278857,-0.18227 1.105126,-0.77334 1.836155,-1.31348 l 1.329142,-0.98208 v -0.46936 -0.46936 l -0.639737,-1.47625 -0.639738,-1.47624 1.038918,-1.3564 c 1.288795,-1.68263 0.944268,-1.55106 3.138567,-1.19864 l 1.869173,0.30019 0.195243,-0.19524 c 0.107383,-0.10739 0.517442,-1.07172 0.911241,-2.14298 l 0.715998,-1.94773 -0.105769,-0.27563 -0.105769,-0.27563 -1.341886,-0.83636 c -0.738036,-0.46 -1.421436,-0.93484 -1.518665,-1.0552 l -0.176779,-0.21883 0.149257,-2.01663 0.149258,-2.01663 -0.05658,2.07521 -0.05658,2.07521 1.508698,0.97328 1.508698,0.97327 0.111961,0.29176 0.11196,0.29177 -0.662576,1.88465 -0.662575,1.88466 -0.330044,0.35374 -0.330044,0.35375 -1.520295,-0.22858 c -0.836162,-0.12571 -1.691847,-0.26969 -1.901522,-0.31994 l -0.381228,-0.0914 -1.032296,1.37153 -1.032296,1.37153 0.634371,1.46386 0.634371,1.46386 v 0.52844 0.52844 l -1.739242,1.23628 c -0.956583,0.67996 -1.843442,1.27269 -1.970797,1.31718 l -0.231556,0.0809 z m -21.078536,-1.07498 c -1.506817,-1.12392 -2.273133,-1.81315 -2.273133,-2.04447 v -0.16934 l 0.320828,0.37945 c 0.457341,0.5409 3.194203,2.59445 3.457747,2.59445 0.12132,0 0.851571,-0.53624 1.62278,-1.19164 1.626754,-1.38249 2.055439,-1.59781 0.63874,-0.32083 -2.220767,2.00174 -2.119183,1.98145 -3.766962,0.75238 z m 11.947054,-2.92611 c 0.05565,-0.09 0.25848,-0.16373 0.450721,-0.16373 h 0.34953 l 1.243788,-0.67532 c 0.684083,-0.37142 1.738779,-1.00413 2.343768,-1.406 l 1.09998,-0.73069 1.63737,-1.5731 1.63737,-1.57311 -0.687676,0.85947 c -1.507187,1.88372 -5.760451,4.84801 -7.581514,5.28391 l -0.594529,0.1423 z m -2.804126,-1.0137 -1.875363,-1.03175 -1.509972,-1.21326 -1.509972,-1.21327 -0.967726,-1.19165 -0.967726,-1.19164 -0.826011,-1.65138 c -0.454306,-0.90826 -0.825004,-1.77449 -0.823773,-1.92496 0.0012,-0.15048 0.27263,0.34515 0.603108,1.10138 0.330477,0.75624 0.963298,1.91122 1.406267,2.56662 l 0.805399,1.19165 1.048736,1.03224 c 1.392517,1.37062 3.022067,2.51471 5.180017,3.63684 0.9757,0.50737 1.670136,0.92213 1.54319,0.9217 -0.126946,-4.3e-4 -1.074724,-0.46506 -2.106174,-1.03252 z m -8.99464,-15.37473 -0.03252,-4.03326 0.13469,-0.21253 0.13469,-0.21254 -0.04838,3.14581 c -0.0785,5.10505 -0.153692,5.62861 -0.188489,1.31252 z m 23.465616,-0.18333 -0.04556,-3.48327 -0.347272,-0.76486 -0.347272,-0.76486 -0.478279,-0.31338 c -0.263053,-0.17236 -0.744333,-0.3766 -1.069509,-0.45385 l -0.591231,-0.14047 0.477046,-0.0188 0.477046,-0.0188 0.622934,0.41276 0.622934,0.41276 0.416655,0.83883 0.416654,0.83883 -0.05429,3.46916 -0.05429,3.46916 z m -22.952692,-4.79223 c 0.361665,-0.57912 1.028533,-0.91049 2.681842,-1.33262 1.728352,-0.44129 4.758909,-1.47651 6.240377,-2.13169 0.568093,-0.25124 1.065737,-0.42395 1.105875,-0.38382 0.209634,0.20964 -5.230399,2.18606 -7.622388,2.7693 l -1.351493,0.32953 -0.649002,0.56984 -0.649003,0.56983 z m 28.501967,-16.56612 v -13.1081 l 0.05054,6.55405 c 0.0278,3.60473 0.0278,9.50337 0,13.10809 l -0.05054,6.55405 z m 1.699368,12.86605 0.227947,-0.14476 0.04827,-13.28135 0.04827,-13.28136 0.04461,13.42893 0.04461,13.42891 -0.320828,-0.003 -0.320827,-0.003 z m -5.248255,-2.72313 -0.02127,-0.39855 -0.504157,-0.39468 c -0.277287,-0.21707 -1.018473,-0.75958 -1.647081,-1.20558 l -1.142922,-0.81091 -0.323717,0.004 -0.323718,0.004 -1.517126,1.26865 -1.517127,1.26867 -0.554694,-0.19337 c -0.305082,-0.10635 -0.520675,-0.22739 -0.479096,-0.26897 0.04158,-0.0416 0.291295,0.006 0.554926,0.10665 l 0.479329,0.18224 1.482703,-1.27709 1.482704,-1.27709 h 0.360906 0.360906 l 1.420838,0.9956 c 0.781461,0.54759 1.569779,1.16019 1.751817,1.36134 l 0.330978,0.36572 -0.08647,0.33447 -0.08647,0.33447 z m -31.248474,-0.182 c -0.06722,-0.0672 -0.120957,-0.21159 -0.119413,-0.32082 l 0.0028,-0.19861 0.156225,0.2465 0.156224,0.2465 0.895116,-0.68321 0.895115,-0.68321 0.09373,-11.47974 0.09373,-11.47974 0.04376,11.47757 0.04376,11.47756 -1.015869,0.75971 c -1.114009,0.83311 -1.071401,0.81129 -1.2452,0.63749 z m 3.94916,-0.60524 0.0802,-0.26914 1.636644,-1.14534 1.636644,-1.14534 0.475744,-0.006 0.475743,-0.006 0.349242,0.3872 c 0.192082,0.21297 0.819482,0.79504 1.394221,1.29351 l 1.04498,0.9063 1.220123,-0.37686 c 0.671068,-0.20727 1.314557,-0.37015 1.429975,-0.36195 0.190335,0.0135 -2.394125,0.89011 -2.648367,0.89827 -0.05955,0.002 -0.74178,-0.57402 -1.516071,-1.27984 l -1.407803,-1.2833 h -0.380979 -0.380979 l -1.494554,1.03669 c -0.822005,0.57018 -1.607145,1.16829 -1.744755,1.32914 l -0.2502,0.29245 z m 10.612908,-8.248 7.809415,-0.0994 0.312299,-0.25938 0.312299,-0.25938 -0.05519,-0.56142 -0.05519,-0.56143 -0.458325,-0.23064 -0.458325,-0.23064 -7.66236,-0.003 -7.66236,-0.003 -0.464653,0.46465 -0.464653,0.46466 0.06212,-0.32255 0.06212,-0.32256 0.456701,-0.23106 0.456701,-0.23106 7.550427,-0.003 7.550427,-0.003 0.512361,0.19479 c 0.6156,0.23406 0.788289,0.47519 0.792011,1.10593 l 0.0028,0.47575 -0.385737,0.34924 -0.385737,0.34924 -7.81828,0.008 -7.81828,0.008 z m -8.266115,-7.21071 -0.456701,-0.23106 -0.06212,-0.32255 -0.06212,-0.32255 0.464653,0.46465 0.464653,0.46465 H 47.823699 58.54821 l 0.471347,-0.21476 0.471346,-0.21476 0.108998,-0.43428 0.108998,-0.43428 -0.325137,-0.35927 -0.325137,-0.35928 H 47.995579 36.932529 l -0.36666,0.36666 c -0.201663,0.20167 -0.36666,0.29695 -0.36666,0.21175 0,-0.0852 0.150869,-0.29145 0.335263,-0.45833 l 0.335263,-0.30341 h 11.11572 11.115719 l 0.373802,0.40123 c 0.393192,0.42204 0.447208,0.6608 0.25992,1.14886 l -0.113881,0.29677 -0.51867,0.26822 -0.518669,0.26821 -10.688076,-0.003 -10.688076,-0.003 z m -16.029903,-2.25158 -0.288089,-0.28809 0.04021,-2.50769 0.04021,-2.50769 0.05651,2.50253 0.05651,2.50254 0.238952,0.19831 0.238952,0.19831 4.568405,0.0524 4.568406,0.0525 -4.615987,0.0425 -4.615988,0.0425 z m 4.07575,-2.23205 c 1.038886,-0.0327 2.688856,-0.0326 3.666599,3e-4 l 1.777716,0.0598 -3.6666,-3e-4 -3.6666,-2.9e-4 z m 5.377616,-2.62304 -0.02497,-0.46826 -0.529198,-0.83446 -0.529197,-0.83446 -0.811994,-0.39308 -0.811995,-0.39308 h -0.772991 -0.772992 l -0.681599,0.28472 c -0.840462,0.35108 -1.591821,1.0525 -1.8846,1.75933 -0.12173,0.29388 -0.257555,0.4981 -0.301833,0.45382 -0.332068,-0.33206 1.160352,-1.96786 2.186433,-2.39648 l 0.681599,-0.28472 h 0.745097 0.745097 l 0.679097,0.28375 c 0.870183,0.36358 1.452963,0.91218 1.904493,1.79279 l 0.359725,0.70156 -0.07761,0.39842 -0.0776,0.39842 z m 34.649661,-0.63089 -0.241098,-0.66674 -0.534852,-0.60917 -0.534852,-0.60916 -0.686371,-0.34118 -0.686372,-0.34119 -15.124724,-0.0943 -15.124723,-0.0943 14.872511,-0.0432 14.872512,-0.0432 0.801519,0.28279 0.801519,0.28279 0.61257,0.58803 c 0.647192,0.62126 1.376833,1.86544 1.274322,2.17298 l -0.06086,0.18259 z M 20.808551,147.5172 c -0.0031,-0.10083 0.234659,-0.60224 0.528332,-1.11424 l 0.533952,-0.93093 0.66107,-0.58042 c 0.363588,-0.31924 0.981199,-0.74375 1.372469,-0.94336 l 0.711399,-0.36293 0.795976,-0.1 0.795976,-0.1 -1.008315,0.28354 -1.008315,0.28353 -0.944381,0.64643 -0.944382,0.64642 -0.457217,0.67763 c -0.251469,0.3727 -0.586305,0.92513 -0.74408,1.22762 -0.157775,0.30249 -0.289393,0.46749 -0.292484,0.36666 z"
       id="path51"
       sodipodi:nodetypes="scccsscssccccssscsscsssscsscccccsscsscccsscccccccccccccsscccccccsssssscssssssscsscccssssscccccsssscssssccccsccccccssccccccccccsssssccssccsscccccccccccccsscccccssccccccssccscsscccccccccsssccccccsscsscscccssccccccccccccccccccccssccccccccccccccccccccccssscccsscccccccccccccccccccsscccsccccccccsssscccssccscccccccccccccssscsscsscccccccss" /><text
       xml:space="preserve"
       style="font-size:33.2442px;line-height:1.25;font-family:sans-serif;-inkscape-font-specification:'sans-serif, Normal';fill:#15456a;fill-opacity:1;stroke:#1a1a1a;stroke-width:0.1;stroke-dasharray:none"
       x="70.558952"
       y="166.09895"
       id="text57"><tspan
         sodipodi:role="line"
         id="tspan57"
         x="70.558952"
         y="166.09895"
         style="font-style:normal;font-variant:normal;font-weight:800;font-stretch:normal;font-size:33.2442px;font-family:Aptos;-inkscape-font-specification:'Aptos, Ultra-Bold';font-variant-ligatures:normal;font-variant-caps:normal;font-variant-numeric:normal;font-variant-east-asian:normal;fill:#15456a;fill-opacity:1;stroke:#1a1a1a;stroke-width:0.1;stroke-dasharray:none">Sphinx </tspan><tspan
         sodipodi:role="line"
         x="70.558952"
         y="208.17531"
         style="font-style:normal;font-variant:normal;font-weight:800;font-stretch:normal;font-size:33.2442px;font-family:Aptos;-inkscape-font-specification:'Aptos, Ultra-Bold';font-variant-ligatures:normal;font-variant-caps:normal;font-variant-numeric:normal;font-variant-east-asian:normal;fill:#15456a;fill-opacity:1;stroke:#1a1a1a;stroke-width:0.1;stroke-dasharray:none"
         id="tspan58" /></text><text
       xml:space="preserve"
       style="font-size:13.4448px;line-height:1.25;font-family:sans-serif;-inkscape-font-specification:'sans-serif, Normal';fill:#583eff;fill-opacity:1;stroke:#1a1a1a;stroke-width:0.1;stroke-dasharray:none"
       x="94.809349"
       y="188.96581"
       id="text57-6"><tspan
         sodipodi:role="line"
         x="94.809349"
         y="188.96581"
         style="font-style:normal;font-variant:normal;font-weight:bold;font-stretch:normal;font-size:13.4448px;font-family:Aptos;-inkscape-font-specification:'Aptos, Bold';font-variant-ligatures:normal;font-variant-caps:normal;font-variant-numeric:normal;font-variant-east-asian:normal;text-align:center;text-anchor:middle;fill:#583eff;fill-opacity:1;stroke:#1a1a1a;stroke-width:0.1;stroke-dasharray:none"
         id="tspan60">SAFETY</tspan></text><text
       xml:space="preserve"
       style="font-size:13.4448px;line-height:1.25;font-family:sans-serif;-inkscape-font-specification:'sans-serif, Normal';fill:#583eff;fill-opacity:1;stroke:#1a1a1a;stroke-width:0.1;stroke-dasharray:none"
       x="122.94673"
       y="206.14615"
       id="text57-6-5"><tspan
         sodipodi:role="line"
         x="122.94673"
         y="206.14615"
         style="font-style:normal;font-variant:normal;font-weight:bold;font-stretch:normal;font-size:13.4448px;font-family:Aptos;-inkscape-font-specification:'Aptos, Bold';font-variant-ligatures:normal;font-variant-caps:normal;font-variant-numeric:normal;font-variant-east-asian:normal;text-align:center;text-anchor:middle;fill:#583eff;fill-opacity:1;stroke:#1a1a1a;stroke-width:0.1;stroke-dasharray:none"
         id="tspan60-7">CLASSIFICATION</tspan></text><path
       style="fill:#15456a;fill-opacity:1;stroke:#15456a;stroke-width:1.64432;stroke-linecap:round;stroke-dasharray:none;stroke-opacity:1"
       d="m 103.10865,235.92463 c -4.706092,-0.1653 -8.67579,-0.41981 -8.821544,-0.56556 -0.14576,-0.14576 -0.785485,-2.62561 -1.421614,-5.51079 -0.775923,-3.5192 -1.44472,-5.45645 -2.031988,-5.88587 -0.48146,-0.35205 -3.691341,-1.73746 -7.13306,-3.07869 l -6.257674,-2.4386 -1.731315,1.59668 c -0.952222,0.87817 -1.844596,1.72178 -1.983054,1.87468 -0.138458,0.1529 -1.951867,1.62125 -4.029797,3.26298 -4.363902,3.44784 -3.679399,3.52014 -9.757119,-1.03062 -5.961602,-4.46383 -7.492685,-6.07108 -7.492685,-7.86543 0,-0.84647 1.165682,-4.01422 2.602143,-7.07135 l 2.602143,-5.53798 -4.162685,-5.44777 -4.162685,-5.44777 -1.944102,0.28795 c -1.069255,0.15838 -4.356555,0.4293 -7.305111,0.60206 l -5.36101,0.31409 -2.494225,-7.11483 c -2.483392,-7.08393 -2.823697,-8.67654 -2.098113,-9.81907 0.209719,-0.33022 2.871125,-2.0771 5.914236,-3.88194 l 5.532929,-3.28153 0.132053,-8.27441 0.132052,-8.27441 -5.811991,-3.75699 c -4.804855,-3.10595 -5.811992,-3.96078 -5.811992,-4.93301 0,-2.89203 5.143342,-15.84035 6.498711,-16.36046 0.415068,-0.15927 3.201339,0.17094 6.191712,0.73382 2.990374,0.56287 6.111392,1.02141 6.935596,1.01898 1.49925,-0.004 2.236678,-0.69108 7.644953,-7.11845 l 1.223113,-1.45359 -2.160272,-6.23013 c -1.18815,-3.42657 -2.161079,-6.69704 -2.162066,-7.2677 -0.0022,-1.25546 1.810575,-2.89526 7.873596,-7.12244 2.61362,-1.82223 5.098864,-3.199867 5.772535,-3.199867 0.826219,0 2.773419,1.463369 6.456752,4.852407 6.027361,5.54578 5.03386,5.3258 12.919834,2.86078 l 4.661809,-1.4572 0.77703,-2.76544 c 1.020011,-3.63019 2.62461,-9.312059 2.931105,-10.378984 0.219395,-0.763725 1.056323,-0.845948 8.61073,-0.845948 6.4889,0 8.49094,0.148463 8.91648,0.661208 0.30181,0.363665 1.29285,3.532481 2.20229,7.041813 0.90945,3.509331 1.91219,6.692261 2.22832,7.073181 0.31613,0.38091 1.05781,0.69257 1.64816,0.69257 0.59036,0 3.38082,0.73226 6.20103,1.62725 l 5.12765,1.62726 2.56181,-2.26367 c 4.24511,-3.75106 9.09181,-7.27503 10.00573,-7.27503 1.45837,0 12.59516,8.20353 12.92593,9.52145 0.19552,0.77902 -0.44932,3.07545 -1.94161,6.91455 -1.2289,3.16149 -2.23436,6.17341 -2.23436,6.69316 0,0.88027 2.42032,4.39629 5.67607,8.24569 l 1.39199,1.6458 6.88124,-1.08839 c 3.78468,-0.59861 7.3607,-0.96491 7.9467,-0.81399 0.88756,0.22859 1.51842,1.60402 3.77844,8.23796 l 2.71297,7.96355 -1.26278,1.20604 c -0.69453,0.66333 -3.32931,2.37234 -5.85507,3.79781 l -4.59229,2.59177 -0.31245,5.71316 c -0.17185,3.14223 -0.45214,7.04661 -0.62286,8.67638 l -0.31041,2.96322 6.0611,3.80339 c 5.49876,3.45051 6.0611,3.93387 6.0611,5.20975 0,1.45594 -4.47106,13.7506 -5.52438,15.19109 -0.55764,0.76262 -1.01198,0.74875 -6.99375,-0.21358 -8.75087,-1.40781 -8.3482,-1.4658 -10.47747,1.50865 -0.9992,1.39582 -2.85869,3.73973 -4.13219,5.20871 l -2.31548,2.67085 2.21369,5.54693 c 2.6428,6.62219 3.06903,9.06745 1.77966,10.20993 -0.49243,0.43634 -3.26764,2.44793 -6.16713,4.47021 -3.49094,2.43479 -5.72588,3.67686 -6.61598,3.67686 -1.00188,0 -2.61116,-1.10791 -6.3194,-4.35059 -3.54216,-3.09746 -5.32629,-4.34189 -6.19409,-4.32037 -0.67039,0.0166 -3.71787,0.83885 -6.7722,1.82719 l -5.55331,1.79698 -1.70602,6.26472 c -1.18558,4.35362 -1.92467,6.27919 -2.42277,6.31211 -0.39422,0.0261 -4.5672,-0.0879 -9.27329,-0.25317 z m 8.22321,-22.88227 c 8.84209,-4.35781 13.98589,-7.97146 20.79219,-14.60704 5.54282,-5.40378 6.94503,-7.0978 10.00882,-12.09164 2.42734,-3.95646 4.18456,-7.56494 5.51324,-11.32156 l 1.9503,-5.51411 0.12865,-16.47388 0.12865,-16.47389 -1.79293,-2.72535 c -1.03424,-1.5721 -2.36383,-2.94988 -3.14209,-3.25596 -0.74204,-0.29184 -1.67546,-0.73053 -2.07426,-0.97487 -0.39881,-0.24434 -4.18999,-1.26301 -8.42485,-2.26371 -5.2761,-1.24674 -10.03886,-2.77869 -15.1309,-4.86688 -4.08712,-1.67608 -9.16299,-3.59452 -11.27969,-4.26318 l -3.84855,-1.21576 -9.973031,3.88461 c -8.736814,3.40309 -15.202997,5.54963 -25.381837,8.42584 -3.549638,1.00301 -6.398414,3.0991 -7.712353,5.67463 -1.039956,2.03848 -1.046546,2.21885 -0.701213,19.19353 l 0.348609,17.1357 1.918541,5.04521 c 1.055198,2.77487 2.3981,5.91584 2.984229,6.97994 0.586128,1.0641 1.391982,2.5437 1.790786,3.28799 2.141801,3.99729 7.778688,10.5236 12.141206,14.05693 6.196316,5.01855 6.847,5.50566 9.546498,7.14656 1.49817,0.91067 5.116775,2.91771 8.041339,4.46008 6.848246,3.61165 8.226736,3.68528 14.168646,0.75681 z"
       id="path61"
       transform="matrix(0.26458333,0,0,0.26458333,20.202594,143.30061)" /><path
       style="fill:#ffffff;fill-opacity:1;stroke:#15456a;stroke-width:1.64432;stroke-linecap:round;stroke-dasharray:none;stroke-opacity:1"
       d="m 46.202775,66.42709 c 0.02319,-0.563133 0.13774,-0.677677 0.292053,-0.292054 0.13964,0.348954 0.122467,0.765885 -0.03816,0.926515 -0.160629,0.160629 -0.27488,-0.124878 -0.25389,-0.634461 z"
       id="path62"
       transform="matrix(0.26458333,0,0,0.26458333,20.202594,143.30061)" /><path
       style="fill:#15456a;fill-opacity:1;stroke:#15456a;stroke-width:1.64432;stroke-linecap:round;stroke-dasharray:none;stroke-opacity:1"
       d="m 171.79482,118.59591 c -0.70759,-0.18911 -0.79983,-4.7249 -1.01059,-49.698282 L 170.55229,19.407454 168.48293,15.98254 C 166.48186,12.670654 164.74704,11.097827 160.58436,8.8215285 159.14061,8.0320324 155.22361,7.9674556 101.39296,7.8456883 49.216595,7.7276631 43.747616,7.787474 43.747616,8.4761181 c 0,0.4184544 0.542071,2.6887909 1.2046,5.0451939 l 1.2046,4.284367 0.01729,23.572349 c 0.01198,16.340581 0.179639,23.767974 0.546486,24.209998 0.394323,0.475129 0.36011,0.639533 -0.134237,0.645048 -0.556478,0.0062 -0.5577,0.0744 -0.0076,0.422974 0.457202,0.289701 0.493807,0.515729 0.12085,0.746228 -0.375375,0.231993 -0.535008,5.631401 -0.535008,18.096021 v 17.765373 l -3.157268,2.09085 c -1.736497,1.14998 -3.313586,1.93468 -3.504643,1.74379 -0.191057,-0.1909 -0.4176,-15.338627 -0.50343,-33.661632 C 38.913441,55.113672 38.695912,40.110121 38.515872,40.095453 38.335832,40.080784 30.304903,39.891403 20.669364,39.674607 7.8463612,39.386094 2.9547448,39.118218 2.4210485,38.67529 1.8213613,38.177593 1.6918968,36.550752 1.6918968,29.512823 c 0,-7.827835 0.1016752,-8.856263 1.1927073,-12.064031 C 4.3315902,13.194476 5.568432,11.052974 8.1713248,8.2952156 10.765946,5.5462214 13.373838,3.8051039 16.841133,2.5069569 l 2.822559,-1.0567597 h 70.233995 70.234003 l 3.32049,1.238868 c 4.48266,1.6724686 9.68974,6.6568348 12.07398,11.5575698 l 1.6396,3.370156 v 50.649692 50.649687 l -2.29614,-0.0561 c -1.26288,-0.0308 -2.64654,-0.14972 -3.0748,-0.26419 z M 39.300829,27.553747 C 39.600068,19.103521 36.833191,13.732904 30.545205,10.558739 27.791163,9.1685026 27.340624,9.0880699 23.370577,9.2778799 c -4.063,0.1942544 -4.363564,0.2889953 -7.357188,2.3190561 -2.685746,1.821281 -3.358561,2.592977 -4.82318,5.532026 -1.4497229,2.909159 -1.7514041,4.102221 -2.0349795,8.047761 -0.5288502,7.358182 -1.9088869,6.765424 15.3980585,6.613823 l 14.602037,-0.127907 z"
       id="path63"
       transform="matrix(0.26458333,0,0,0.26458333,20.202594,143.30061)" /><path
       style="fill:#15456a;fill-opacity:1;stroke:#15456a;stroke-width:1.64432;stroke-linecap:round;stroke-dasharray:none;stroke-opacity:1"
       d="m 66.637129,47.42005 c -2.417811,-0.201947 -3.760804,-0.565222 -4.471442,-1.20951 -1.405304,-1.274092 -1.293005,-3.160664 0.267981,-4.50198 l 1.283685,-1.103038 h 40.796037 c 45.87023,0 43.64843,-0.169061 43.64843,3.321287 0,1.262908 -0.32146,2.137223 -1.01739,2.76713 -0.98138,0.888269 -2.3633,0.922532 -39.03448,0.96781 -20.909397,0.02582 -39.572166,-0.08295 -41.472821,-0.241699 z"
       id="path64"
       transform="matrix(0.26458333,0,0,0.26458333,20.202594,143.30061)" /><path
       style="fill:#15456a;fill-opacity:1;stroke:#15456a;stroke-width:1.64432;stroke-linecap:round;stroke-dasharray:none;stroke-opacity:1"
       d="m 61.950003,73.559446 c -1.161523,-1.283468 -1.009737,-3.584434 0.318784,-4.832514 l 1.118803,-1.051061 h 29.968045 c 23.224765,0 30.148365,0.135965 30.769425,0.604248 0.44076,0.332337 0.94224,1.510312 1.11442,2.617721 0.57011,3.666907 1.68426,3.545618 -32.569631,3.545618 -28.371929,0 -29.961216,-0.04574 -30.719846,-0.884012 z"
       id="path65"
       transform="matrix(0.26458333,0,0,0.26458333,20.202594,143.30061)" /><path
       style="fill:#15456a;fill-opacity:1;stroke:#15456a;stroke-width:1.64409451;stroke-linecap:round;stroke-dasharray:none;stroke-opacity:1"
       d="m 222.48631,86.516243 c -14.86682,-1.687938 -24.14407,-8.441192 -26.41259,-19.226715 -0.29634,-1.4089 -0.53879,-3.312284 -0.53879,-4.229742 v -1.668103 h 9.57659 9.5766 l 0.63923,2.494165 c 0.84639,3.302437 3.71816,6.235418 7.05215,7.202467 1.43765,0.417 4.43767,0.689284 7.47676,0.678596 4.44701,-0.01564 5.4184,-0.176262 7.84254,-1.296796 3.51343,-1.624032 4.72276,-3.454311 4.72084,-7.144836 -0.002,-3.877856 -1.62617,-5.960852 -6.27919,-8.0531 -0.93054,-0.418421 -6.17409,-2.232327 -11.65233,-4.030901 -12.72553,-4.177958 -17.57264,-6.520022 -21.46232,-10.370335 -3.52746,-3.491769 -4.93556,-6.318021 -5.67484,-11.390181 -1.46523,-10.052978 2.83745,-18.603464 11.40949,-22.6734445 6.46511,-3.0696174 15.91548,-4.416683 24.47354,-3.4884814 15.70496,1.7033517 24.79613,8.7061999 26.29775,20.2569349 l 0.33123,2.547912 -9.78733,-0.130916 -9.78733,-0.130916 -0.29833,-1.460311 c -0.49361,-2.416136 -1.8687,-4.004563 -4.64088,-5.360865 -6.90039,-3.376042 -18.40778,-0.904873 -18.59812,3.993876 -0.23026,5.925877 1.84815,7.432451 17.30081,12.540846 16.01743,5.295099 22.35139,8.937231 25.45298,14.635873 3.52573,6.477921 3.53623,17.313814 0.023,23.768714 -3.0286,5.564547 -9.74574,9.876196 -18.0305,11.57357 -5.38825,1.103934 -13.94883,1.537431 -19.01099,0.962689 z"
       id="path66"
       transform="matrix(0.26458333,0,0,0.26458333,20.202594,143.30061)" /><path
       style="fill:#15456a;fill-opacity:1;stroke:#15456a;stroke-width:1.64432;stroke-linecap:round;stroke-dasharray:none;stroke-opacity:1"
       d="M 275.77917,67.192471 V 26.586949 h 8.39728 8.39728 l 0.60471,4.568896 0.60472,4.568897 3.20383,-3.282643 c 3.84624,-3.940851 7.20391,-5.658303 12.53647,-6.412425 4.55936,-0.644778 9.84037,0.231514 13.96166,2.316696 5.18646,2.624108 9.53735,8.60765 11.55042,15.884645 1.1944,4.317637 1.48484,17.272126 0.49312,21.994658 -1.98077,9.432359 -7.92108,16.55754 -16.0567,19.259446 -8.92886,2.965344 -17.37204,1.01494 -23.12462,-5.341869 l -2.6824,-2.964155 v 15.309452 15.309443 h -8.94288 -8.94289 z m 35.62086,5.343762 c 5.20637,-2.363737 7.91872,-11.347272 6.48393,-21.475329 -1.19899,-8.463505 -4.39164,-12.107768 -10.53134,-12.02105 -4.93277,0.06967 -8.7509,2.266769 -12.2975,7.076436 l -1.39018,1.885275 v 8.050616 c 0,8.010872 0.007,8.061225 1.36901,10.199702 1.63067,2.559844 4.90845,5.606498 7.02054,6.525503 2.23634,0.973066 6.93834,0.851738 9.34554,-0.241153 z"
       id="path67"
       transform="matrix(0.26458333,0,0,0.26458333,20.202594,143.30061)" /><path
       style="fill:#15456a;fill-opacity:1;stroke:#15456a;stroke-width:1.64432;stroke-linecap:round;stroke-dasharray:none;stroke-opacity:1"
       d="M 350.70603,44.714414 V 3.8671926 h 8.70118 8.70119 V 19.864625 35.862057 l 3.43959,-3.184536 c 4.41217,-4.084994 8.14424,-5.92696 13.43678,-6.631729 10.07342,-1.341405 18.39576,2.76705 21.29346,10.511853 1.67458,4.475696 1.93276,8.338237 1.94271,29.063779 l 0.01,19.940212 h -8.94288 -8.94289 l -0.0115,-18.731714 c -0.006,-10.302443 -0.20943,-19.584997 -0.45131,-20.627898 -0.50207,-2.164774 -1.66274,-3.885836 -3.5911,-5.324933 -1.06735,-0.796545 -2.03197,-0.992227 -4.80412,-0.974554 -4.22088,0.02691 -7.10342,1.298423 -10.56352,4.659644 l -2.33137,2.264761 v 19.367349 19.367345 h -8.94289 -8.94288 z"
       id="path68"
       transform="matrix(0.26458333,0,0,0.26458333,20.202594,143.30061)" /><path
       style="fill:#15456a;fill-opacity:1;stroke:#15456a;stroke-width:1.64432;stroke-linecap:round;stroke-dasharray:none;stroke-opacity:1"
       d="M 425.14949,56.074293 V 26.586949 h 8.94288 8.94288 v 29.487344 29.487343 h -8.94288 -8.94288 z"
       id="path69"
       transform="matrix(0.26458333,0,0,0.26458333,20.202594,143.30061)" /><path
       style="fill:#15456a;fill-opacity:1;stroke:#15456a;stroke-width:0.822159;stroke-linecap:round;stroke-dasharray:none;stroke-opacity:1"
       d="m 430.11019,18.948497 c -2.4712,-0.664071 -4.21736,-2.054464 -5.36506,-4.27197 -0.62611,-1.209716 -0.88694,-4.568535 -0.47369,-6.0999098 0.63468,-2.3519765 2.46272,-4.2274435 5.07279,-5.2043944 2.63619,-0.986732 7.3398,-0.8663529 9.87633,0.2527645 1.49881,0.6612708 3.31081,2.4698412 3.94436,3.9368815 2.05822,4.7659862 -0.49742,10.1249322 -5.43741,11.4017582 -1.81858,0.470044 -5.84159,0.462053 -7.61732,-0.01513 z"
       id="path74"
       transform="matrix(0.26458333,0,0,0.26458333,20.202594,143.30061)" /><path
       style="fill:#15456a;fill-opacity:1;stroke:#15456a;stroke-width:0.822159;stroke-linecap:round;stroke-dasharray:none;stroke-opacity:1"
       d="M 460.07507,56.195143 V 26.586949 h 8.70118 8.70119 v 2.985789 c 0,1.642184 0.0699,3.654348 0.15528,4.471476 l 0.15529,1.485686 2.09347,-2.135754 c 4.63698,-4.73064 8.94638,-6.87604 15.16665,-7.550594 9.9244,-1.076245 17.58929,2.881834 20.69848,10.688504 1.72582,4.333255 1.85251,6.359542 1.85275,29.633192 l 2e-4,19.638088 h -9.06373 -9.06373 v -19.43528 c 0,-18.432178 -0.0238,-19.511619 -0.46036,-20.914411 -1.08086,-3.472802 -3.62214,-5.340273 -7.51573,-5.522973 -4.28469,-0.201052 -7.42144,1.141066 -11.16877,4.778778 l -2.37045,2.30111 0.002,19.396388 0.002,19.396388 h -8.94289 -8.94288 z"
       id="path75"
       transform="matrix(0.26458333,0,0,0.26458333,20.202594,143.30061)" /><path
       style="fill:#15456a;fill-opacity:1;stroke:#15456a;stroke-width:0.822159;stroke-linecap:round;stroke-dasharray:none;stroke-opacity:1"
       d="m 537.29807,41.05607 c -4.78565,-7.189327 -8.903,-13.387226 -9.14966,-13.773108 l -0.44848,-0.701605 9.62697,0.06322 9.62697,0.06322 5.16557,8.699357 5.16557,8.699358 -0.56718,1.043875 c -0.50282,0.925402 -1.00012,1.291625 -4.38177,3.226834 -3.76707,2.15577 -3.82963,2.205257 -5.02263,3.973217 -0.66443,0.984641 -1.23193,1.787303 -1.26111,1.783697 -0.0292,-0.0036 -3.9686,-5.888739 -8.75425,-13.078067 z"
       id="path76"
       transform="matrix(0.26458333,0,0,0.26458333,20.202594,143.30061)" /><path
       style="fill:#15456a;fill-opacity:1;stroke:#15456a;stroke-width:0.822159;stroke-linecap:round;stroke-dasharray:none;stroke-opacity:1"
       d="m 556.68398,64.431005 c -0.53845,-0.852306 -1.33587,-1.47985 -3.93816,-3.09919 -3.24794,-2.021116 -3.27003,-2.040991 -4.78591,-4.306804 l -1.5229,-2.276318 1.21844,-1.832475 c 1.20772,-1.816346 1.25076,-1.851038 4.89043,-3.94126 3.78861,-2.17576 4.14254,-2.446439 4.74777,-3.63105 l 0.35756,-0.699855 0.53392,0.949978 c 0.42048,0.748144 1.26243,1.413015 3.96285,3.12936 3.34371,2.125211 3.46555,2.232747 4.90196,4.326298 l 1.47302,2.146915 -1.23132,1.916506 -1.23132,1.916506 -3.68162,2.179688 c -3.14767,1.863562 -3.77136,2.332813 -4.30036,3.23548 -0.3403,0.580685 -0.64134,1.055596 -0.66897,1.055359 -0.0276,-2.38e-4 -0.35406,-0.48135 -0.72539,-1.069138 z"
       id="path77"
       transform="matrix(0.26458333,0,0,0.26458333,20.202594,143.30061)" /><path
       style="fill:#15456a;fill-opacity:1;stroke:#15456a;stroke-width:0.822159;stroke-linecap:round;stroke-dasharray:none;stroke-opacity:1"
       d="m 567.56247,52.638406 c -1.30765,-1.912549 -1.5272,-2.105334 -4.89526,-4.298498 -2.73034,-1.777902 -3.65305,-2.514354 -4.08816,-3.262944 l -0.56194,-0.966798 5.10925,-8.756016 5.10925,-8.756016 9.59921,-0.0056 9.59922,-0.0056 -3.69849,5.619514 c -2.03416,3.090733 -6.19723,9.402841 -9.25126,14.026906 l -5.55278,8.407392 z"
       id="path78"
       transform="matrix(0.26458333,0,0,0.26458333,20.202594,143.30061)" /><path
       style="fill:#15456a;fill-opacity:1;stroke:#15456a;stroke-width:0.822159;stroke-linecap:round;stroke-dasharray:none;stroke-opacity:1"
       d="m 525.81734,85.667058 c 0,-0.07495 4.55847,-6.932892 10.12994,-15.239868 l 10.12993,-15.103593 1.53207,2.240401 c 1.50022,2.193828 1.59739,2.28113 4.67416,4.199677 2.50199,1.560131 3.30363,2.197395 3.93498,3.128126 0.43609,0.642867 0.76238,1.243031 0.7251,1.333698 -0.0373,0.09067 -2.7869,4.528384 -6.11027,9.861595 l -6.04249,9.696746 -9.48671,0.0097 c -5.21769,0.0054 -9.48671,-0.05158 -9.48671,-0.12653 z"
       id="path79"
       transform="matrix(0.26458333,0,0,0.26458333,20.202594,143.30061)" /><path
       style="fill:#15456a;fill-opacity:1;stroke:#15456a;stroke-width:0.822159;stroke-linecap:round;stroke-dasharray:none;stroke-opacity:1"
       d="m 564.36842,76.829939 c -3.0575,-4.925416 -5.79971,-9.355052 -6.09379,-9.843635 l -0.53471,-0.888334 0.74426,-1.144156 c 0.63198,-0.971534 1.29611,-1.471848 4.4019,-3.316127 3.60972,-2.143517 3.67316,-2.195919 4.84254,-4.000044 0.65169,-1.00544 1.26028,-1.74132 1.3524,-1.635287 0.0921,0.106033 2.64946,3.890789 5.68295,8.410571 3.03349,4.519781 7.51653,11.181625 9.96231,14.804097 l 4.44688,6.586312 -9.62283,-0.009 -9.62282,-0.009 z"
       id="path80"
       transform="matrix(0.26458333,0,0,0.26458333,20.202594,143.30061)" /></g></svg>
