<?xml version="1.0" encoding="UTF-8" standalone="no"?><svg xmlns="http://www.w3.org/2000/svg" xmlns:xlink="http://www.w3.org/1999/xlink" contentStyleType="text/css" height="1136px" preserveAspectRatio="none" style="width:450px;height:1136px;background:#FFFFFF;" version="1.1" viewBox="0 0 450 1136" width="450px" zoomAndPan="magnify"><defs/><g><!--cluster prj--><g id="cluster_prj"><rect fill="none" height="123" rx="2.5" ry="2.5" style="stroke:#181818;stroke-width:1.0;" width="115" x="144" y="7"/><polygon fill="none" points="242,12,242,26,254,26,254,18,248,12,242,12" style="stroke:#181818;stroke-width:1.0;"/><line style="stroke:#181818;stroke-width:1.0;" x1="248" x2="248" y1="12" y2="18"/><line style="stroke:#181818;stroke-width:1.0;" x1="254" x2="248" y1="18" y2="18"/><text fill="#000000" font-family="sans-serif" font-size="14" font-weight="bold" lengthAdjust="spacing" textLength="99" x="152" y="21.9951">project_x.rst</text></g><!--cluster au--><g id="cluster_au"><rect fill="none" height="129" rx="2.5" ry="2.5" style="stroke:#181818;stroke-width:1.0;" width="194" x="104" y="179"/><polygon fill="none" points="281,184,281,198,293,198,293,190,287,184,281,184" style="stroke:#181818;stroke-width:1.0;"/><line style="stroke:#181818;stroke-width:1.0;" x1="287" x2="287" y1="184" y2="190"/><line style="stroke:#181818;stroke-width:1.0;" x1="293" x2="287" y1="190" y2="190"/><text fill="#000000" font-family="sans-serif" font-size="14" font-weight="bold" lengthAdjust="spacing" textLength="117" x="142.5" y="193.9951">use_case_X.rst</text></g><!--cluster at--><g id="cluster_at"><rect fill="none" height="773" rx="2.5" ry="2.5" style="stroke:#181818;stroke-width:1.0;" width="431" x="7" y="357"/><polygon fill="none" points="421,362,421,376,433,376,433,368,427,362,421,362" style="stroke:#181818;stroke-width:1.0;"/><line style="stroke:#181818;stroke-width:1.0;" x1="427" x2="427" y1="362" y2="368"/><line style="stroke:#181818;stroke-width:1.0;" x1="433" x2="427" y1="368" y2="368"/><text fill="#000000" font-family="sans-serif" font-size="14" font-weight="bold" lengthAdjust="spacing" textLength="74" x="185.5" y="371.9951">tool_X.rst</text></g><!--cluster FE_TOC--><g id="cluster_FE_TOC"><a href="../tools/sphinx/index.html#FE_TOC" target="_top" title="../tools/sphinx/index.html#FE_TOC" xlink:actuate="onRequest" xlink:href="../tools/sphinx/index.html#FE_TOC" xlink:show="new" xlink:title="../tools/sphinx/index.html#FE_TOC" xlink:type="simple"><rect fill="#FFD700" height="236" rx="2.5" ry="2.5" style="stroke:#181818;stroke-width:1.0;" width="213" x="193" y="408"/><text fill="#000000" font-family="sans-serif" font-size="12" font-weight="bold" lengthAdjust="spacing" textLength="56" x="271.5" y="421.1387">Feature</text><text fill="#000000" font-family="sans-serif" font-size="14" font-weight="bold" lengthAdjust="spacing" textLength="106" x="246.5" y="436.9639">Create tables</text><text fill="#000000" font-family="sans-serif" font-size="14" font-weight="bold" lengthAdjust="spacing" textLength="91" x="254" y="453.2607">of contents</text><text fill="#000000" font-family="sans-serif" font-size="14" font-weight="bold" lengthAdjust="spacing" textLength="92" x="253.5" y="469.5576">with Sphinx</text><text fill="#000000" font-family="sans-serif" font-size="10" font-weight="bold" lengthAdjust="spacing" textLength="39" x="280" y="482.1416">FE_TOC</text></a></g><!--entity CODEX--><g id="elem_CODEX"><a href="../projects/codex/index.html#CODEX" target="_top" title="../projects/codex/index.html#CODEX" xlink:actuate="onRequest" xlink:href="../projects/codex/index.html#CODEX" xlink:show="new" xlink:title="../projects/codex/index.html#CODEX" xlink:type="simple"><path d="M169.5167,50.6468 C174.6525,42.6495 180.3915,43.1228 186.2485,49.826 C191.4631,42.7101 196.9117,41.964 202.4364,49.483 C207.2785,42.5091 214.8582,41.3783 219.1837,50.0364 C223.5795,43.5559 230.7301,42.7165 234.9828,50.1985 C242.0811,54.2743 241.8011,61.0812 233.9973,64.1006 C242.0493,67.9334 240.9161,73.6889 235.4606,78.8609 C241.2168,82.1991 241.0752,88.4301 235.7511,92.0131 C241.7994,97.652 240.7387,102.7754 233.9141,106.8169 C230.0105,115.116 224.3867,114.6261 218.4603,109.0736 C213.481,116.2566 206.9473,118.8027 201.1854,109.9148 C196.3823,116.4063 188.701,115.7959 185.8619,107.8326 C180.701,114.1697 173.1795,113.6934 169.1932,106.3966 C164.1226,102.1159 163.1426,97.5947 169.6034,93.6861 C160.8829,91.7119 158.8482,84.5501 165.9853,78.7378 C160.4773,73.0658 160.7582,68.0362 167.9439,64.0578 C162.1018,59.3935 162.9914,53.8607 169.5167,50.6468 " fill="#808080" style="stroke:#181818;stroke-width:0.5;"/><text fill="#000000" font-family="sans-serif" font-size="12" lengthAdjust="spacing" textLength="44" x="176" y="68.1387">Project</text><text fill="#000000" font-family="sans-serif" font-size="14" font-weight="bold" lengthAdjust="spacing" textLength="50" x="176" y="83.9639">Codex</text><text fill="#000000" font-family="sans-serif" font-size="10" lengthAdjust="spacing" textLength="37" x="176" y="96.5479">CODEX</text></a></g><!--entity UC_SYS_REQ--><g id="elem_UC_SYS_REQ"><a href="../usecases/system_requirements.html#UC_SYS_REQ" target="_top" title="../usecases/system_requirements.html#UC_SYS_REQ" xlink:actuate="onRequest" xlink:href="../usecases/system_requirements.html#UC_SYS_REQ" xlink:show="new" xlink:title="../usecases/system_requirements.html#UC_SYS_REQ" xlink:type="simple"><rect fill="#D8BFD8" height="78.2031" rx="2.5" ry="2.5" style="stroke:#181818;stroke-width:0.5;" width="162" x="120" y="214"/><text fill="#000000" font-family="sans-serif" font-size="12" lengthAdjust="spacing" textLength="59" x="130" y="235.1387">Use Case</text><text fill="#000000" font-family="sans-serif" font-size="14" font-weight="bold" lengthAdjust="spacing" textLength="142" x="130" y="250.9639">Document system</text><text fill="#000000" font-family="sans-serif" font-size="14" font-weight="bold" lengthAdjust="spacing" textLength="107" x="130" y="267.2607">requirements</text><text fill="#000000" font-family="sans-serif" font-size="10" lengthAdjust="spacing" textLength="69" x="130" y="279.8447">UC_SYS_REQ</text></a></g><!--entity RE_SPHINX_WARNINGS--><g id="elem_RE_SPHINX_WARNINGS"><a href="../tools/sphinx/index.html#RE_SPHINX_WARNINGS" target="_top" title="../tools/sphinx/index.html#RE_SPHINX_WARNINGS" xlink:actuate="onRequest" xlink:href="../tools/sphinx/index.html#RE_SPHINX_WARNINGS" xlink:show="new" xlink:title="../tools/sphinx/index.html#RE_SPHINX_WARNINGS" xlink:type="simple"><rect fill="#FFA500" height="78.2031" rx="2.5" ry="2.5" style="stroke:#181818;stroke-width:0.5;" width="140" x="64" y="715"/><text fill="#000000" font-family="sans-serif" font-size="12" lengthAdjust="spacing" textLength="67" x="74" y="736.1387">Restriction</text><text fill="#000000" font-family="sans-serif" font-size="14" font-weight="bold" lengthAdjust="spacing" textLength="86" x="74" y="751.9639">Warning to</text><text fill="#000000" font-family="sans-serif" font-size="14" font-weight="bold" lengthAdjust="spacing" textLength="40" x="74" y="768.2607">Error</text><text fill="#000000" font-family="sans-serif" font-size="10" lengthAdjust="spacing" textLength="120" x="74" y="780.8447">RE_SPHINX_WARNINGS</text></a></g><!--entity CHECK_SPHINX_WARNINGS_1--><g id="elem_CHECK_SPHINX_WARNINGS_1"><a href="../tools/sphinx/index.html#CHECK_SPHINX_WARNINGS_1" target="_top" title="../tools/sphinx/index.html#CHECK_SPHINX_WARNINGS_1" xlink:actuate="onRequest" xlink:href="../tools/sphinx/index.html#CHECK_SPHINX_WARNINGS_1" xlink:show="new" xlink:title="../tools/sphinx/index.html#CHECK_SPHINX_WARNINGS_1" xlink:type="simple"><rect fill="#7CFC00" height="94.5" rx="2.5" ry="2.5" style="stroke:#181818;stroke-width:0.5;" width="175" x="67.5" y="870"/><text fill="#000000" font-family="sans-serif" font-size="12" lengthAdjust="spacing" textLength="38" x="77.5" y="891.1387">Check</text><text fill="#000000" font-family="sans-serif" font-size="14" font-weight="bold" lengthAdjust="spacing" textLength="105" x="77.5" y="906.9639">Warnings are</text><text fill="#000000" font-family="sans-serif" font-size="14" font-weight="bold" lengthAdjust="spacing" textLength="119" x="77.5" y="923.2607">transformed to</text><text fill="#000000" font-family="sans-serif" font-size="14" font-weight="bold" lengthAdjust="spacing" textLength="50" x="77.5" y="939.5576">errors</text><text fill="#000000" font-family="sans-serif" font-size="10" lengthAdjust="spacing" textLength="155" x="77.5" y="952.1416">CHECK_SPHINX_WARNINGS_1</text></a></g><!--entity CHECK_SPHINX_WARNINGS_2--><g id="elem_CHECK_SPHINX_WARNINGS_2"><a href="../tools/sphinx/index.html#CHECK_SPHINX_WARNINGS_2" target="_top" title="../tools/sphinx/index.html#CHECK_SPHINX_WARNINGS_2" xlink:actuate="onRequest" xlink:href="../tools/sphinx/index.html#CHECK_SPHINX_WARNINGS_2" xlink:show="new" xlink:title="../tools/sphinx/index.html#CHECK_SPHINX_WARNINGS_2" xlink:type="simple"><rect fill="#7CFC00" height="78.2031" rx="2.5" ry="2.5" style="stroke:#181818;stroke-width:0.5;" width="175" x="239.5" y="715"/><text fill="#000000" font-family="sans-serif" font-size="12" lengthAdjust="spacing" textLength="38" x="249.5" y="736.1387">Check</text><text fill="#000000" font-family="sans-serif" font-size="14" font-weight="bold" lengthAdjust="spacing" textLength="118" x="249.5" y="751.9639">No warnings in</text><text fill="#000000" font-family="sans-serif" font-size="14" font-weight="bold" lengthAdjust="spacing" textLength="91" x="249.5" y="768.2607">Sphinx logs</text><text fill="#000000" font-family="sans-serif" font-size="10" lengthAdjust="spacing" textLength="155" x="249.5" y="780.8447">CHECK_SPHINX_WARNINGS_2</text></a></g><!--entity TOOL_SPHINX--><g id="elem_TOOL_SPHINX"><a href="../tools/sphinx/index.html#TOOL_SPHINX" target="_top" title="../tools/sphinx/index.html#TOOL_SPHINX" xlink:actuate="onRequest" xlink:href="../tools/sphinx/index.html#TOOL_SPHINX" xlink:show="new" xlink:title="../tools/sphinx/index.html#TOOL_SPHINX" xlink:type="simple"><polygon fill="#0FBCF9" points="22.5,538.5,32.5,528.5,133.5,528.5,133.5,590.4063,123.5,600.4063,22.5,600.4063,22.5,538.5" style="stroke:#181818;stroke-width:0.5;"/><line style="stroke:#181818;stroke-width:0.5;" x1="123.5" x2="133.5" y1="538.5" y2="528.5"/><line style="stroke:#181818;stroke-width:0.5;" x1="22.5" x2="123.5" y1="538.5" y2="538.5"/><line style="stroke:#181818;stroke-width:0.5;" x1="123.5" x2="123.5" y1="538.5" y2="600.4063"/><text fill="#000000" font-family="sans-serif" font-size="12" lengthAdjust="spacing" textLength="26" x="37.5" y="559.6387">Tool</text><text fill="#000000" font-family="sans-serif" font-size="14" font-weight="bold" lengthAdjust="spacing" textLength="53" x="37.5" y="575.4639">Sphinx</text><text fill="#000000" font-family="sans-serif" font-size="10" lengthAdjust="spacing" textLength="71" x="37.5" y="588.0479">TOOL_SPHINX</text></a></g><!--entity TOOL_NITPICKER--><g id="elem_TOOL_NITPICKER"><a href="../tools/nitpicker.html#TOOL_NITPICKER" target="_top" title="../tools/nitpicker.html#TOOL_NITPICKER" xlink:actuate="onRequest" xlink:href="../tools/nitpicker.html#TOOL_NITPICKER" xlink:show="new" xlink:title="../tools/nitpicker.html#TOOL_NITPICKER" xlink:type="simple"><polygon fill="#0FBCF9" points="216.5,1052,226.5,1042,343.5,1042,343.5,1103.9063,333.5,1113.9063,216.5,1113.9063,216.5,1052" style="stroke:#181818;stroke-width:0.5;"/><line style="stroke:#181818;stroke-width:0.5;" x1="333.5" x2="343.5" y1="1052" y2="1042"/><line style="stroke:#181818;stroke-width:0.5;" x1="216.5" x2="333.5" y1="1052" y2="1052"/><line style="stroke:#181818;stroke-width:0.5;" x1="333.5" x2="333.5" y1="1052" y2="1113.9063"/><text fill="#000000" font-family="sans-serif" font-size="12" lengthAdjust="spacing" textLength="26" x="231.5" y="1073.1387">Tool</text><text fill="#000000" font-family="sans-serif" font-size="14" font-weight="bold" lengthAdjust="spacing" textLength="70" x="231.5" y="1088.9639">Nitpicker</text><text fill="#000000" font-family="sans-serif" font-size="10" lengthAdjust="spacing" textLength="87" x="231.5" y="1101.5479">TOOL_NITPICKER</text></a></g><!--entity ER_CHAPTERS_INVALID--><g id="elem_ER_CHAPTERS_INVALID"><a href="../tools/sphinx/index.html#ER_CHAPTERS_INVALID" target="_top" title="../tools/sphinx/index.html#ER_CHAPTERS_INVALID" xlink:actuate="onRequest" xlink:href="../tools/sphinx/index.html#ER_CHAPTERS_INVALID" xlink:show="new" xlink:title="../tools/sphinx/index.html#ER_CHAPTERS_INVALID" xlink:type="simple"><rect fill="#FFC0CB" height="110.7969" rx="2.5" ry="2.5" style="stroke:#181818;stroke-width:0.5;" width="146" x="236" y="509"/><text fill="#000000" font-family="sans-serif" font-size="12" lengthAdjust="spacing" textLength="31" x="246" y="530.1387">Error</text><text fill="#000000" font-family="sans-serif" font-size="14" font-weight="bold" lengthAdjust="spacing" textLength="103" x="246" y="545.9639">Not correctly</text><text fill="#000000" font-family="sans-serif" font-size="14" font-weight="bold" lengthAdjust="spacing" textLength="74" x="246" y="562.2607">identified</text><text fill="#000000" font-family="sans-serif" font-size="14" font-weight="bold" lengthAdjust="spacing" textLength="126" x="246" y="578.5576">chapters do not</text><text fill="#000000" font-family="sans-serif" font-size="14" font-weight="bold" lengthAdjust="spacing" textLength="117" x="246" y="594.8545">throw an error</text><text fill="#000000" font-family="sans-serif" font-size="10" lengthAdjust="spacing" textLength="122" x="246" y="607.4385">ER_CHAPTERS_INVALID</text></a></g><!--link FE_TOC to TOOL_SPHINX--><g id="link_FE_TOC_TOOL_SPHINX"><path codeLine="29" d="M192.9097,564.5 C192.85,564.5 192.79,564.5 192.7297,564.5 C192.4886,564.5 192.243,564.5 191.9929,564.5 C191.4928,564.5 190.9748,564.5 190.4398,564.5 C189.3699,564.5 188.2318,564.5 187.032,564.5 C184.6323,564.5 181.9853,564.5 179.1413,564.5 C167.765,564.5 153.235,564.5 138.76,564.5 " fill="none" id="FE_TOC-to-TOOL_SPHINX" style="stroke:#181818;stroke-width:1.0;"/><polygon fill="#181818" points="133.74,564.5,142.74,568.5,138.74,564.5,142.74,560.5,133.74,564.5" style="stroke:#181818;stroke-width:1.0;"/><text fill="#000000" font-family="sans-serif" font-size="13" lengthAdjust="spacing" textLength="31" x="151.57" y="557.5669">tools</text></g><!--link CODEX to UC_SYS_REQ--><g id="link_CODEX_UC_SYS_REQ"><path codeLine="31" d="M201,114.01 C201,141.24 201,179.18 201,208.39 " fill="none" id="CODEX-to-UC_SYS_REQ" style="stroke:#181818;stroke-width:1.0;"/><polygon fill="#181818" points="201,213.74,205,204.74,201,208.74,197,204.74,201,213.74" style="stroke:#181818;stroke-width:1.0;"/><text fill="#000000" font-family="sans-serif" font-size="13" lengthAdjust="spacing" textLength="30" x="202" y="159.0669">uses</text></g><!--link UC_SYS_REQ to FE_TOC--><g id="link_UC_SYS_REQ_FE_TOC"><path codeLine="33" d="M201,292.26 C201,312.6375 201,339.4125 201,368.202 C201,375.3994 201,382.7227 201,390.1034 C201,393.7938 201,397.4985 201,401.209 C201,403.0643 201,404.921 201,406.778 " fill="none" id="UC_SYS_REQ-to-FE_TOC" style="stroke:#181818;stroke-width:1.0;"/><polygon fill="#181818" points="201,406.778,205,397.778,201,401.778,197,397.778,201,406.778" style="stroke:#181818;stroke-width:1.0;"/><text fill="#000000" font-family="sans-serif" font-size="13" lengthAdjust="spacing" textLength="53" x="202" y="337.0669">features</text></g><!--link ER_CHAPTERS_INVALID to RE_SPHINX_WARNINGS--><g id="link_ER_CHAPTERS_INVALID_RE_SPHINX_WARNINGS"><path codeLine="35" d="M266.18,620.48 C255.35,633.7 243.51,647.59 232,660 C215.84,677.43 197.12,695.63 180.39,711.27 " fill="none" id="ER_CHAPTERS_INVALID-to-RE_SPHINX_WARNINGS" style="stroke:#181818;stroke-width:1.0;"/><polygon fill="#181818" points="176.64,714.77,185.9483,711.5521,180.2948,711.3579,180.489,705.7044,176.64,714.77" style="stroke:#181818;stroke-width:1.0;"/><text fill="#000000" font-family="sans-serif" font-size="13" lengthAdjust="spacing" textLength="72" x="222" y="681.0669">avoided_by</text></g><!--link RE_SPHINX_WARNINGS to CHECK_SPHINX_WARNINGS_1--><g id="link_RE_SPHINX_WARNINGS_CHECK_SPHINX_WARNINGS_1"><path codeLine="36" d="M138.98,793.27 C141.75,814.61 145.24,841.47 148.26,864.66 " fill="none" id="RE_SPHINX_WARNINGS-to-CHECK_SPHINX_WARNINGS_1" style="stroke:#181818;stroke-width:1.0;"/><polygon fill="#181818" points="148.94,869.86,151.7261,860.4134,148.2848,864.9031,143.7951,861.4618,148.94,869.86" style="stroke:#181818;stroke-width:1.0;"/><text fill="#000000" font-family="sans-serif" font-size="13" lengthAdjust="spacing" textLength="75" x="145" y="836.0669">checked_by</text></g><!--link ER_CHAPTERS_INVALID to CHECK_SPHINX_WARNINGS_2--><g id="link_ER_CHAPTERS_INVALID_CHECK_SPHINX_WARNINGS_2"><path codeLine="37" d="M314.25,620.24 C316.99,648.71 320.28,683.03 322.84,709.64 " fill="none" id="ER_CHAPTERS_INVALID-to-CHECK_SPHINX_WARNINGS_2" style="stroke:#181818;stroke-width:1.0;"/><polygon fill="#181818" points="323.34,714.86,326.4725,705.5226,322.868,709.8823,318.5082,706.2778,323.34,714.86" style="stroke:#181818;stroke-width:1.0;"/><text fill="#000000" font-family="sans-serif" font-size="13" lengthAdjust="spacing" textLength="75" x="321" y="681.0669">checked_by</text></g><!--link CHECK_SPHINX_WARNINGS_1 to TOOL_NITPICKER--><g id="link_CHECK_SPHINX_WARNINGS_1_TOOL_NITPICKER"><path codeLine="39" d="M191.83,965.2 C210.07,988.32 231.83,1015.92 249.18,1037.91 " fill="none" id="CHECK_SPHINX_WARNINGS_1-to-TOOL_NITPICKER" style="stroke:#181818;stroke-width:1.0;stroke-dasharray:7.0,7.0;"/><polygon fill="#181818" points="252.36,1041.95,249.925,1032.4069,249.2627,1038.0249,243.6448,1037.3626,252.36,1041.95" style="stroke:#181818;stroke-width:1.0;"/><text fill="#000000" font-family="sans-serif" font-size="13" lengthAdjust="spacing" textLength="75" x="229" y="1008.0669">checked_by</text></g><!--link CHECK_SPHINX_WARNINGS_2 to TOOL_NITPICKER--><g id="link_CHECK_SPHINX_WARNINGS_2_TOOL_NITPICKER"><path codeLine="40" d="M329.77,793.22 C332.36,844.11 333.26,936.47 313,1012 C310.75,1020.4 307.32,1028.98 303.52,1037.03 " fill="none" id="CHECK_SPHINX_WARNINGS_2-to-TOOL_NITPICKER" style="stroke:#181818;stroke-width:1.0;stroke-dasharray:7.0,7.0;"/><polygon fill="#181818" points="301.11,1041.97,308.6402,1035.622,303.2945,1037.4725,301.4441,1032.1268,301.11,1041.97" style="stroke:#181818;stroke-width:1.0;"/><text fill="#000000" font-family="sans-serif" font-size="13" lengthAdjust="spacing" textLength="75" x="331" y="922.0669">checked_by</text></g><!--SRC=[dPLHJzim483VyojEy30f4YtqRHMgXD805IZjqZAO04KcSOWXjJlRNTjD- - -puxGu92beBvLolhjyN-nplu37Q4gU7GVbELlDoPfGzU0WBacAOWa72yvUS2oZTOSBUG18m8A__740ufmj4pWu5UGtxf_q1XEJUDhLWS43TLsF9NZjkW-qp3aUUEEXVrTc5BsA0DpVTphTyaMY6-koBg7gjvF9UNvO93q-mk45Hnldhqst53YAaVgvs-6XfQRZgXMYppcs26y41aybMuX35Y_dc4eG6o7nNCEwBiS_buHZ7HSL_1ilclwOHg7_pNPuYneHnQIHHDVqZEnsHkYjGblDCY9aZgjYah7Sbf80MglHwnmZkUIsbiTL28D4JpaMHegb43Cgjqwkko8oW-aY8xIwH-T-D1jxjg2963dDfSoACdkFJ4wnIInFsbbzpXctI0Cc5HVNgVd6W954GPAKuCGynnbQICm590meaoOeCyvMW2XWtR0Yu8UHTtascVdXD1e5ty-kHqFRfc5vlrf3WVQS4Fggzwp9CiH2SX9BmgZbUeiuLUC5aXa7luOU-j5qSZaAxgBRip0O1HTJcxo-kX-ydg-vnrpHuaPiByFnQnrO7J-Eoy-kYaNA-1mdEurY1wg3ubtwtjNxbqSdbSblJjblr5AajQxHYbvmZEcdp086gwqSeSR3p0BaxFapChsFPNh_8zEhoZXKtOQMo4mripmQvdSs7b-NNMr4AxmVoqhKACVfKvn-TJu22OXSaFWLypfBC9fDHjwL7zPmTYis4Trsid1sYJPHUIqT3MotFXHT7CVyinofLVk2xeEwdTMg5T8fPQi-fEOgLHbDruHEhGzL7z0lfYwj97hQE0qpggjQ3cuVOdqmJMdR6rlEIQNMQHkdJcVm_bjN2jjExWTr_m00]--></g></svg>